<svg width="26" height="26" viewBox="0 0 26 26" fill="none" xmlns="http://www.w3.org/2000/svg">
<path d="M13 2.84375C9.11816 2.84375 5.96875 5.84131 5.96875 9.5332C5.96875 13.7812 10.6562 20.5132 12.3774 22.8384C12.4489 22.9365 12.5425 23.0164 12.6507 23.0715C12.7589 23.1265 12.8786 23.1552 13 23.1552C13.1214 23.1552 13.2411 23.1265 13.3493 23.0715C13.4575 23.0164 13.5511 22.9365 13.6226 22.8384C15.3438 20.5142 20.0312 13.7847 20.0312 9.5332C20.0312 5.84131 16.8818 2.84375 13 2.84375Z" stroke="#00498E" stroke-width="2" stroke-linecap="round" stroke-linejoin="round"/>
<path d="M13 12.2188C14.2944 12.2188 15.3438 11.1694 15.3438 9.875C15.3438 8.58058 14.2944 7.53125 13 7.53125C11.7056 7.53125 10.6562 8.58058 10.6562 9.875C10.6562 11.1694 11.7056 12.2188 13 12.2188Z" stroke="#00498E" stroke-width="2" stroke-linecap="round" stroke-linejoin="round"/>
</svg>
