<svg width="24" height="24" viewBox="0 0 24 24" fill="none" xmlns="http://www.w3.org/2000/svg">
<path d="M16.6292 13.891L17.0852 13.438L16.0262 12.374L15.5722 12.827L16.6292 13.891ZM18.6142 13.248L20.5252 14.287L21.2402 12.969L19.3302 11.931L18.6142 13.248ZM20.8922 16.351L19.4722 17.764L20.5292 18.827L21.9492 17.415L20.8922 16.351ZM18.6062 18.218C17.1562 18.354 13.4062 18.233 9.34417 14.195L8.28617 15.258C12.7182 19.665 16.9372 19.881 18.7462 19.712L18.6062 18.218ZM9.34417 14.195C5.47317 10.345 4.83117 7.10802 4.75117 5.70302L3.25317 5.78802C3.35317 7.55602 4.14817 11.144 8.28617 15.258L9.34417 14.195ZM10.7192 8.01502L11.0062 7.72902L9.95017 6.66602L9.66317 6.95102L10.7192 8.01502ZM11.2342 4.09402L9.97417 2.41002L8.77317 3.31002L10.0332 4.99302L11.2342 4.09402ZM5.73317 2.04302L4.16317 3.60302L5.22117 4.66702L6.79017 3.10702L5.73317 2.04302ZM10.1912 7.48302C9.66117 6.95102 9.66117 6.95102 9.66117 6.95302H9.65917L9.65617 6.95702C9.60896 7.00521 9.56643 7.05778 9.52917 7.11402C9.47517 7.19402 9.41617 7.29902 9.36617 7.43202C9.2444 7.77534 9.21408 8.14443 9.27817 8.50302C9.41217 9.36802 10.0082 10.511 11.5342 12.029L12.5922 10.965C11.1632 9.54502 10.8232 8.68102 10.7602 8.27302C10.7302 8.07902 10.7612 7.98302 10.7702 7.96102C10.7752 7.94702 10.7772 7.94602 10.7702 7.95502C10.7614 7.96889 10.7513 7.98194 10.7402 7.99402L10.7302 8.00402C10.7269 8.00713 10.7236 8.01013 10.7202 8.01302L10.1912 7.48302ZM11.5342 12.029C13.0612 13.547 14.2102 14.139 15.0762 14.271C15.5192 14.339 15.8762 14.285 16.1472 14.184C16.2987 14.1279 16.4405 14.0483 16.5672 13.948C16.5844 13.9336 16.6011 13.9186 16.6172 13.903L16.6242 13.897L16.6272 13.894L16.6282 13.892C16.6282 13.892 16.6292 13.891 16.1002 13.359C15.5702 12.827 15.5732 12.826 15.5732 12.826L15.5752 12.824L15.5772 12.822L15.5832 12.817L15.5932 12.807C15.6052 12.7962 15.6179 12.7862 15.6312 12.777C15.6412 12.77 15.6382 12.773 15.6242 12.779C15.5992 12.788 15.5012 12.819 15.3042 12.789C14.8902 12.725 14.0202 12.385 12.5922 10.965L11.5342 12.029ZM9.97417 2.40902C8.95417 1.04902 6.95017 0.833021 5.73317 2.04302L6.79017 3.10702C7.32217 2.57802 8.26617 2.63302 8.77317 3.31002L9.97417 2.40902ZM4.75217 5.70402C4.73217 5.35802 4.89117 4.99602 5.22117 4.66802L4.16217 3.60402C3.62517 4.13802 3.20217 4.89402 3.25317 5.78802L4.75217 5.70402ZM19.4722 17.764C19.1982 18.038 18.9022 18.192 18.6072 18.219L18.7462 19.712C19.4812 19.643 20.0822 19.273 20.5302 18.828L19.4722 17.764ZM11.0062 7.72902C11.9912 6.75002 12.0642 5.20302 11.2352 4.09502L10.0342 4.99402C10.4372 5.53302 10.3772 6.24002 9.94917 6.66702L11.0062 7.72902ZM20.5262 14.288C21.3432 14.732 21.4702 15.778 20.8932 16.352L21.9512 17.415C23.2912 16.082 22.8782 13.859 21.2412 12.97L20.5262 14.288ZM17.0852 13.439C17.4692 13.057 18.0872 12.963 18.6152 13.249L19.3312 11.932C18.2472 11.342 16.9032 11.505 16.0272 12.375L17.0852 13.439Z" fill="#00498E"/>
</svg>
