<svg width="26" height="26" viewBox="0 0 26 26" fill="none" xmlns="http://www.w3.org/2000/svg">
<path fill-rule="evenodd" clip-rule="evenodd" d="M13.2677 22.7164C14.5137 21.5859 15.6668 20.357 16.716 19.0418C18.926 16.2652 20.2704 13.5276 20.3614 11.0934C20.3974 10.104 20.2337 9.11763 19.8799 8.19303C19.5262 7.26843 18.9897 6.42462 18.3025 5.71199C17.6154 4.99937 16.7916 4.43255 15.8805 4.04541C14.9694 3.65826 13.9896 3.45873 12.9996 3.45873C12.0097 3.45873 11.0299 3.65826 10.1187 4.04541C9.20761 4.43255 8.38387 4.99937 7.69671 5.71199C7.00955 6.42462 6.47307 7.26843 6.11933 8.19303C5.76558 9.11763 5.60182 10.104 5.63783 11.0934C5.72991 13.5276 7.07541 16.2652 9.28433 19.0418C10.3335 20.357 11.4866 21.5859 12.7326 22.7164C12.8525 22.8248 12.9417 22.9035 13.0002 22.9526L13.2677 22.7164ZM12.2007 23.9785C12.2007 23.9785 4.3335 17.3529 4.3335 10.8334C4.3335 8.53481 5.24659 6.33041 6.8719 4.7051C8.49722 3.07978 10.7016 2.16669 13.0002 2.16669C15.2987 2.16669 17.5031 3.07978 19.1284 4.7051C20.7537 6.33041 21.6668 8.53481 21.6668 10.8334C21.6668 17.3529 13.7997 23.9785 13.7997 23.9785C13.362 24.3815 12.6416 24.3772 12.2007 23.9785ZM13.0002 13.8667C13.8047 13.8667 14.5762 13.5471 15.1451 12.9782C15.7139 12.4094 16.0335 11.6378 16.0335 10.8334C16.0335 10.0289 15.7139 9.25732 15.1451 8.68846C14.5762 8.1196 13.8047 7.80002 13.0002 7.80002C12.1957 7.80002 11.4241 8.1196 10.8553 8.68846C10.2864 9.25732 9.96683 10.0289 9.96683 10.8334C9.96683 11.6378 10.2864 12.4094 10.8553 12.9782C11.4241 13.5471 12.1957 13.8667 13.0002 13.8667ZM13.0002 15.1667C11.8509 15.1667 10.7487 14.7101 9.93603 13.8975C9.12338 13.0848 8.66683 11.9826 8.66683 10.8334C8.66683 9.68408 9.12338 8.58188 9.93603 7.76922C10.7487 6.95657 11.8509 6.50002 13.0002 6.50002C14.1494 6.50002 15.2516 6.95657 16.0643 7.76922C16.877 8.58188 17.3335 9.68408 17.3335 10.8334C17.3335 11.9826 16.877 13.0848 16.0643 13.8975C15.2516 14.7101 14.1494 15.1667 13.0002 15.1667Z" fill="white"/>
</svg>
