<svg width="74" height="74" viewBox="0 0 74 74" fill="none" xmlns="http://www.w3.org/2000/svg">
<path d="M18.4735 30.5676H9.80824" stroke="white" stroke-width="2" stroke-linecap="round"/>
<path d="M18.4735 25.464H13.2105" stroke="white" stroke-width="2" stroke-linecap="round"/>
<path d="M18.4735 35.671H13.2105" stroke="white" stroke-width="2" stroke-linecap="round"/>
<path d="M6.56535 30.5676H3.85415" stroke="white" stroke-width="2" stroke-linecap="round"/>
<path d="M9.11711 25.464H7.2565" stroke="white" stroke-width="2" stroke-linecap="round"/>
<path d="M9.11711 35.671H7.2565" stroke="white" stroke-width="2" stroke-linecap="round"/>
<path d="M49.7351 25.5441C48.7685 24.5775 46.727 24.5775 45.8687 24.5775C44.268 24.5775 42.0022 25.5441 42.0022 27.485C42.0022 29.4259 44.2757 30.3925 45.8687 30.3925" stroke="white" stroke-width="2" stroke-linecap="round" stroke-linejoin="round"/>
<path d="M41.9932 35.2179C42.5268 35.8134 45.0012 36.1845 45.8596 36.1845C47.4604 36.1845 49.7261 35.2179 49.7261 33.277C49.7261 31.3361 47.4526 30.3694 45.8596 30.3694" stroke="white" stroke-width="2" stroke-linecap="round" stroke-linejoin="round"/>
<path d="M45.8597 21.6699V38.1177" stroke="white" stroke-width="2" stroke-linecap="round" stroke-linejoin="round"/>
<path d="M70.049 16.1875H20.9454V43.5695" stroke="white" stroke-width="2" stroke-linecap="round" stroke-linejoin="round"/>
<path d="M20.9454 43.6082H48.1637M70.2966 16.1875V36.176" stroke="white" stroke-width="2" stroke-linecap="round" stroke-linejoin="round"/>
<path d="M61.2243 56.4481C66.235 56.4481 70.2971 52.386 70.2971 47.3753C70.2971 42.3645 66.235 38.3025 61.2243 38.3025C56.2135 38.3025 52.1515 42.3645 52.1515 47.3753C52.1515 52.386 56.2135 56.4481 61.2243 56.4481Z" stroke="white" stroke-width="2"/>
<path d="M62.6392 41.8269C61.5045 41.616 60.3452 41.7014 59.2706 42.0541M57.4538 42.9695C57.1981 43.1509 56.9535 43.3511 56.7225 43.5694" stroke="white" stroke-width="2" stroke-linecap="round"/>
<path d="M61.0205 37.5317V35.671" stroke="white" stroke-width="2" stroke-linecap="round"/>
<path d="M59.7269 35.2634H62.7217" stroke="white" stroke-width="2" stroke-linecap="round"/>
<path d="M61.2243 47.375L65.6453 42.954" stroke="white" stroke-width="2" stroke-linecap="round" stroke-linejoin="round"/>
</svg>
