<svg width="76" height="76" viewBox="0 0 76 76" fill="none" xmlns="http://www.w3.org/2000/svg">
<path d="M64.125 51.7434L58.5833 47.8959V30.2576H56.6912C56.2047 30.2569 55.7363 30.4428 55.3828 30.7771C55.0293 31.1115 54.8176 31.5687 54.7912 32.0547V29.9172V28.8563V26.9563H52.8991C52.6504 26.9532 52.4035 26.9993 52.1726 27.0921C51.9418 27.1849 51.7316 27.3225 51.5543 27.4969C51.3768 27.6714 51.2358 27.8792 51.1392 28.1084C51.0425 28.3376 50.9923 28.5838 50.9912 28.8326V26.6159V24.7159H49.1308C48.8821 24.7117 48.6349 24.7568 48.4037 24.8486C48.1724 24.9404 47.9617 25.0771 47.7835 25.2508C47.6054 25.4245 47.4635 25.6318 47.3659 25.8607C47.2683 26.0895 47.217 26.3354 47.215 26.5842V27.5184H45.315C45.0665 27.5163 44.82 27.5631 44.5896 27.6563C44.3594 27.7495 44.1496 27.8871 43.9724 28.0613C43.7952 28.2356 43.6541 28.443 43.5571 28.6718C43.4601 28.9005 43.4091 29.1462 43.4071 29.3947L43.3358 37.4934C43.3379 36.9943 43.1428 36.5146 42.7928 36.1587C42.4429 35.8028 41.9665 35.5997 41.4675 35.5934H39.5754V37.4934V38.5226L39.52 44.5551V45.3467C39.5064 46.474 39.7152 47.5929 40.1345 48.6393C40.5539 49.6857 41.1755 50.6392 41.9638 51.4451C42.752 52.2511 43.6916 52.8936 44.7284 53.336C45.7654 53.7785 46.8793 54.012 48.0066 54.0234L56.9129 60.0559" stroke="#E0EBF5" stroke-width="2" stroke-miterlimit="10"/>
<path d="M43.3438 37.5091L43.2725 45.9008" stroke="#E0EBF5" stroke-width="2" stroke-linecap="round" stroke-linejoin="round"/>
<path d="M47.215 27.5025L47.1279 38.4988" stroke="#E0EBF5" stroke-width="2" stroke-linecap="round" stroke-linejoin="round"/>
<path d="M50.9913 28.5634L50.9122 38.5305" stroke="#E0EBF5" stroke-width="2" stroke-linecap="round" stroke-linejoin="round"/>
<path d="M54.7517 32.0388L54.6884 40.1375" stroke="#E0EBF5" stroke-width="2" stroke-linecap="round" stroke-linejoin="round"/>
<path d="M15.7383 58.1005L25.1512 52.4796C26.2785 52.4901 27.3968 52.2781 28.442 51.8559C29.4873 51.4336 30.4389 50.8094 31.2426 50.0189C32.0464 49.2284 32.6863 48.2872 33.1259 47.2492C33.5654 46.2111 33.7959 45.0965 33.8042 43.9692L33.8912 33.6776V31.1046C33.8997 30.6041 33.7096 30.1207 33.3623 29.7602C33.0152 29.3995 32.5392 29.1913 32.0387 29.1809H30.1387V28.2467C30.1409 27.7455 29.9449 27.2638 29.5934 26.9064C29.242 26.5491 28.7637 26.3451 28.2625 26.3388H26.3625V25.6817C26.3547 25.1983 26.1613 24.7364 25.8223 24.3915C25.4834 24.0468 25.0249 23.8454 24.5417 23.8292H22.6496V25.7213V28.033C22.6332 27.5457 22.4285 27.0837 22.0787 26.7441C21.7288 26.4046 21.2609 26.2139 20.7733 26.2121H18.8812V28.0726V29.1176V34.4851C18.8128 34.4775 18.7438 34.4775 18.6754 34.4851H16.7754V36.3771V37.4221L16.5617 43.4309V44.2226C16.5575 44.593 16.5788 44.9633 16.625 45.3309H16.5458L10.2125 48.9013" stroke="#E0EBF5" stroke-width="2" stroke-miterlimit="10"/>
<path d="M30.1229 28.9907L30.0833 37.422" stroke="#E0EBF5" stroke-width="2" stroke-linecap="round" stroke-linejoin="round"/>
<path d="M26.3547 26.2359L26.2676 36.868" stroke="#E0EBF5" stroke-width="2" stroke-linecap="round" stroke-linejoin="round"/>
<path d="M22.5546 28.0172L22.4754 37.3667" stroke="#E0EBF5" stroke-width="2" stroke-linecap="round" stroke-linejoin="round"/>
<path d="M16.625 45.3229C16.7695 46.5363 17.1712 47.7048 17.8032 48.7506C18.4353 49.7963 19.2833 50.6952 20.2904 51.3871" stroke="#E0EBF5" stroke-width="2" stroke-linecap="round" stroke-linejoin="round"/>
<path d="M18.7387 34.4692C19.2005 34.5254 19.6256 34.7491 19.9335 35.0978C20.2414 35.4466 20.4107 35.8961 20.4092 36.3613V38.1742V42.465C21.5962 42.4755 22.7306 42.9566 23.5632 43.8026C24.3959 44.6486 24.8589 45.7905 24.8504 46.9775" stroke="#E0EBF5" stroke-width="2" stroke-linecap="round" stroke-linejoin="round"/>
<path d="M8.52624 42.0215C8.0761 41.5631 7.72059 41.0205 7.48013 40.4246C7.23966 39.8288 7.11893 39.1914 7.12481 38.5489C7.13069 37.9064 7.26307 37.2713 7.5144 36.6799C7.76574 36.0886 8.13112 35.5525 8.58957 35.1024" stroke="#E0EBF5" stroke-width="2" stroke-linecap="round" stroke-linejoin="round"/>
<path d="M11.0833 40.4937C10.5346 39.9444 10.2264 39.1999 10.2264 38.4235C10.2264 37.6472 10.5346 36.9025 11.0833 36.3533" stroke="#E0EBF5" stroke-width="2" stroke-linecap="round" stroke-linejoin="round"/>
<path d="M67.4737 38.2217C67.924 38.6801 68.2794 39.2228 68.5199 39.8186C68.7603 40.4145 68.8811 41.0519 68.8752 41.6944C68.8694 42.3369 68.7369 42.972 68.4856 43.5634C68.2343 44.1547 67.8689 44.6907 67.4104 45.1408" stroke="#E0EBF5" stroke-width="2" stroke-linecap="round" stroke-linejoin="round"/>
<path d="M64.9167 39.7575C65.1881 40.0287 65.4035 40.3509 65.5504 40.7054C65.6973 41.06 65.773 41.44 65.773 41.8238C65.773 42.2075 65.6973 42.5875 65.5504 42.9421C65.4035 43.2966 65.1881 43.6187 64.9167 43.89" stroke="#E0EBF5" stroke-width="2" stroke-linecap="round" stroke-linejoin="round"/>
<path d="M37.5962 16.625L37.5566 22.0558" stroke="#E0EBF5" stroke-width="2" stroke-linecap="round" stroke-linejoin="round"/>
<path d="M28.3654 19.6807L31.8092 23.1878" stroke="#E0EBF5" stroke-width="2" stroke-linecap="round" stroke-linejoin="round"/>
<path d="M47.0567 19.8154L43.5417 23.2592" stroke="#E0EBF5" stroke-width="2" stroke-linecap="round" stroke-linejoin="round"/>
<path d="M64.125 51.7512L58.5833 47.8958V30.2574H56.6833C56.1968 30.2567 55.7284 30.4427 55.3749 30.7771C55.0214 31.1114 54.8097 31.5687 54.7833 32.0545V29.917V28.8562V26.9562H52.8833C52.6346 26.9531 52.3876 26.9993 52.1568 27.0921C51.9259 27.1848 51.7158 27.3224 51.5384 27.4968C51.361 27.6712 51.2199 27.8791 51.1234 28.1083C51.0267 28.3376 50.9764 28.5837 50.9754 28.8324V26.6158V24.7158H49.1229C48.8748 24.7127 48.6285 24.7585 48.3982 24.8508C48.1679 24.9431 47.958 25.08 47.7808 25.2536C47.6035 25.4272 47.4623 25.6341 47.3652 25.8624C47.2681 26.0908 47.217 26.336 47.215 26.5841V27.5183H45.3229C44.8209 27.5161 44.3384 27.7118 43.9797 28.0631C43.6211 28.4143 43.4154 28.8927 43.4071 29.3945L43.3358 37.4933C43.3338 36.9941 43.1362 36.5156 42.7854 36.1604C42.4347 35.8051 41.9587 35.6016 41.4596 35.5933H39.5675V37.4933V38.5225L39.52 44.555V45.3466C39.5064 46.4732 39.715 47.5915 40.1338 48.6374C40.5526 49.6834 41.1735 50.6365 41.961 51.4423C42.7485 52.2481 43.687 52.8908 44.723 53.3337C45.7589 53.7765 46.8721 54.0109 47.9987 54.0233L56.9129 60.0558" stroke="#E0EBF5" stroke-width="2" stroke-linecap="round" stroke-linejoin="round"/>
<path d="M15.7383 58.0846L25.1592 52.4717C26.2864 52.4822 27.4047 52.2702 28.4499 51.848C29.4951 51.4257 30.4469 50.8015 31.2506 50.011C32.0543 49.2205 32.6943 48.2793 33.1338 47.2413C33.5733 46.2031 33.8038 45.0886 33.8121 43.9613L33.8992 33.6696V31.0967C33.9035 30.5969 33.7105 30.1155 33.3623 29.7568C33.0141 29.3982 32.5385 29.1913 32.0388 29.1809H30.1467V28.2388C30.1498 27.9901 30.1036 27.7431 30.0108 27.5123C29.918 27.2814 29.7805 27.0713 29.606 26.8939C29.4316 26.7165 29.2238 26.5754 28.9946 26.4789C28.7653 26.3822 28.5192 26.3319 28.2704 26.3309H26.3783V25.6738C26.3703 25.1885 26.1744 24.7252 25.8319 24.3812C25.4894 24.0373 25.027 23.8394 24.5417 23.8292H22.6496V25.7213V26.7663V28.033C22.6352 27.5464 22.4323 27.0845 22.0836 26.7447C21.7351 26.4049 21.2681 26.214 20.7813 26.2121H18.8892V28.1042V29.1492L18.8417 34.5167C18.7733 34.5086 18.7042 34.5086 18.6358 34.5167H16.7438V36.4088V37.4538L16.5696 43.4309V44.2226C16.5629 44.5928 16.5814 44.9632 16.625 45.3309H16.5617L10.1808 48.9013" stroke="#E0EBF5" stroke-width="2" stroke-linecap="round" stroke-linejoin="round"/>
</svg>
