<svg width="54" height="53" viewBox="0 0 54 53" fill="none" xmlns="http://www.w3.org/2000/svg">
<path d="M35.8145 10.5614C35.4752 10.2383 35.0733 9.98703 34.6331 9.82284C34.1928 9.65865 33.7235 9.585 33.2537 9.60632C31.6615 9.60632 30.6817 10.2191 30.6817 11.2626C30.6817 12.4275 31.873 13.1396 33.2537 13.1396" stroke="#E0EBF5" stroke-width="2" stroke-linecap="round" stroke-linejoin="round"/>
<path d="M33.2537 8.33099V17.8986" stroke="#E0EBF5" stroke-width="2" stroke-linecap="round" stroke-linejoin="round"/>
<path d="M30.6817 15.6626C31.0215 15.9882 31.4251 16.2409 31.8676 16.4052C32.3101 16.5695 32.7819 16.6419 33.2537 16.6177C34.8458 16.6177 35.8145 16.0104 35.8145 14.9946C35.8145 13.8297 34.6231 13.112 33.2425 13.112" stroke="#E0EBF5" stroke-width="2" stroke-linecap="round" stroke-linejoin="round"/>
<path d="M17.5547 4.96875V14.4425C17.5532 14.5571 17.529 14.6702 17.4835 14.7755C17.4379 14.8807 17.3719 14.9761 17.2892 15.0561C17.2065 15.1361 17.1087 15.1991 17.0014 15.2416C16.8941 15.2841 16.7795 15.3052 16.664 15.3037H6.86603" stroke="#E0EBF5" stroke-width="2" stroke-linecap="round" stroke-linejoin="round"/>
<path d="M40.7135 48.0313H7.75675C7.64123 48.0328 7.52655 48.0117 7.41928 47.9692C7.312 47.9267 7.21419 47.8636 7.13152 47.7836C7.04879 47.7037 6.98277 47.6084 6.93723 47.5031C6.89164 47.3978 6.86748 47.2846 6.86603 47.1701V15.3038L17.5547 4.96882H39.8227C39.9382 4.96736 40.0529 4.98848 40.1602 5.03097C40.2675 5.07347 40.3652 5.13651 40.448 5.21648C40.5307 5.29645 40.5967 5.39181 40.6423 5.49709C40.6878 5.60238 40.712 5.7155 40.7135 5.83005V18.7709" stroke="#E0EBF5" stroke-width="2" stroke-linecap="round" stroke-linejoin="round"/>
<path d="M47.0152 44.5863H32.6245C32.4099 44.5878 32.2034 44.5051 32.0501 44.3561C31.8968 44.2072 31.8091 44.0042 31.8062 43.7913V22.9888C31.8069 22.883 31.8286 22.7783 31.8702 22.6808C31.9116 22.5833 31.9722 22.4948 32.0482 22.4205C32.1241 22.3462 32.2142 22.2874 32.313 22.2476C32.412 22.2077 32.5178 22.1876 32.6245 22.1883H47.0152C47.1219 22.1876 47.2278 22.2077 47.3267 22.2476C47.4256 22.2874 47.5156 22.3462 47.5916 22.4205C47.6676 22.4948 47.7281 22.5833 47.7696 22.6808C47.8111 22.7783 47.8329 22.883 47.8336 22.9888V43.7913C47.8329 43.8969 47.8111 44.0013 47.7695 44.0986C47.7279 44.1958 47.6673 44.2838 47.5912 44.3578C47.5152 44.4316 47.4251 44.4899 47.3263 44.5291C47.2274 44.5683 47.1217 44.5878 47.0152 44.5863Z" stroke="#E0EBF5" stroke-width="2" stroke-linecap="round" stroke-linejoin="round"/>
<path d="M31.8062 29.0839H47.8336" stroke="#E0EBF5" stroke-width="2" stroke-linecap="round" stroke-linejoin="round"/>
<path d="M31.8062 39.4188H47.8336" stroke="#E0EBF5" stroke-width="2" stroke-linecap="round" stroke-linejoin="round"/>
<path d="M31.8062 34.2292H47.8336" stroke="#E0EBF5" stroke-width="2" stroke-linecap="round" stroke-linejoin="round"/>
<path d="M42.4949 29.0839V44.5864" stroke="#E0EBF5" stroke-width="2" stroke-linecap="round" stroke-linejoin="round"/>
<path d="M37.1506 29.0839V44.5864" stroke="#E0EBF5" stroke-width="2" stroke-linecap="round" stroke-linejoin="round"/>
<path d="M13.9918 26.5001V29.0839" stroke="#E0EBF5" stroke-width="2" stroke-linecap="round" stroke-linejoin="round"/>
<path d="M24.6804 18.7708V29.0837" stroke="#E0EBF5" stroke-width="2" stroke-linecap="round" stroke-linejoin="round"/>
<path d="M21.1175 23.0552V29.0839" stroke="#E0EBF5" stroke-width="2" stroke-linecap="round" stroke-linejoin="round"/>
<path d="M28.2378 20.4713V29.0838" stroke="#E0EBF5" stroke-width="2" stroke-linecap="round" stroke-linejoin="round"/>
<path d="M17.5547 22.1937V29.0837" stroke="#E0EBF5" stroke-width="2" stroke-linecap="round" stroke-linejoin="round"/>
<path d="M13.9918 34.2292H28.2377" stroke="#E0EBF5" stroke-width="2" stroke-linecap="round" stroke-linejoin="round"/>
<path d="M13.9918 37.6964H28.2377" stroke="#E0EBF5" stroke-width="2" stroke-linecap="round" stroke-linejoin="round"/>
<path d="M13.9918 41.1412H28.2377" stroke="#E0EBF5" stroke-width="2" stroke-linecap="round" stroke-linejoin="round"/>
</svg>
