<svg width="50" height="50" viewBox="0 0 50 50" fill="none" xmlns="http://www.w3.org/2000/svg">
<path d="M31.1948 27.0281C30.0897 27.0281 29.0299 27.4671 28.2485 28.2485C27.4671 29.0299 27.0281 30.0897 27.0281 31.1948V40.1041C27.0281 41.2092 27.4671 42.269 28.2485 43.0504C29.0299 43.8318 30.0897 44.2708 31.1948 44.2708H40.1042C41.2092 44.2708 42.269 43.8318 43.0504 43.0504C43.8318 42.269 44.2708 41.2092 44.2708 40.1041V31.1948C44.2708 30.0897 43.8318 29.0299 43.0504 28.2485C42.269 27.4671 41.2092 27.0281 40.1042 27.0281H31.1948ZM9.89582 5.72913C8.79075 5.72913 7.73095 6.16811 6.94954 6.94951C6.16814 7.73092 5.72916 8.79072 5.72916 9.89579V18.8052C5.72916 19.9102 6.16814 20.97 6.94954 21.7514C7.73095 22.5328 8.79075 22.9718 9.89582 22.9718H18.8052C19.9103 22.9718 20.9701 22.5328 21.7515 21.7514C22.5329 20.97 22.9719 19.9102 22.9719 18.8052V9.89579C22.9719 8.79072 22.5329 7.73092 21.7515 6.94951C20.9701 6.16811 19.9103 5.72913 18.8052 5.72913H9.89582Z" stroke="#43ADFF" stroke-width="2" stroke-linecap="round" stroke-linejoin="round"/>
<path d="M40.1042 5.72913H31.1948C28.8936 5.72913 27.0281 7.59461 27.0281 9.89579V18.8052C27.0281 21.1064 28.8936 22.9718 31.1948 22.9718H40.1042C42.4054 22.9718 44.2708 21.1064 44.2708 18.8052V9.89579C44.2708 7.59461 42.4054 5.72913 40.1042 5.72913Z" stroke="#43ADFF" stroke-width="2" stroke-linecap="round" stroke-linejoin="round"/>
<path d="M18.8052 27.0281H9.89582C7.59464 27.0281 5.72916 28.8936 5.72916 31.1947V40.1041C5.72916 42.4053 7.59464 44.2708 9.89582 44.2708H18.8052C21.1064 44.2708 22.9719 42.4053 22.9719 40.1041V31.1947C22.9719 28.8936 21.1064 27.0281 18.8052 27.0281Z" stroke="#43ADFF" stroke-width="2" stroke-linecap="round" stroke-linejoin="round"/>
<path d="M14.35 8.77185V19.9291M8.77188 14.35H19.9292M30.0708 32.6073H41.2281M30.0708 38.6927H41.2281" stroke="#43ADFF" stroke-width="2" stroke-linecap="round" stroke-linejoin="round"/>
</svg>
