<svg width="50" height="50" viewBox="0 0 50 50" fill="none" xmlns="http://www.w3.org/2000/svg">
<path d="M17.6813 43.75H32.3188C33.6316 43.75 34.9259 43.4397 36.0961 42.8446C37.2663 42.2495 38.2793 41.3863 39.0526 40.3254C39.826 39.2646 40.3377 38.036 40.5461 36.7398C40.7546 35.4436 40.6538 34.1165 40.2521 32.8667L36.6979 21.8125C36.0231 19.7129 34.6993 17.8817 32.9172 16.5826C31.1351 15.2834 28.9866 14.5834 26.7813 14.5833H23.2188C21.0134 14.5834 18.865 15.2834 17.0829 16.5826C15.3008 17.8817 13.977 19.7129 13.3021 21.8125L9.74794 32.8667C9.34622 34.1165 9.24547 35.4436 9.45392 36.7398C9.66236 38.036 10.1741 39.2646 10.9474 40.3254C11.7208 41.3863 12.7338 42.2495 13.904 42.8446C15.0742 43.4397 16.3684 43.75 17.6813 43.75ZM31.25 6.25C29.8611 11.8056 27.7778 14.5833 25 14.5833C22.2222 14.5833 20.1389 11.8056 18.75 6.25H31.25Z" stroke="#43ADFF" stroke-width="4.16667" stroke-linecap="round" stroke-linejoin="round"/>
<path d="M29.1667 22.9167H23.9584C23.1296 22.9167 22.3347 23.2459 21.7487 23.832C21.1626 24.418 20.8334 25.2129 20.8334 26.0417C20.8334 26.8705 21.1626 27.6654 21.7487 28.2514C22.3347 28.8375 23.1296 29.1667 23.9584 29.1667H26.0417C26.8705 29.1667 27.6654 29.4959 28.2514 30.082C28.8375 30.668 29.1667 31.4629 29.1667 32.2917C29.1667 33.1205 28.8375 33.9154 28.2514 34.5014C27.6654 35.0875 26.8705 35.4167 26.0417 35.4167H20.8334M25 20.8334V22.9167M25 35.4167V37.5" stroke="#43ADFF" stroke-width="4.16667" stroke-linecap="round" stroke-linejoin="round"/>
</svg>
