<svg width="50" height="50" viewBox="0 0 50 50" fill="none" xmlns="http://www.w3.org/2000/svg">
<path d="M20.8333 24.2229L10.5729 36.2958C10.2478 36.6789 9.84666 36.9903 9.39496 37.2104C8.94325 37.4305 8.45079 37.5545 7.94872 37.5744C7.44664 37.5944 6.94589 37.51 6.47813 37.3265C6.01037 37.1429 5.58579 36.8643 5.23124 36.5083C4.87529 36.1523 4.5969 35.7266 4.41361 35.2577C4.23032 34.7889 4.1461 34.2872 4.16625 33.7842C4.18641 33.2812 4.31051 32.7879 4.53073 32.3352C4.75095 31.8826 5.06253 31.4804 5.44583 31.1541L17.4896 20.8729M37.5 20.9729L27.1833 31.3124M20.7333 4.1687L10.4167 14.5104M41.6667 24.2895L45.8333 20.8729M41.6667 31.1229L45.8333 33.4M22.9208 45.8312H43.75M25.4729 45.8312C26.6208 43.7729 27.4792 39.8354 31.5458 39.6166C32.7542 39.55 33.9833 39.55 35.1917 39.6166C39.2562 39.8354 40.1187 43.7729 41.2687 45.8312M19.4437 5.46245L11.7083 13.2166C11.7083 13.2166 15.5771 18.3875 19.4458 22.2645C23.3167 26.1416 28.475 30.0208 28.475 30.0208L36.2125 22.2645C36.2125 22.2645 32.3437 17.0958 28.475 13.2166C24.6062 9.34162 19.4437 5.46245 19.4437 5.46245Z" stroke="#43ADFF" stroke-width="3.125" stroke-linecap="round" stroke-linejoin="round"/>
</svg>
