<svg width="181" height="75" viewBox="0 0 181 75" fill="none" xmlns="http://www.w3.org/2000/svg">
<g clip-path="url(#clip0_109_249)">
<path d="M6.6058 74.7422H8.29789V70.1715H13.7716V68.5421H8.29789V65.1575H14.4159V63.5161H6.6058V74.7422Z" fill="white"/>
<path d="M34.4983 63.5161H32.8062V74.7362H34.4983V63.5161Z" fill="white"/>
<path d="M61.6681 71.5076L55.4116 63.5164H54.8034L54.5987 63.2588V63.5164H54.1109V74.7424H55.803V66.7512L62.0596 74.7424H62.6738L62.8725 75V74.7424H63.3602V63.5164H61.6681V71.5076Z" fill="white"/>
<path d="M117.682 71.5076L111.425 63.5164H110.811L110.612 63.2588V63.5164H110.125V74.7424H111.817V66.7512L118.073 74.7424H118.682L118.886 75V74.7424H119.374V63.5164H117.682V71.5076Z" fill="white"/>
<path d="M141.672 65.6311C142.293 65.2776 143.003 65.0979 143.78 65.0979C144.912 65.0979 145.821 65.4394 146.544 66.1343L146.977 66.5536L148.097 65.3855L147.694 64.9721C147.2 64.4749 146.604 64.0915 145.918 63.8339C145.249 63.5823 144.521 63.4565 143.762 63.4565C142.684 63.4565 141.69 63.7022 140.811 64.1934C139.926 64.6846 139.222 65.3735 138.722 66.2361C138.222 67.0987 137.963 68.0692 137.963 69.1295C137.963 70.1898 138.216 71.1602 138.722 72.0228C139.228 72.8855 139.926 73.5744 140.811 74.0656C141.69 74.5508 142.684 74.8024 143.762 74.8024C144.533 74.8024 145.261 74.6706 145.93 74.419C146.61 74.1554 147.2 73.772 147.694 73.2748L148.097 72.8615L146.977 71.6934L146.544 72.1127C145.809 72.8196 144.906 73.161 143.78 73.161C143.009 73.161 142.299 72.9813 141.672 72.6279C141.046 72.2804 140.552 71.7892 140.197 71.1782C139.842 70.5672 139.661 69.8783 139.661 69.1295C139.661 68.3687 139.836 67.7037 140.197 67.0807C140.552 66.4697 141.046 65.9845 141.672 65.6311Z" fill="white"/>
<path d="M168.077 73.0948V69.8719H173.545V68.2306H168.077V65.1575H174.195V63.5161H166.379V74.7422H174.394V73.0948H168.077Z" fill="white"/>
<path d="M86.8689 63.5163L86.7425 63.2407L86.616 63.5163H86.1102L80.8894 74.7423H82.7501L86.7425 66.1101L88.6272 70.1896H88.6212L90.7168 74.7423H92.5775L87.3567 63.5163H86.8689Z" fill="white"/>
<path d="M13.874 44.1255L20.9916 26.4238H27.754L16.5175 54.2313H11.2365L0 26.4238H6.75634L13.874 44.1255Z" fill="white"/>
<path d="M80.0162 32.2345C79.4141 32.7137 79.119 33.3487 79.119 34.1394C79.119 34.9302 79.4863 35.5592 80.221 36.0264C80.9556 36.4937 82.6477 37.0448 85.2973 37.6798C87.9468 38.3148 90.0062 39.2672 91.4755 40.5372C92.9388 41.8072 93.6734 43.6642 93.6734 46.0963C93.6734 48.5344 92.7341 50.5113 90.8553 52.0268C88.9765 53.5424 86.5016 54.3032 83.4366 54.3032C79.0106 54.3032 75.0243 52.7097 71.4775 49.5228L75.1989 45.0899C78.2097 47.6538 80.9978 48.9418 83.557 48.9418C84.7011 48.9418 85.6044 48.7021 86.2547 48.2229C86.9051 47.7437 87.2363 47.0967 87.2363 46.276C87.2363 45.4613 86.887 44.8144 86.1945 44.3351C85.502 43.8559 84.1291 43.3707 82.0757 42.8795C78.824 42.1247 76.4454 41.1482 74.94 39.9442C73.4345 38.7401 72.6818 36.8471 72.6818 34.2652C72.6818 31.6834 73.6333 29.6946 75.5421 28.2988C77.445 26.897 79.8296 26.2021 82.6778 26.2021C84.5446 26.2021 86.4113 26.5136 88.278 27.1367C90.1447 27.7597 91.7706 28.6402 93.1556 29.7784L89.9942 34.2113C87.5674 32.4202 85.0624 31.5276 82.4731 31.5276C81.4313 31.5156 80.6124 31.7553 80.0162 32.2345Z" fill="white"/>
<path d="M112.172 46.9707C113.214 48.2287 114.611 48.8577 116.369 48.8577C118.128 48.8577 119.519 48.2287 120.548 46.9707C121.572 45.7128 122.09 43.9995 122.09 41.819V26.813H128.328V42.0167C128.328 45.9584 127.208 48.9835 124.968 51.0981C122.728 53.2128 119.862 54.2671 116.369 54.2671C112.877 54.2671 110.004 53.2068 107.752 51.0802C105.5 48.9536 104.374 45.9344 104.374 42.0227V26.813H110.612V41.825C110.612 43.9995 111.13 45.7187 112.172 46.9707Z" fill="white"/>
<path d="M140.588 26.4238H146.827V37.8416L157.383 26.4238H165.103L153.987 38.7162C154.944 40.04 156.721 42.5141 159.304 46.1323C161.887 49.7505 163.82 52.4522 165.103 54.2253H157.823L149.621 43.2509L146.821 46.3539V54.2313H140.582V26.4238H140.588Z" fill="white"/>
<path d="M181 26.4238H174.762V54.2313H181V26.4238Z" fill="white"/>
<path d="M35.4678 38.5904C35.0041 38.159 34.5525 37.7217 34.1129 37.2725L27.6335 54.1175L28.6934 54.2313L35.4919 38.6083V38.6023H35.4798C35.4738 38.5963 35.4738 38.5904 35.4678 38.5904Z" fill="white"/>
<path d="M68.9604 53.9916L52.9246 11.7532L52.6296 10.9744C55.5802 9.88419 58.4465 8.94968 60.8853 8.19489L61.0238 8.71605L61.5838 10.8187L66.6782 6.37979C66.6782 6.37979 60.3735 5.57708 60.1687 5.49321L60.6625 7.35623L60.8131 7.91933C58.1695 8.57229 55.2731 9.32109 52.3405 10.2077L52.0455 9.42891L48.4626 0L43.8018 12.1126L43.2839 13.4545C38.1173 15.7129 33.6492 18.5823 31.3489 22.3083C28.8379 26.891 30.7528 31.4078 34.7753 35.5591C35.245 36.0443 35.7448 36.5296 36.2686 37.0028C41.8026 42.0168 50.1366 46.4317 56.917 49.6845C57.7962 50.1038 58.6453 50.5052 59.4582 50.8886C59.4582 50.8946 59.4582 50.9066 59.4642 50.9125C62.1619 52.2963 64.0889 53.153 65.4678 53.6741C65.5762 53.728 65.6846 53.776 65.787 53.8239C65.787 53.8239 65.793 53.8059 65.793 53.7879C69.1712 54.998 68.9604 53.9916 68.9604 53.9916ZM37.7078 34.1574C37.0756 33.6122 36.4914 33.0611 35.9555 32.498C34.5163 30.9884 33.4445 29.401 32.8905 27.7536C31.6982 22.9373 36.2988 18.78 42.5312 15.4193L41.8748 17.1326L39.5324 23.2248L36.5878 30.8806C37.1839 31.4856 37.8403 32.0547 38.5147 32.5819L43.2237 23.2488L47.7279 14.3231L60.3313 46.1741C59.7713 45.9465 59.1932 45.7189 58.6091 45.4792C51.4975 42.5799 43.037 38.74 37.7078 34.1574Z" fill="white"/>
</g>
<defs>
<clipPath id="clip0_109_249">
<rect width="181" height="75" fill="white"/>
</clipPath>
</defs>
</svg>
