<svg width="63" height="88" viewBox="0 0 63 88" fill="none" xmlns="http://www.w3.org/2000/svg">
<path d="M62.2082 86.6238L36.4804 18.8568L36.007 17.6073C40.741 15.8581 45.3397 14.3588 49.2525 13.1478L49.4747 13.984L50.3732 17.3574L58.5466 10.2357C58.5466 10.2357 48.4313 8.94783 48.1028 8.81328L48.8951 11.8023L49.1366 12.7057C44.8953 13.7533 40.2483 14.9547 35.5432 16.3771L35.0698 15.1277L29.3214 0L21.8436 19.4334L21.0127 21.5863C12.7234 25.2096 5.55477 29.8133 1.86418 35.7913C-2.16455 43.1437 0.907717 50.3904 7.36142 57.0508C8.115 57.8293 8.91688 58.6078 9.75741 59.3671C18.6361 67.4115 32.0072 74.4948 42.8858 79.7136C44.2963 80.3863 45.6585 81.0303 46.9628 81.6454C46.9628 81.655 46.9628 81.6742 46.9725 81.6838C51.3007 83.9039 54.3923 85.2783 56.6047 86.1145C56.7786 86.201 56.9525 86.2779 57.1168 86.3547C57.1168 86.3547 57.1264 86.3259 57.1264 86.2971C62.5464 88.2385 62.2082 86.6238 62.2082 86.6238ZM12.0664 54.8019C11.052 53.9273 10.1149 53.0431 9.25502 52.1396C6.94599 49.7177 5.22629 47.1707 4.33745 44.5277C2.42453 36.8005 9.80571 30.1305 19.8051 24.7387L18.752 27.4874L14.9938 37.2618L10.2695 49.5447C11.2259 50.5154 12.279 51.4284 13.361 52.2742L20.9161 37.3003L28.1427 22.9799L48.3637 74.0815C47.4652 73.7163 46.5377 73.3511 45.6006 72.9666C34.1907 68.3149 20.6166 62.1543 12.0664 54.8019Z" fill="#50A6AA"/>
</svg>
