<svg width="164" height="68" viewBox="0 0 164 68" fill="none" xmlns="http://www.w3.org/2000/svg">
<g clip-path="url(#clip0_109_19)">
<path d="M5.98536 67.7665H7.51853V63.6224H12.4781V62.145H7.51853V59.0764H13.0619V57.5882H5.98536V67.7665Z" fill="white"/>
<path d="M31.2581 57.5882H29.7249V67.761H31.2581V57.5882Z" fill="white"/>
<path d="M55.8761 64.8335L50.2072 57.5882H49.6561L49.4706 57.3546V57.5882H49.0287V67.7664H50.5619V60.5211L56.2308 67.7664H56.7873L56.9673 68V67.7664H57.4093V57.5882H55.8761V64.8335Z" fill="white"/>
<path d="M106.629 64.8335L100.96 57.5882H100.403L100.223 57.3546V57.5882H99.7815V67.7664H101.315V60.5211L106.984 67.7664H107.535L107.72 68V67.7664H108.162V57.5882H106.629V64.8335Z" fill="white"/>
<path d="M128.366 59.5054C128.928 59.185 129.572 59.022 130.276 59.022C131.301 59.022 132.125 59.3316 132.78 59.9617L133.173 60.3419L134.188 59.2827L133.822 58.908C133.375 58.4572 132.835 58.1096 132.213 57.876C131.607 57.6479 130.947 57.5339 130.259 57.5339C129.283 57.5339 128.382 57.7566 127.586 58.2019C126.784 58.6473 126.145 59.2719 125.693 60.054C125.24 60.8361 125.005 61.716 125.005 62.6773C125.005 63.6387 125.234 64.5185 125.693 65.3006C126.151 66.0828 126.784 66.7073 127.586 67.1527C128.382 67.5927 129.283 67.8208 130.259 67.8208C130.958 67.8208 131.618 67.7013 132.224 67.4732C132.84 67.2342 133.375 66.8866 133.822 66.4358L134.188 66.061L133.173 65.0019L132.78 65.3821C132.114 66.023 131.296 66.3326 130.276 66.3326C129.577 66.3326 128.934 66.1696 128.366 65.8492C127.799 65.5342 127.351 65.0888 127.029 64.5348C126.707 63.9808 126.544 63.3562 126.544 62.6773C126.544 61.9875 126.702 61.3847 127.029 60.8198C127.351 60.2658 127.799 59.8259 128.366 59.5054Z" fill="white"/>
<path d="M152.291 66.2728V63.3508H157.245V61.8626H152.291V59.0764H157.835V57.5882H150.753V67.7665H158.015V66.2728H152.291Z" fill="white"/>
<path d="M78.71 57.5882L78.5954 57.3383L78.4808 57.5882H78.0225L73.292 67.7665H74.978L78.5954 59.9399L80.3031 63.6387H80.2977L82.1964 67.7665H83.8824L79.1519 57.5882H78.71Z" fill="white"/>
<path d="M12.5709 40.007L19.02 23.9575H25.1473L14.9661 49.1697H10.1811L0 23.9575H6.12177L12.5709 40.007Z" fill="white"/>
<path d="M72.5009 29.2259C71.9553 29.6604 71.6879 30.2361 71.6879 30.953C71.6879 31.67 72.0208 32.2403 72.6864 32.6639C73.3521 33.0875 74.8852 33.5872 77.2859 34.1629C79.6866 34.7387 81.5526 35.6022 82.8839 36.7537C84.2097 37.9051 84.8754 39.5888 84.8754 41.7939C84.8754 44.0045 84.0242 45.7968 82.3219 47.1709C80.6196 48.545 78.3771 49.2348 75.6 49.2348C71.5897 49.2348 67.9778 47.7901 64.7641 44.9006L68.136 40.8815C70.8641 43.2061 73.3903 44.3738 75.7091 44.3738C76.7458 44.3738 77.5642 44.1565 78.1534 43.722C78.7427 43.2875 79.0428 42.701 79.0428 41.9569C79.0428 41.2182 78.7263 40.6316 78.0989 40.1971C77.4714 39.7626 76.2274 39.3227 74.3669 38.8773C71.4206 38.193 69.2654 37.3077 67.9014 36.216C66.5374 35.1243 65.8554 33.408 65.8554 31.0671C65.8554 28.7262 66.7174 26.923 68.447 25.6575C70.1711 24.3866 72.3318 23.7565 74.9125 23.7565C76.6039 23.7565 78.2953 24.039 79.9867 24.6038C81.6781 25.1687 83.1512 25.9671 84.4062 26.999L81.5417 31.0182C79.3429 29.3942 77.0731 28.585 74.727 28.585C73.7831 28.5741 73.0411 28.7914 72.5009 29.2259Z" fill="white"/>
<path d="M101.637 42.5869C102.58 43.7275 103.846 44.2978 105.439 44.2978C107.033 44.2978 108.293 43.7275 109.226 42.5869C110.154 41.4463 110.623 39.893 110.623 37.916V24.3105H116.275V38.0952C116.275 41.669 115.26 44.4118 113.231 46.3291C111.201 48.2463 108.604 49.2022 105.439 49.2022C102.275 49.2022 99.6724 48.2409 97.6318 46.3128C95.5912 44.3847 94.5709 41.6473 94.5709 38.1006V24.3105H100.223V37.9214C100.223 39.893 100.693 41.4518 101.637 42.5869Z" fill="white"/>
<path d="M127.384 23.9575H133.037V34.3096L142.601 23.9575H149.596L139.524 35.1026C140.391 36.3029 142.001 38.546 144.342 41.8265C146.682 45.107 148.434 47.5566 149.596 49.1642H142.999L135.568 39.2141L133.031 42.0275V49.1697H127.379V23.9575H127.384Z" fill="white"/>
<path d="M164 23.9575H158.347V49.1697H164V23.9575Z" fill="white"/>
<path d="M32.1365 34.9885C31.7164 34.5974 31.3072 34.201 30.9089 33.7936L25.0381 49.0665L25.9984 49.1696L32.1584 35.0048V34.9994H32.1474C32.142 34.9939 32.142 34.9885 32.1365 34.9885Z" fill="#50A6AA"/>
<path d="M62.4835 48.9524L47.9538 10.6562L47.6865 9.95016C50.36 8.96166 52.9571 8.11438 55.1668 7.43003L55.2923 7.90256L55.7997 9.80895L60.4156 5.78434C60.4156 5.78434 54.703 5.05655 54.5175 4.98051L54.9649 6.66965L55.1013 7.18019C52.7061 7.7722 50.0817 8.45112 47.4246 9.25495L47.1572 8.54888L43.9108 0L39.6878 10.9821L39.2186 12.1987C34.5372 14.2463 30.4888 16.8479 28.4046 20.2262C26.1294 24.3812 27.8644 28.4764 31.5091 32.2403C31.9347 32.6802 32.3875 33.1201 32.8622 33.5492C37.8764 38.0952 45.4276 42.0981 51.5712 45.0473C52.3678 45.4275 53.1371 45.7914 53.8737 46.139C53.8737 46.1444 53.8737 46.1553 53.8792 46.1607C56.3235 47.4153 58.0695 48.192 59.3189 48.6645C59.4171 48.7134 59.5153 48.7569 59.6081 48.8003C59.6081 48.8003 59.6136 48.784 59.6136 48.7677C62.6744 49.8649 62.4835 48.9524 62.4835 48.9524ZM34.1662 30.9693C33.5933 30.4751 33.0641 29.9754 32.5785 29.4649C31.2745 28.0962 30.3033 26.6569 29.8013 25.1633C28.721 20.7965 32.8895 17.0272 38.5366 13.9802L37.9418 15.5335L35.8194 21.0572L33.1514 27.9984C33.6915 28.547 34.2862 29.0629 34.8973 29.5409L39.164 21.0789L43.2452 12.9863L54.6649 41.8645C54.1574 41.6581 53.6336 41.4518 53.1044 41.2345C46.6607 38.6058 38.9949 35.1243 34.1662 30.9693Z" fill="#50A6AA"/>
</g>
<defs>
<clipPath id="clip0_109_19">
<rect width="164" height="68" fill="white"/>
</clipPath>
</defs>
</svg>
