<svg width="216" height="130" viewBox="0 0 216 130" fill="none" xmlns="http://www.w3.org/2000/svg">
<path fill-rule="evenodd" clip-rule="evenodd" d="M76.4073 92.6751H91.7664L91.7639 88.0607H87.5004C86.88 88.0038 86.3897 87.5102 86.3369 86.8894L85.0061 56.3871H90.4061V51.7586H82.4977C80.5846 51.7586 79.6139 52.8527 78.4876 55.3084C77.4757 57.5289 67.3893 79.4439 67.3893 79.4439C67.3893 79.4439 57.4494 57.7641 56.345 55.3149C55.2406 52.8656 54.0629 51.7714 52.1549 51.7714H44.3184V56.3974H49.7056C49.6497 57.6199 49.4602 61.8356 49.2389 66.759C48.8445 75.5324 48.3492 86.553 48.3286 86.8881C48.3224 87.5259 47.8091 88.0426 47.1714 88.053H43.754C43.0826 87.9888 42.5141 87.5306 42.3089 86.8881C42.1366 86.5281 30.3517 55.3149 30.3517 55.3149C29.8425 53.3238 28.1039 51.8909 26.0523 51.7714H17.3094V56.391H21.4777C21.4777 56.391 10.1454 86.3327 9.93586 86.8817C9.72045 87.5142 9.16177 87.9675 8.49843 88.0479H5.315V92.6649H19.1814V88.0479H14.7714L18.2724 78.5901H33.7833L37.2843 88.0479H33.0607V92.6636H58.2479V88.0466H53.1423L54.0667 61.6483L66.1524 87.5927H68.4989L80.5846 61.6431L81.5154 88.0466H76.4073V92.6751ZM93.9714 92.6751H109.809L109.815 88.0453H105.4C104.767 88.0375 104.257 87.5217 104.257 86.8881V77.91C105.628 77.9511 107.795 77.9949 109.773 77.9949C118.844 77.9949 124.719 72.7967 124.719 64.7713C124.719 57.1136 118.466 51.7714 109.529 51.7714H93.9714V56.3897H99.2159L99.2287 86.8804C99.2071 87.5118 98.7028 88.0201 98.0716 88.0466H93.9714V92.6751ZM109.889 73.3689C107.752 73.3689 105.599 73.3251 104.257 73.2801V56.3974H109.772C114.698 56.3974 119.682 59.001 119.682 64.833C119.682 70.0954 115.92 73.3689 109.889 73.3689ZM19.9619 74.0323H32.1067L26.0561 57.6369L19.9619 74.0323Z" fill="#1C2A5B"/>
<path d="M139.454 91.2184C138.136 94.0598 138.91 95.4767 142.769 94.659C150.814 92.9618 155.045 88.4426 160.061 83.697C160.283 83.4861 160.447 83.3241 160.6 83.1827C160.299 85.249 160.119 87.3311 160.061 89.4184C159.905 94.11 161.039 100.739 163.124 103.947C164.047 105.289 165.425 105.553 167.287 103.53C165.872 100.56 164.783 97.4441 164.04 94.2386C163.229 90.7162 163.193 87.0595 163.936 83.5221C163.036 83.2084 161.309 82.6491 161.169 82.6054L160.715 82.4601L159.558 82.0873C158.932 81.8906 158.325 81.7093 157.704 81.5383C150.628 89.196 145.072 91.1053 139.454 91.2184Z" fill="url(#paint0_linear_801_13167)"/>
<path d="M134.5 65.1866C139.535 68.856 145.406 71.213 151.58 72.0446C155.088 72.4779 158.641 71.7643 161.709 70.0106L161.741 69.9887C162.516 68.4938 162.681 66.7566 162.2 65.1429C161.699 67.3466 157.609 69.7354 151.868 68.9447C148.337 68.3798 144.977 67.0325 142.034 65.0014C140.312 63.9168 138.665 62.718 137.103 61.413C136.593 60.961 135.939 60.7049 135.258 60.6904C133.211 60.6904 131.773 63.2541 134.5 65.1904V65.1866Z" fill="url(#paint1_linear_801_13167)"/>
<path d="M147.001 37.4396C147.016 37.5167 147.083 37.8369 147.141 38.0824C147.467 39.3681 147.887 41.9241 149.018 45.5666C151.35 48.3951 153.814 51.3677 154.917 52.7177C163.109 62.7296 163.158 67.4597 161.731 69.9759C163.067 69.1544 164.131 67.9578 164.791 66.5353C166.178 63.0934 163.473 58.3067 160.079 53.8504C156.794 49.542 147.843 38.4964 146.99 37.4421L147.001 37.4396Z" fill="url(#paint2_linear_801_13167)"/>
<path d="M174.1 18.2631C173.943 20.0914 173.552 23.9396 173.236 27.7479C173.08 29.6597 172.945 31.461 172.891 32.802C172.869 33.4834 172.86 34.053 172.891 34.4503C172.894 34.6348 172.917 34.8185 172.959 34.998C173 35.2888 173.201 35.5315 173.48 35.6241C173.852 35.7093 174.233 35.5199 174.39 35.1716C174.486 34.9935 174.566 34.8072 174.628 34.6149C174.785 34.188 174.965 33.567 175.16 32.8149C175.558 31.3466 176.021 29.3614 176.483 27.3261C177.351 23.478 178.218 19.5051 178.445 18.5833C178.96 16.2304 177.845 15.0026 176.611 15.0026C175.469 15 174.224 16.062 174.1 18.2631Z" fill="url(#paint3_linear_801_13167)"/>
<path d="M128.507 51.9411C131.672 53.049 134.733 54.4357 137.652 56.085C140.943 58.0029 144.088 60.1606 147.062 62.5406C147.789 63.105 148.106 63.3223 148.495 62.9777C149.111 62.4171 147.965 61.0877 147.545 60.5348C145.854 58.3183 139.771 50.8496 131.058 47.9014C130.649 47.7682 130.222 47.6992 129.791 47.697C127.014 47.7008 125.757 50.8958 128.507 51.9411Z" fill="url(#paint4_linear_801_13167)"/>
<path d="M163.188 22.3286C162.861 23.4484 162.575 24.5066 162.319 25.5531C164.622 29.956 165.873 34.8333 165.971 39.8014C165.923 47.4386 162.608 62.052 157.838 62.0366C155.999 62.0366 153.558 57.0056 151.326 51.7881C149.457 47.3796 148.053 42.7878 147.138 38.0876C147.08 37.8304 147.068 37.7751 146.998 37.4447C146.998 37.4447 146.918 37.3354 146.841 37.2467C146.423 36.5361 145.572 36.2059 144.784 36.4491C143.996 36.6923 143.479 37.445 143.534 38.2676C143.455 40.4777 146.281 48.9763 147.969 53.0289C151.543 61.6316 154.468 66.0429 157.394 65.9053C161.198 65.7227 164.8 60.3587 166.99 53.7437C168.652 49.163 169.641 44.3653 169.925 39.5006C169.925 32.8534 167.58 27.4419 163.761 20.022C163.752 20.1519 163.454 21.4401 163.188 22.3286Z" fill="url(#paint5_linear_801_13167)"/>
<path d="M182.557 62.2384C178.835 62.8921 175.178 63.8744 171.629 65.1737C171.455 66.426 171.296 67.6873 171.159 68.9859C174.244 67.8207 177.387 66.8173 180.576 65.9799C189.18 64.1202 198.065 63.9668 206.729 65.5286C211.421 66.345 211.344 62.4711 208.068 61.8C204.189 61.0749 200.24 60.8009 196.298 60.9836C191.689 60.9879 187.09 61.4079 182.557 62.2384Z" fill="url(#paint6_linear_801_13167)"/>
<path d="M195.224 18.9317C180.122 24.3317 170.538 39.8014 167.792 67.5317C167.6 69.6994 169.658 69.4603 171.158 68.982C173.997 42.8601 184.226 26.682 197.961 22.2411C198.347 22.1126 198.851 22.0084 199.118 21.9274C198.963 19.6427 198.035 18.672 196.616 18.672C196.141 18.684 195.671 18.7717 195.224 18.9317Z" fill="url(#paint7_linear_801_13167)"/>
<path d="M160.073 20.1943C157.178 29.9914 157.092 37.4936 158.249 42.3279C160.146 50.2093 166.864 59.4639 168.504 61.638C168.711 60.207 168.941 58.8094 169.187 57.444C165.926 52.8144 163.428 47.6923 161.788 42.2726C160.341 36.2477 160.863 30.2679 163.196 22.3324C163.453 21.4324 163.765 20.1467 163.774 20.0182C163.49 19.2304 162.764 18.6877 161.928 18.6386C161.026 18.671 160.262 19.312 160.073 20.1943Z" fill="url(#paint8_linear_801_13167)"/>
<path fill-rule="evenodd" clip-rule="evenodd" d="M173.429 75.0428C177.705 69.162 197.174 71.6537 204.812 74.1608C206.523 72.933 206.612 71.0597 202.918 70.242C197.187 68.8227 191.314 68.0537 185.411 67.9496H185.361C175.506 67.9496 168.808 70.9221 172.692 78.7958C172.27 77.5017 172.549 76.0816 173.429 75.0428Z" fill="url(#paint9_linear_801_13167)"/>
<path d="M152.27 77.1823C146.661 81.0806 141.419 86.9074 139.454 91.2184C140.985 91.1991 142.509 91.0129 144 90.663C147.253 86.0115 151.346 82.0078 156.068 78.8576C162.716 74.2354 167.087 72.5422 168.14 82.9899C168.742 88.3899 168.404 95.226 165.557 99.3892C166.118 100.911 166.74 102.346 167.287 103.533C170.349 100.248 172.292 92.7613 171.823 85.9804C171.161 80.2963 170.469 71.9803 163.967 71.9764C161.231 71.9764 157.477 73.4396 152.27 77.1823Z" fill="url(#paint10_linear_801_13167)"/>
<path d="M131.377 79.0286C126.607 80.8684 127.905 85.4417 133.004 83.4C141.385 79.6723 150.854 79.2051 159.561 82.0899C169.61 85.3041 175.558 87.3613 183.797 96.4076C186.274 99.3081 189.123 97.908 188.237 94.8441C187.012 89.7669 171.131 81.5589 161.039 78.72C155.997 77.354 150.796 76.6623 145.572 76.6629C140.733 76.5424 135.915 77.3453 131.377 79.0286Z" fill="url(#paint11_linear_801_13167)"/>
<path d="M173.429 75.0429C172.551 76.083 172.274 77.5032 172.696 78.7971C173.626 80.4787 174.754 82.0426 176.057 83.4553C176.278 83.7124 177.061 84.6947 178.123 86.0344C183.033 88.8231 186.994 91.8471 188.039 94.2746C187.115 92.0022 185.88 89.8686 184.37 87.9347C183.632 86.9061 178.494 80.8504 177.427 79.521C175.898 77.6156 174.077 75.102 176.355 72.9086C175.205 73.3433 174.194 74.0807 173.429 75.0429Z" fill="url(#paint12_linear_801_13167)"/>
<path d="M185.654 73.0603C185.242 73.3174 185.315 73.797 185.537 74.1557C185.687 74.3784 185.851 74.5906 186.03 74.7908C186.587 75.4337 187.187 76.0534 187.785 76.668C189.643 78.5966 191.513 80.5251 193.334 82.4923C195.211 84.5263 197.145 86.8444 201.746 91.8471C205.24 95.2967 208.175 91.8034 204.749 88.3834C201.933 85.4661 198.054 81.78 194.966 79.1327C193.166 77.5976 191.305 76.1061 189.373 74.724C188.747 74.2753 188.113 73.8368 187.444 73.446C187.223 73.31 186.993 73.1876 186.756 73.0796C186.552 72.9939 186.334 72.9464 186.113 72.9394C185.954 72.936 185.796 72.9751 185.657 73.0526L185.654 73.0603Z" fill="url(#paint13_linear_801_13167)"/>
<path d="M177.484 72.4894C177.828 80.376 187.145 81.1654 191.35 80.3901C190.412 79.3988 189.447 78.4037 188.496 77.4188C185.467 77.5757 180.564 76.3337 180.373 71.8286C179.395 71.9765 178.429 72.1974 177.484 72.4894H177.484Z" fill="url(#paint14_linear_801_13167)"/>
<path d="M192.078 76.767C193.058 77.5384 194.021 78.3296 194.968 79.1404L195.21 79.35C198.619 78.0313 201.847 76.2879 204.819 74.1608C203.24 73.6597 201.634 73.2455 200.009 72.9201C197.582 74.608 194.906 75.9059 192.078 76.767Z" fill="url(#paint15_linear_801_13167)"/>
<path fill-rule="evenodd" clip-rule="evenodd" d="M195.146 23.3366C195.119 25.718 194.664 28.0752 193.801 30.2949C190.715 39.4402 183.962 53.2359 172.927 57.8644C172.63 59.2144 172.361 60.6026 172.122 62.0289V62.043C183.8 57.8002 189.499 48.0416 193.396 41.1733C196.857 35.0726 199.496 26.6627 199.109 21.9339C199.109 21.9339 198.517 22.0624 197.952 22.2463C196.997 22.5557 196.06 22.9197 195.146 23.3366Z" fill="url(#paint16_linear_801_13167)"/>
<path fill-rule="evenodd" clip-rule="evenodd" d="M204.556 50.2556C204.273 50.2556 203.99 50.271 203.708 50.3018C200.138 50.5864 196.629 51.3957 193.294 52.7036C189.98 54.0161 186.919 55.8961 184.25 58.2591C182.429 59.9095 180.903 61.8599 179.74 64.0256C178.936 65.5003 178.325 67.0717 177.92 68.7017C178.877 68.4701 179.848 68.2983 180.827 68.1874C181.037 67.5004 181.314 66.8355 181.653 66.2023C182.507 64.6236 183.644 63.2155 185.008 62.0481C187.48 59.9128 190.279 58.1885 193.298 56.9413C196.606 55.6686 200.071 54.8469 203.598 54.4984C207.006 54.1577 207.712 52.9221 207.509 51.9064C207.337 51.0154 206.419 50.2556 204.556 50.2556Z" fill="url(#paint17_linear_801_13167)"/>
<defs>
<linearGradient id="paint0_linear_801_13167" x1="151.077" y1="78.7163" x2="143.464" y2="97.6325" gradientUnits="userSpaceOnUse">
<stop stop-color="#3263B7"/>
<stop offset="0.581" stop-color="#68CEF6"/>
<stop offset="1" stop-color="#73D2F6"/>
</linearGradient>
<linearGradient id="paint1_linear_801_13167" x1="132.355" y1="72.1565" x2="161.774" y2="72.1565" gradientUnits="userSpaceOnUse">
<stop stop-color="#1C63B7"/>
<stop offset="1" stop-color="#59C9F4"/>
</linearGradient>
<linearGradient id="paint2_linear_801_13167" x1="139.166" y1="59.308" x2="164.503" y2="69.9575" gradientUnits="userSpaceOnUse">
<stop stop-color="#1C63B7"/>
<stop offset="0.484" stop-color="#5CBEEE"/>
<stop offset="0.584" stop-color="#65CCF5"/>
<stop offset="0.605" stop-color="#66CEF5"/>
<stop offset="0.608" stop-color="#66CEF5"/>
<stop offset="0.609" stop-color="#66CEF5"/>
<stop offset="1" stop-color="#1C63B8"/>
</linearGradient>
<linearGradient id="paint3_linear_801_13167" x1="178.633" y1="35.3077" x2="176.938" y2="14.8128" gradientUnits="userSpaceOnUse">
<stop stop-color="#1C63B7"/>
<stop offset="1" stop-color="#0DB1EF"/>
</linearGradient>
<linearGradient id="paint4_linear_801_13167" x1="4478.72" y1="4506.24" x2="4455.18" y2="4445.12" gradientUnits="userSpaceOnUse">
<stop stop-color="#1C63B7"/>
<stop offset="1" stop-color="#0DB1EF"/>
</linearGradient>
<linearGradient id="paint5_linear_801_13167" x1="154.303" y1="80.1859" x2="189.438" y2="71.8608" gradientUnits="userSpaceOnUse">
<stop stop-color="#73D2F6"/>
<stop offset="0.06" stop-color="#7CD5F7"/>
<stop offset="0.079" stop-color="#7FD6F7"/>
<stop offset="0.092" stop-color="#7ED6F7"/>
<stop offset="0.284" stop-color="#4AC5F4"/>
<stop offset="0.326" stop-color="#18B5F1"/>
<stop offset="0.335" stop-color="#05AFEF"/>
<stop offset="0.337" stop-color="#01ADEF"/>
<stop offset="0.337" stop-color="#00ADEF"/>
<stop offset="0.416" stop-color="#59CAF5"/>
<stop offset="0.436" stop-color="#58C8F4"/>
<stop offset="1" stop-color="#1C63B8"/>
</linearGradient>
<linearGradient id="paint6_linear_801_13167" x1="4461.76" y1="4521.17" x2="4470.49" y2="4562.76" gradientUnits="userSpaceOnUse">
<stop stop-color="#1C63B7"/>
<stop offset="1" stop-color="#59C9F4"/>
</linearGradient>
<linearGradient id="paint7_linear_801_13167" x1="179.112" y1="92.5002" x2="224.562" y2="67.1791" gradientUnits="userSpaceOnUse">
<stop stop-color="#59CAF5"/>
<stop offset="0.519" stop-color="#79D4F7"/>
<stop offset="0.648" stop-color="#7ED6F7"/>
<stop offset="0.686" stop-color="#7FD6F7"/>
<stop offset="0.712" stop-color="#7ED6F7"/>
<stop offset="1" stop-color="#74D2F6"/>
</linearGradient>
<linearGradient id="paint8_linear_801_13167" x1="179.119" y1="-12.8293" x2="146.419" y2="-14.1518" gradientUnits="userSpaceOnUse">
<stop stop-color="#1EA7E7"/>
<stop offset="0.208" stop-color="#5ECBF5"/>
<stop offset="0.481" stop-color="#79D4F7"/>
<stop offset="0.529" stop-color="#7ED6F7"/>
<stop offset="0.539" stop-color="#7FD6F7"/>
<stop offset="1" stop-color="#74D2F6"/>
</linearGradient>
<linearGradient id="paint9_linear_801_13167" x1="173.47" y1="78.295" x2="204.697" y2="78.295" gradientUnits="userSpaceOnUse">
<stop stop-color="#73D2F6"/>
<stop offset="1" stop-color="#73D2F6"/>
</linearGradient>
<linearGradient id="paint10_linear_801_13167" x1="170.65" y1="110.413" x2="183.561" y2="72.9795" gradientUnits="userSpaceOnUse">
<stop stop-color="#1C63B7"/>
<stop offset="0.416" stop-color="#12A5E7"/>
<stop offset="1" stop-color="#66CEF5"/>
</linearGradient>
<linearGradient id="paint11_linear_801_13167" x1="134.156" y1="101.46" x2="188.929" y2="74.0576" gradientUnits="userSpaceOnUse">
<stop stop-color="#1A8AD3"/>
<stop offset="0.487" stop-color="#7DD4F6"/>
<stop offset="0.515" stop-color="#7FD6F7"/>
<stop offset="0.519" stop-color="#7FD6F7"/>
<stop offset="0.521" stop-color="#7FD6F7"/>
<stop offset="0.523" stop-color="#7FD6F7"/>
<stop offset="1" stop-color="#67CEF5"/>
</linearGradient>
<linearGradient id="paint12_linear_801_13167" x1="166.525" y1="84.985" x2="185.515" y2="98.9246" gradientUnits="userSpaceOnUse">
<stop stop-color="#1C63B7"/>
<stop offset="0.318" stop-color="#61C5F1"/>
<stop offset="0.376" stop-color="#65CDF5"/>
<stop offset="0.413" stop-color="#65CCF5"/>
<stop offset="1" stop-color="#1C63B8"/>
</linearGradient>
<linearGradient id="paint13_linear_801_13167" x1="4531.49" y1="4587.62" x2="4599.08" y2="4622.09" gradientUnits="userSpaceOnUse">
<stop stop-color="#1C63B7"/>
<stop offset="1" stop-color="#0DB1EF"/>
</linearGradient>
<linearGradient id="paint14_linear_801_13167" x1="168.178" y1="77.0329" x2="177.25" y2="90.5314" gradientUnits="userSpaceOnUse">
<stop stop-color="#1C63B7"/>
<stop offset="0.441" stop-color="#65CCF5"/>
<stop offset="0.446" stop-color="#66CEF5"/>
<stop offset="1" stop-color="#01ADEF"/>
</linearGradient>
<linearGradient id="paint15_linear_801_13167" x1="201.166" y1="81.1933" x2="203.31" y2="73.0419" gradientUnits="userSpaceOnUse">
<stop stop-color="#33BDF2"/>
<stop offset="0.26" stop-color="#66CEF5"/>
<stop offset="0.307" stop-color="#65CCF5"/>
<stop offset="1" stop-color="#1C63B8"/>
</linearGradient>
<linearGradient id="paint16_linear_801_13167" x1="198.108" y1="22.2061" x2="171.45" y2="22.2061" gradientUnits="userSpaceOnUse">
<stop stop-color="#1C63B7"/>
<stop offset="0.709" stop-color="#63C9F3"/>
<stop offset="0.74" stop-color="#66CEF5"/>
<stop offset="0.767" stop-color="#65CDF5"/>
<stop offset="1" stop-color="#1FA8E7"/>
</linearGradient>
<linearGradient id="paint17_linear_801_13167" x1="177.236" y1="68.6423" x2="206.668" y2="68.6423" gradientUnits="userSpaceOnUse">
<stop stop-color="#1C63B7"/>
<stop offset="0.367" stop-color="#5BCAF5"/>
<stop offset="1" stop-color="#73D2F6"/>
</linearGradient>
</defs>
</svg>
