<svg width="234" height="130" viewBox="0 0 234 130" fill="none" xmlns="http://www.w3.org/2000/svg">
<path d="M206.633 53.0225C213.268 44.7003 212.366 32.6696 204.564 25.4301C196.761 18.1906 184.696 18.1906 176.894 25.4301C169.091 32.6696 168.189 44.7003 174.825 53.0225C178.441 57.3823 182.919 58.9655 184.741 58.92C187.541 58.8827 187.03 56.596 186.813 55.6533C186.513 54.5852 186.04 53.5732 185.413 52.6573C184.27 51.0388 183.656 49.1064 183.654 47.125C183.662 43.1642 187.418 40.2953 190.738 40.2942C194.058 40.293 197.803 43.163 197.803 47.125C197.802 49.1065 197.188 51.0391 196.044 52.6573C195.425 53.5766 194.956 54.5877 194.652 55.6533C194.426 56.5995 193.929 58.885 196.723 58.92C198.541 58.9667 203.017 57.3823 206.633 53.0225Z" fill="#007DBA"/>
<path d="M170.183 60.0948C166.974 58.8126 163.487 58.3844 160.063 58.8523C158.126 59.0477 156.286 59.7975 154.764 61.0118C153.955 61.5798 153.41 62.4502 153.252 63.4256C153.094 64.401 153.337 65.3989 153.925 66.193C155.411 68.2767 169.192 84.5937 172.825 88.8077C173.576 89.7144 174.755 90.1512 175.916 89.9533C177.732 89.5637 179.787 87.4193 180.566 85.8817C181.202 84.7381 181.667 83.5074 181.946 82.2288C183.179 77.1117 182.199 71.7118 179.248 67.3538C176.923 64.1727 173.795 61.6674 170.183 60.0948Z" fill="#007DBA"/>
<path d="M226.704 61.0118C225.182 59.7998 223.343 59.0503 221.407 58.8523C217.983 58.3851 214.497 58.8132 211.288 60.0948C207.673 61.6643 204.542 64.1702 202.219 67.3538C199.256 71.7072 198.275 77.112 199.521 82.2288C199.793 83.5068 200.252 84.7377 200.883 85.8817C201.663 87.4193 203.728 89.566 205.532 89.9533C206.693 90.1508 207.87 89.714 208.621 88.8077C212.258 84.5937 226.042 68.2743 227.538 66.193C228.125 65.3989 228.367 64.4019 228.211 63.427C228.054 62.4521 227.511 61.5815 226.704 61.0118Z" fill="#007DBA"/>
<path d="M6.06867 85.0895C5.67131 85.7004 5.60732 86.47 5.89834 87.1382C6.25831 87.7507 6.92687 88.1145 7.63667 88.0843H19.1353C20.5514 88.0768 21.8633 87.3388 22.605 86.1325L35.2983 65.8325H18.0818C12.1715 75.314 6.21684 84.8667 6.06867 85.0895Z" fill="#007DBA"/>
<path d="M49.2167 42.5902C49.0786 41.2373 47.9043 40.2302 46.5462 40.3H41.75C36.9051 40.3044 32.4092 42.8217 29.8733 46.95C29.8733 46.95 25.2918 54.2813 20.1573 62.5238H52.7517L49.2167 42.5902Z" fill="#007DBA"/>
<path d="M110.344 53.3293H126.533L119.554 62.518H138.422L145.306 53.4658C147.02 51.3361 147.945 48.6784 147.921 45.9443V42.7943C148.045 41.5406 147.13 40.4235 145.876 40.2988C145.736 40.2866 145.596 40.2866 145.456 40.2988H110.344C109.682 40.2316 109.025 40.4669 108.556 40.9394C108.087 41.4118 107.856 42.0707 107.928 42.7325V50.905C107.858 51.5656 108.089 52.2226 108.558 52.6932C109.027 53.1637 109.683 53.3975 110.344 53.3293Z" fill="#007DBA"/>
<path d="M145.933 75.0153H128.939L135.912 65.8348H117.035L110.31 74.6747C108.379 77.4628 107.411 80.8049 107.552 84.1935V85.5842C107.498 86.1875 107.685 86.788 108.073 87.2533C108.461 87.7187 109.017 88.0109 109.621 88.0657C109.756 88.0773 109.891 88.0773 110.026 88.0657H145.933C146.596 88.1315 147.253 87.8962 147.723 87.4247C148.193 86.9531 148.426 86.2954 148.358 85.6332V77.4572C148.429 76.7934 148.197 76.133 147.727 75.6593C147.256 75.1855 146.598 74.949 145.933 75.0153Z" fill="#007DBA"/>
<path d="M53.3339 65.8407H37.2339C37.6457 68.0923 40.6172 84.8352 40.7911 85.8082C40.8967 87.1436 42.0454 88.1528 43.3834 88.0855H54.4551C55.2326 88.1494 55.9887 87.8103 56.4582 87.1872C56.8327 86.6248 56.9451 85.9277 56.7662 85.2762L53.3339 65.8407Z" fill="#007DBA"/>
<path d="M88.9907 62.5285H102.908V42.7278C102.977 42.0639 102.743 41.4042 102.271 40.9321C101.799 40.4599 101.139 40.2256 100.475 40.2942H90.7011C90.0382 40.2279 89.3807 40.4632 88.9104 40.9351C88.4402 41.4069 88.207 42.0652 88.2756 42.7278V61.2487L79.0111 44.5957C77.1607 41.5262 74.0422 40.3595 70.4057 40.2918H63.1829C62.5218 40.2289 61.8673 40.4658 61.3995 40.9372C60.9317 41.4086 60.6999 42.0649 60.7679 42.7255V62.5285H72.9094L74.7761 65.8383H60.7667V85.6367C60.6934 86.3 60.9229 86.961 61.3913 87.4362C61.8598 87.9115 62.5174 88.1504 63.1817 88.0867H72.9817C73.6468 88.1519 74.3058 87.9137 74.7753 87.4382C75.2449 86.9628 75.4749 86.3009 75.4014 85.6367V66.9968L84.7522 83.7852C86.5851 86.8383 89.7141 88.0038 93.3261 88.0832H100.482C101.149 88.1499 101.81 87.9126 102.282 87.4373C102.754 86.9619 102.986 86.2992 102.915 85.6332V65.8383H90.8539L88.9907 62.5285Z" fill="#007DBA"/>
</svg>
