<svg width="337" height="130" viewBox="0 0 337 130" fill="none" xmlns="http://www.w3.org/2000/svg">
<path d="M287.642 51.3612C287.642 50.785 287.167 50.3064 286.589 50.3064H278.267C277.685 50.3064 277.21 50.785 277.21 51.3612V93.0151C277.21 93.6075 277.685 94.0724 278.267 94.0724H286.589C287.167 94.0724 287.642 93.6075 287.642 93.0151V51.3612Z" fill="#4B1F68"/>
<path d="M224.52 73.2558L213.62 65.9946C211.097 64.244 209.961 62.7871 210.221 61.1769C210.868 57.4642 216.067 58.2074 216.067 58.2074C220.719 58.3819 225.463 59.1209 230.053 60.0295C230.528 60.1188 230.903 59.8346 230.896 59.3888C230.866 57.2569 230.832 55.1307 230.786 52.9984C230.776 52.5559 230.392 52.1148 229.927 52.0213C224.647 50.9769 219.296 50.4269 213.943 50.3674C213.943 50.3674 200.582 50.4144 200.582 61.2936C200.582 64.6025 201.828 68.421 206.161 71.5488L206.151 71.5583L217.597 79.171C220.32 81.0225 221.538 82.5156 221.261 84.1831C220.615 87.8958 215.416 87.1526 215.416 87.1526C210.759 86.9856 206.023 86.242 201.43 85.3318C200.958 85.2412 200.577 85.5287 200.582 85.9711C200.624 88.1002 200.656 90.2292 200.691 92.3616C200.699 92.8041 201.088 93.2486 201.554 93.3387C206.839 94.3769 212.192 94.9331 217.536 95C217.536 95 230.896 94.9531 230.896 84.0664C230.896 80.561 229.505 76.4761 224.52 73.2558Z" fill="#4B1F68"/>
<path d="M261.73 73.2558L250.819 65.9946C248.305 64.244 247.159 62.7871 247.433 61.1769C248.079 57.4642 253.264 58.2074 253.264 58.2074C257.925 58.3819 262.666 59.1209 267.26 60.0295C267.734 60.1188 268.113 59.8346 268.105 59.3888C268.063 57.2569 268.032 55.1307 267.992 52.9984C267.982 52.5559 267.594 52.1148 267.132 52.0213C261.853 50.9769 256.501 50.4269 251.145 50.3674C251.145 50.3674 237.787 50.4144 237.787 61.2936C237.787 64.6025 239.028 68.421 243.364 71.5488L243.351 71.5583L254.799 79.171C257.521 81.0225 258.744 82.5156 258.463 84.1831C257.815 87.8958 252.625 87.1526 252.625 87.1526C247.965 86.9856 243.23 86.242 238.636 85.3318C238.159 85.2412 237.78 85.5287 237.787 85.9711C237.824 88.1002 237.861 90.2292 237.904 92.3616C237.908 92.8041 238.292 93.2486 238.761 93.3387C244.043 94.3769 249.389 94.9331 254.752 95C254.752 95 268.105 94.9531 268.105 84.0664C268.105 80.561 266.708 76.4761 261.73 73.2558Z" fill="#4B1F68"/>
<path d="M287.642 36.0552C287.642 35.4724 287.167 35 286.589 35H278.267C277.685 35 277.21 35.4724 277.21 36.0552V43.9421C277.21 44.5183 277.685 44.9968 278.267 44.9968H286.589C287.167 44.9968 287.642 44.5183 287.642 43.9421V36.0552Z" fill="#4B1F68"/>
<path d="M191.088 50.3101H182.763C182.189 50.3101 181.717 50.7854 181.717 51.3682V81.5087C181.714 81.5087 181.708 81.5087 181.705 81.5148C181.705 82.2913 181.641 82.5829 181.603 82.6797C179.136 84.9363 176.352 86.6537 171.605 86.6537C166.092 86.6537 166.283 81.2938 166.283 81.2938V76.7241H166.264V51.3682C166.264 50.7854 165.799 50.3101 165.215 50.3101H156.888C156.308 50.3101 155.833 50.7854 155.833 51.3682V76.9588C155.741 79.336 155.62 94.9024 169.373 94.9024C173.856 94.9024 178.489 92.6063 181.142 90.7344C181.398 90.594 181.68 90.5238 181.717 90.8823V93.0176C181.717 93.6038 182.189 94.0728 182.763 94.0728H191.088C191.67 94.0728 192.143 93.6038 192.143 93.0176V51.3682C192.143 50.7854 191.67 50.3101 191.088 50.3101" fill="#4B1F68"/>
<path d="M331.257 76.2087C331.257 76.2087 331.792 76.2353 332.017 76.0171C332.227 75.8036 332.15 75.4185 332.15 75.4185V73.1021C332.157 64.9132 330.141 58.9673 326.49 55.0539C322.848 51.1402 318.004 49.8544 313.971 49.8885C307.021 49.7605 301.484 53.2966 298.766 58.0603C295.977 62.7813 295.255 68.2537 295.232 73.417C295.162 82.1704 298.284 88.3175 302.747 91.6355C306.917 94.7591 310.284 94.9398 313.33 94.9697L313.32 94.993C313.533 94.993 313.751 94.973 313.975 94.973C314.65 94.9635 315.342 94.9398 316.035 94.9057C320.478 94.708 324.912 94.2136 329.302 93.3491C329.773 93.2552 330.155 92.8174 330.164 92.3749C330.201 90.2658 330.241 88.1463 330.272 86.031C330.278 85.5931 329.9 85.311 329.431 85.4045C324.941 86.2756 320.395 86.7214 315.841 86.8946C315.66 86.8946 315.48 86.898 315.306 86.898C313.126 86.9084 310.127 86.2416 308.094 84.658C305.984 82.9843 304.687 80.5104 304.366 76.2087H327.744H331.257ZM304.359 68.7227C304.72 66.2821 305.386 64.106 306.342 62.5565C307.96 60.1055 309.581 58.777 313.971 58.6494C316.369 58.6727 318.405 59.2883 320.033 61.0265C321.277 62.345 322.535 64.6718 323.062 68.7227H304.359Z" fill="#4B1F68"/>
<path d="M150.292 93.0513L137.472 41.8072C137.436 41.6963 137.384 41.5999 137.332 41.4986C136.446 39.0517 133.842 37.1233 131.275 37.1233H123.89C121.129 37.1233 118.328 39.3259 117.646 42.0179L114.854 53.1894C114.837 53.2426 114.837 53.2896 114.829 53.3395L104.905 93.0513C104.755 93.6811 105.104 94.2032 105.683 94.2032H114.001C114.577 94.2032 115.168 93.6811 115.31 93.0513L118.739 77.769H136.467L139.89 93.0513C140.038 93.6811 140.616 94.2032 141.201 94.2032H149.52C150.098 94.2032 150.447 93.6811 150.292 93.0513V93.0513ZM120.489 69.942L125.243 48.7569C125.523 47.6817 126.284 45.4015 127.65 45.4015C129.428 45.4015 129.518 46.8991 130.203 49.898C130.206 49.898 130.206 49.898 130.214 49.8952L134.712 69.942H120.489" fill="#4B1F68"/>
<path d="M87.0047 93.6331C87.0047 94.3871 86.3919 94.9995 85.6392 94.9995H6.36676C5.60818 94.9995 5 94.3871 5 93.6331V90.215C5 89.4556 5.60818 88.8421 6.36676 88.8421H85.6392C86.3919 88.8421 87.0047 89.4556 87.0047 90.215V93.6331Z" fill="#FFD11F"/>
<path d="M87.0047 82.03C87.0047 82.7807 86.3919 83.3975 85.6392 83.3975H6.36676C5.60818 83.3975 5 82.7807 5 82.03V78.6022C5 77.8491 5.60818 77.2356 6.36676 77.2356H85.6392C86.3919 77.2356 87.0047 77.8491 87.0047 78.6022V82.03Z" fill="#FFD11F"/>
<path d="M85.9665 66.8914L85.9782 66.8753L49.4186 36.5288C49.4186 36.5288 47.7768 35.0004 46.136 35.0004C44.5789 35.0004 42.7976 36.5604 42.7976 36.5604L6.05607 66.8914H6.0731C5.43709 67.4178 5.01709 68.195 5.01709 69.0696C5.01709 70.6356 6.33358 71.9164 7.9446 71.9164H7.96288H7.96702H84.0385L84.0468 71.9111C84.0564 71.9111 84.076 71.9164 84.0938 71.9164C85.7115 71.9164 87.028 70.6356 87.028 69.0696C87.028 68.195 86.6046 67.4178 85.9665 66.8914V66.8914ZM75.3786 65.7606C75.3786 66.017 75.1638 66.2289 74.9042 66.2289V66.2309H17.1995C17.1995 66.2309 17.2119 66.2267 17.226 66.2267C17.2065 66.2267 17.1824 66.2289 17.1654 66.2289C16.9111 66.2289 16.7006 66.017 16.7006 65.7606C16.7006 65.5969 16.7952 65.4504 16.9356 65.3685L44.9533 42.2334C44.9533 42.2334 45.6445 41.6324 46.1646 41.6324C46.642 41.6324 47.3248 42.2696 47.3248 42.2696L75.1967 65.4075C75.3042 65.4886 75.3786 65.6194 75.3786 65.7606" fill="#4B1F68"/>
</svg>
