<svg width="232" height="130" viewBox="0 0 232 130" fill="none" xmlns="http://www.w3.org/2000/svg">
<mask id="mask0_801_13140" style="mask-type:alpha" maskUnits="userSpaceOnUse" x="173" y="34" width="9" height="46">
<path d="M173.752 34.0164V79.5992H181.448V41.9712C181.448 38.4563 180.708 36.4584 179.524 35.3484C179.45 35.2744 179.376 35.2004 179.265 35.1264C179.228 35.0894 179.191 35.0524 179.117 35.0524C179.043 34.9784 178.932 34.9044 178.821 34.8674L178.747 34.8304C178.636 34.7564 178.525 34.7194 178.414 34.6454C178.377 34.6454 178.377 34.6084 178.34 34.6084C178.229 34.5344 178.081 34.4974 177.97 34.4604H177.933C177.785 34.4234 177.674 34.3864 177.526 34.3124C177.378 34.2754 177.23 34.2384 177.082 34.2014H177.045C176.897 34.1644 176.749 34.1274 176.564 34.1274C176.379 34.0904 176.231 34.0904 176.046 34.0534C175.639 34.0164 175.269 34.0164 174.899 34.0164C174.307 33.9794 173.863 34.0164 173.752 34.0164Z" fill="white"/>
</mask>
<g mask="url(#mask0_801_13140)">
<path d="M151.035 59.1758L177.193 30.1315L204.129 54.4029L178.007 83.4471L151.035 59.1758Z" fill="url(#paint0_linear_801_13140)"/>
</g>
<mask id="mask1_801_13140" style="mask-type:alpha" maskUnits="userSpaceOnUse" x="179" y="35" width="48" height="60">
<path d="M179.524 35.3484C180.708 36.4584 181.411 38.4193 181.411 41.9712V83.6691V94.3618H226.994V81.4122V81.0792V80.9682C226.994 80.9682 227.031 80.3022 226.92 79.5622C226.809 78.8592 226.106 77.8603 224.256 75.7513C224.219 75.7513 179.709 35.5334 179.524 35.3484Z" fill="white"/>
</mask>
<g mask="url(#mask1_801_13140)">
<path d="M150.221 68.4625L200.392 11.78L256.297 61.2477L206.164 117.93L150.221 68.4625Z" fill="url(#paint1_linear_801_13140)"/>
</g>
<path d="M5 35.3854H33.0823C47.2529 35.3854 50.8418 44.2282 50.8418 50.185C50.8418 58.4728 46.1799 60.8038 43.775 62.0247C50.8418 64.6517 52.6917 70.3125 52.6917 76.0104C52.6917 80.5982 50.7678 84.9641 47.6969 87.887C44.4039 91.1059 41.259 93.1409 29.4193 93.1409H5V35.3854ZM16.5807 83.1882H31.3803C37.2631 83.1882 40.6301 80.5982 40.6301 74.7524C40.6301 69.6835 36.3012 67.7596 31.9353 67.7596H16.5807V83.1882ZM16.5807 57.9918H30.7513C35.4872 57.9918 39.2611 56.1419 39.2611 51.554C39.2611 46.8181 35.8942 45.3752 30.4183 45.3752H16.5807V57.9918Z" fill="#1C75BC"/>
<path d="M94.5747 90.6619C89.9129 92.9559 84.215 93.1039 82.6611 93.1039C75.4092 93.1039 56.2808 89.996 56.2808 64.2076C56.2808 38.4193 75.4092 35.2744 82.6611 35.2744C89.9499 35.2744 109.078 38.4193 109.078 64.2076C109.078 73.2354 106.71 79.5252 103.344 83.7801C103.307 83.7801 99.4586 88.257 94.5747 90.6619ZM89.2839 81.6342C91.6888 80.1912 94.3527 77.2313 95.0557 75.9733C96.6097 73.1984 97.5717 69.3135 97.5717 64.2076C97.5717 48.8161 88.8399 45.0052 82.6611 45.0052C76.4822 45.0052 67.7505 48.8161 67.7505 64.2076C67.7505 79.5622 76.4822 83.4101 82.6611 83.4101C83.697 83.4101 86.398 83.3731 89.2839 81.6342Z" fill="#1C75BC"/>
<path d="M160.655 95.6568L154.143 89.441C148.926 92.5119 143.265 93.1039 140.084 93.1039C132.832 93.1039 113.666 89.996 113.666 64.2076C113.666 38.4193 132.795 35.2744 140.084 35.2744C147.372 35.2744 166.464 38.4193 166.464 64.2076C166.464 73.2354 164.096 79.5252 160.729 83.8171L166.686 89.441L160.655 95.6568ZM146.669 70.5715L152.478 75.9733C153.995 73.1614 154.994 69.3135 154.994 64.2076C154.994 48.8161 146.262 45.0052 140.084 45.0052C133.905 45.0052 125.136 48.8161 125.136 64.2076C125.136 79.5992 133.868 83.4101 140.084 83.4101C142.008 83.4101 144.227 83.0401 146.262 81.9672L140.75 76.7503L146.669 70.5715Z" fill="#1C75BC"/>
<defs>
<linearGradient id="paint0_linear_801_13140" x1="164.637" y1="71.3136" x2="189.14" y2="44.1004" gradientUnits="userSpaceOnUse">
<stop stop-color="#FEBD36"/>
<stop offset="0.3643" stop-color="#FEBA36"/>
<stop offset="0.5984" stop-color="#FCB236"/>
<stop offset="0.7957" stop-color="#FAA335"/>
<stop offset="0.9718" stop-color="#F78E35"/>
<stop offset="1" stop-color="#F68A35"/>
</linearGradient>
<linearGradient id="paint1_linear_801_13140" x1="179.077" y1="92.2356" x2="207.502" y2="60.1073" gradientUnits="userSpaceOnUse">
<stop stop-color="#1B75BC"/>
<stop offset="0.3812" stop-color="#1D76BD"/>
<stop offset="0.5255" stop-color="#247ABF"/>
<stop offset="0.6297" stop-color="#3081C2"/>
<stop offset="0.7146" stop-color="#418BC8"/>
<stop offset="0.7877" stop-color="#5798CF"/>
<stop offset="0.8526" stop-color="#73A8D7"/>
<stop offset="0.9102" stop-color="#93BBE1"/>
<stop offset="0.963" stop-color="#B7D0EC"/>
<stop offset="0.9663" stop-color="#BAD2ED"/>
<stop offset="1" stop-color="#8FACD9"/>
</linearGradient>
</defs>
</svg>
