<svg width="356" height="130" viewBox="0 0 356 130" fill="none" xmlns="http://www.w3.org/2000/svg">
<path fill-rule="evenodd" clip-rule="evenodd" d="M125.636 56.0786C121.961 56.0786 118.834 57.2365 116.561 59.4332V47.7663C116.561 46.4834 115.431 45.3998 114.093 45.3998C112.755 45.3998 111.625 46.4834 111.625 47.7663V80.769C111.625 82.096 112.709 83.1356 114.093 83.1356C115.477 83.1356 116.561 82.096 116.561 80.769V79.7811C118.834 81.9776 121.961 83.1356 125.636 83.1356C133.743 83.1356 139.19 77.7091 139.19 69.6325C139.19 61.5255 133.743 56.0786 125.636 56.0786ZM134.152 69.6325C134.152 75.4743 130.912 78.9619 125.484 78.9619C119.824 78.9619 116.307 75.3877 116.307 69.6325C116.307 63.8466 119.824 60.2524 125.484 60.2524C130.993 60.2524 134.152 63.6713 134.152 69.6325ZM167.588 56.0786C166.25 56.0786 165.12 57.1623 165.12 58.4451V59.4394C162.802 57.2389 159.675 56.0786 156.045 56.0786C147.938 56.0786 142.491 61.5255 142.491 69.6325C142.491 77.7091 147.938 83.1356 156.045 83.1356C159.675 83.1356 162.802 81.9754 165.12 79.7749V80.769C165.12 82.096 166.204 83.1356 167.588 83.1356C168.972 83.1356 170.056 82.096 170.056 80.769V58.4447C170.056 57.1623 168.927 56.0786 167.588 56.0786ZM165.375 69.6325C165.375 75.3871 161.858 78.9619 156.198 78.9619C150.77 78.9619 147.529 75.4743 147.529 69.6325C147.529 63.6713 150.689 60.2524 156.198 60.2524C161.858 60.2524 165.375 63.8466 165.375 69.6325ZM197.504 58.8026C195.581 57.0206 192.842 56.0786 189.582 56.0786C186.187 56.0786 183.271 57.1511 181.116 59.1857V58.4451C181.116 57.1623 179.987 56.0786 178.648 56.0786C177.31 56.0786 176.18 57.1623 176.18 58.4451V80.7693C176.18 82.0964 177.264 83.1359 178.648 83.1359C180.032 83.1359 181.116 82.0964 181.116 80.7693V67.5476C181.116 62.8143 183.832 60.0997 188.565 60.0997C193.469 60.0997 195.657 62.4281 195.657 67.6494V80.769C195.657 82.096 196.741 83.1356 198.125 83.1356C199.509 83.1356 200.593 82.096 200.593 80.769V66.8354C200.593 63.4539 199.524 60.6758 197.504 58.8026ZM228.997 58.2926C228.997 57.2455 228.046 56.0786 226.681 56.0786C226.216 56.0806 225.765 56.2377 225.399 56.525L210.894 68.1394V47.7154C210.894 46.4327 209.764 45.349 208.426 45.349C207.087 45.349 205.958 46.4327 205.958 47.7154V80.769C205.958 82.096 207.042 83.1356 208.426 83.1356C209.81 83.1356 210.894 82.096 210.894 80.769V73.7875L216.114 69.6401L224.498 82.0892C224.933 82.7308 225.652 83.1211 226.427 83.1356C227.797 83.1356 228.997 81.9584 228.997 80.616C229.006 80.1619 228.871 79.7167 228.61 79.3446L219.856 66.618L228.165 60.0112C228.684 59.5906 228.989 58.9607 228.997 58.2926ZM269.207 56.0786C268.186 56.0786 267.361 56.6518 267.054 57.574L260.764 76.242L254.425 57.6722C254.152 56.9056 253.135 56.0785 251.968 56.0785C250.818 56.0785 249.841 56.889 249.561 57.6746L243.173 76.2444L236.884 57.5744C236.575 56.6517 235.75 56.0785 234.73 56.0785C233.353 56.0668 232.227 57.1705 232.21 58.5468C232.223 58.9163 232.296 59.2813 232.426 59.6275L240.713 81.4905C240.984 82.2493 241.79 83.1355 243.171 83.1355C244.324 83.1355 245.333 82.474 245.68 81.4893L251.97 63.4622L258.358 81.4899C258.711 82.4895 259.677 83.1355 260.817 83.1355C262.197 83.1355 263.004 82.2493 263.273 81.4934L271.51 59.6307C271.64 59.2833 271.712 58.9173 271.726 58.5468C271.709 57.171 270.583 56.0675 269.207 56.0786ZM297.223 59.674C294.747 57.3555 291.4 56.0786 287.802 56.0786C284.042 56.0786 280.577 57.4216 278.047 59.8601C275.465 62.3473 274.044 65.818 274.044 69.6325C274.044 73.6668 275.418 77.0905 278.016 79.5335C280.488 81.8563 283.98 83.1356 287.852 83.1356C292.352 83.1356 295.948 82.0785 298.539 79.9958C299.034 79.5834 299.321 78.9725 299.321 78.3282C299.321 77.1152 298.394 76.165 297.209 76.165C296.642 76.165 296.24 76.2578 295.619 76.7665C293.764 78.3244 291.151 79.1144 287.852 79.1144C285.651 79.1275 283.522 78.3317 281.87 76.878C280.15 75.349 279.174 73.2609 279.041 70.8294H298.023C299.823 70.8294 300.897 69.6596 300.897 67.7005C300.897 64.7846 299.559 61.8594 297.223 59.674ZM296.342 67.2151H279.052C279.55 63.1446 283.231 60.0997 287.7 60.0997C292.207 60.0997 295.73 63.0149 296.342 67.2148V67.2151ZM316.966 67.1669C313.464 66.5575 309.843 65.928 309.843 63.3269C309.843 61.179 312.057 59.9471 315.918 59.9471C318.498 59.9471 320.704 60.7908 322.305 62.3916L322.388 62.4678C322.971 63.0037 323.573 63.5576 324.614 63.5576C325.738 63.5422 326.637 62.6201 326.625 61.4961C326.625 60.9213 326.376 60.3664 325.862 59.7951C323.227 57.0549 318.84 56.0786 315.614 56.0786C309.509 56.0786 304.907 59.2821 304.907 63.5303C304.907 68.6527 309.356 69.8915 315.174 70.9791C315.464 71.0308 315.778 71.082 316.109 71.1359C319.065 71.6174 323.111 72.2769 323.111 75.277C323.111 77.0276 321.908 79.1144 316.173 79.1144C313.009 79.1144 310.336 77.8358 308.226 75.3157C307.864 74.8726 307.259 74.2836 306.206 74.2836C305.061 74.2836 304.093 75.2974 304.093 76.4974C304.093 77.9535 306.239 79.858 307.373 80.6615L307.374 80.6623C309.601 82.211 312.699 83.135 315.664 83.135C319.02 83.135 322.046 82.4167 324.186 81.1128C326.513 79.6948 327.744 77.6588 327.744 75.2256C327.744 69.4112 322.18 68.017 316.966 67.1669ZM348.928 77.6398C348.346 77.6398 347.878 77.821 347.335 78.0308C346.576 78.3237 345.714 78.6567 344.199 78.6567C341.304 78.6567 339.955 77.292 339.955 74.3617V60.4557H347.504C348.636 60.4557 349.667 59.4973 349.667 58.4451C349.667 57.3201 348.657 56.3328 347.504 56.3328H339.955V50.0546C339.937 48.6706 338.819 47.5529 337.435 47.5351C336.059 47.551 334.955 48.678 334.967 50.0546V56.3328H331.689C330.551 56.3328 329.628 57.2557 329.628 58.3942C329.628 59.5327 330.551 60.4557 331.689 60.4557H334.967V74.4127C334.967 80.1198 338.001 83.1358 343.741 83.1358C345.543 83.1358 347.323 82.8463 348.624 82.3417C350.205 81.7287 351.041 80.8333 351.041 79.7519C351.039 78.5858 350.094 77.641 348.928 77.6398ZM49.9014 20.1124C25.169 20.1124 5.03281 40.2336 5.0143 64.9656C4.99539 89.7564 25.0769 109.869 49.8676 109.888H49.9027C74.6801 109.888 94.7715 89.8117 94.7891 65.0343C94.8082 40.2836 74.6717 20.1318 49.9014 20.1124ZM90.1043 65.0313C90.1255 75.6993 85.8776 85.9324 78.3076 93.4492C70.7161 101.029 60.617 105.203 49.8707 105.203C39.2082 105.195 28.9857 100.951 21.452 93.4059C13.9184 85.8605 9.69076 75.6313 9.69922 64.9688C9.71609 42.8185 27.7508 24.7969 49.933 24.7969C72.1005 24.8145 90.1216 42.8633 90.1043 65.0313ZM68.1692 46.6668C64.0634 46.9242 60.789 50.1936 60.5253 54.299C60.5164 54.4342 60.5112 54.5685 60.5096 54.7004C60.4745 57.0602 61.5409 59.3113 63.4346 60.8778L65.1276 62.2772L59.28 67.4309L53.5305 62.345L55.3278 60.7612C56.9484 59.3315 57.9443 57.3305 58.0597 55.2687C58.0681 55.1192 58.0722 54.9687 58.0727 54.8151C58.0707 52.5603 57.1407 50.4058 55.5013 48.8579C53.1964 46.6883 49.8458 46.0452 46.9014 47.2071C43.957 48.3691 41.9486 51.127 41.7465 54.2859C41.7284 54.5749 41.7252 54.8647 41.737 55.154C41.8253 57.2527 42.8202 59.2921 44.4664 60.7489L46.2634 62.3388L40.5021 67.4167L34.6696 62.257L36.4743 60.754C38.243 59.296 39.2754 57.1298 39.2942 54.8377V54.8008C39.2925 52.5459 38.3624 50.3912 36.7227 48.8433C35.0832 47.2869 32.8674 46.4873 30.6119 46.6382C26.5061 46.8957 23.2318 50.165 22.9679 54.2704C22.9595 54.4055 22.9544 54.5406 22.9528 54.6717C22.9195 56.9578 23.9246 59.1742 25.7109 60.755L36.8653 70.6222L35.0668 72.2078C33.4262 73.6524 32.4301 75.6824 32.3322 77.7761C32.3187 78.0705 32.3208 78.3654 32.3384 78.6596C32.6098 83.0645 36.3299 86.4581 40.7412 86.3248C45.1525 86.1914 48.6608 82.5794 48.6657 78.1661C48.6657 78.0146 48.6622 77.8621 48.654 77.7115C48.5421 75.6538 47.5514 73.6533 45.9358 72.2232L44.1332 70.6281L49.8945 65.5508L55.6446 70.6367L53.8449 72.2221C52.2043 73.6687 51.2082 75.6978 51.1107 77.7894C50.9006 82.2432 54.2997 86.0431 58.7493 86.3287C58.9272 86.3404 59.1045 86.3451 59.2814 86.3451C63.7889 86.3386 67.4406 82.6847 67.4442 78.1771C67.4442 78.0267 67.4401 77.8751 67.4316 77.7257C67.3203 75.6679 66.3301 73.6675 64.7135 72.2372L62.9109 70.6423L74.1064 60.7751C75.7272 59.3455 76.7228 57.3445 76.8377 55.2847C76.8467 55.1342 76.8508 54.9807 76.8508 54.8292C76.8525 52.5723 75.9207 50.4152 74.2764 48.8692C72.6321 47.3233 70.4217 46.5262 68.1692 46.6668ZM57.0255 75.8309L59.2745 73.8489L61.526 75.8398C62.1843 76.4224 62.5862 77.2045 62.6289 77.9856C62.6322 78.049 62.6337 78.1126 62.6337 78.175C62.6333 79.1045 62.248 79.9923 61.5692 80.6274C60.8905 81.2624 59.979 81.5879 59.0516 81.5266C57.3728 81.401 56.0395 80.0643 55.918 78.3853C55.9105 78.2612 55.9096 78.1368 55.9154 78.0126C55.9531 77.215 56.3571 76.4206 57.0255 75.8309ZM49.9005 59.1323L47.654 57.1451C46.982 56.5513 46.5773 55.7518 46.544 54.9537C46.539 54.8316 46.5404 54.7092 46.5484 54.5872C46.6738 52.91 48.0083 51.5775 49.6857 51.4545C49.7581 51.4504 49.8298 51.4483 49.9018 51.4483C50.7935 51.4481 51.6486 51.8023 52.279 52.4329C52.9094 53.0635 53.2633 53.9188 53.2629 54.8104C53.2629 54.8759 53.2607 54.9393 53.2575 55.0018C53.2136 55.786 52.8092 56.5693 52.1479 57.1518L49.9005 59.1323ZM66.5 57.1698C65.748 56.5487 65.3068 55.6515 65.3196 54.7689C65.3196 54.7127 65.3226 54.6574 65.326 54.601C65.4516 52.9236 66.787 51.5913 68.4646 51.4694C68.5363 51.4642 68.6087 51.4621 68.6799 51.4621C69.5721 51.4619 70.4277 51.8166 71.0582 52.4478C71.6886 53.0791 72.0422 53.9351 72.0409 54.8273C72.0409 54.8908 72.0389 54.9533 72.0355 55.0157C71.9913 55.7998 71.5865 56.5842 70.9252 57.1656L68.7807 59.0565L66.5 57.1698ZM38.2476 75.8164L40.4961 73.8346L42.7481 75.8258C43.4067 76.4083 43.8082 77.1905 43.8505 77.9703C43.8538 78.0338 43.8553 78.0962 43.8553 78.1606C43.8552 79.0901 43.47 79.978 42.7912 80.6131C42.1125 81.2481 41.2009 81.5735 40.2734 81.5117C38.5946 81.387 37.2609 80.0503 37.1402 78.3711C37.1327 78.2473 37.1319 78.1232 37.1376 77.9994C37.1742 77.2007 37.5788 76.4053 38.2476 75.8164ZM27.7627 54.7414C27.7637 54.685 27.7662 54.6297 27.7695 54.5724C27.8956 52.8952 29.2301 51.5629 30.9075 51.4396C30.9793 51.4355 31.0511 51.4335 31.123 51.4335C32.0199 51.433 32.8798 51.7911 33.5112 52.4282C34.1426 53.0653 34.493 53.9284 34.4844 54.8253C34.4694 55.6939 34.071 56.5113 33.3961 57.0582L31.025 59.032L28.8986 57.1513C28.1637 56.5022 27.7498 55.6238 27.7627 54.7414Z" fill="#FF911E"/>
</svg>
