<svg width="432" height="130" viewBox="0 0 432 130" fill="none" xmlns="http://www.w3.org/2000/svg">
<path d="M64.9915 125L5 64.9915L64.9915 5L125 64.9915L64.9915 125Z" fill="url(#paint0_linear_801_13161)"/>
<path d="M64.9915 125L5 64.9915L64.9915 5L125 64.9915L64.9915 125Z" fill="url(#paint1_linear_801_13161)"/>
<path d="M87.884 70.9518L87.7824 71.0703L87.7147 71.2058L64.9914 125L125 64.9916L113.367 53.3759L109.405 49.4138L87.884 70.9518Z" fill="url(#paint2_linear_801_13161)"/>
<path d="M87.884 70.9518L87.7824 71.0703L87.7147 71.2058L64.9914 125L125 64.9916L113.367 53.3759L109.405 49.4138L87.884 70.9518Z" fill="url(#paint3_linear_801_13161)"/>
<path opacity="0.4" d="M87.884 70.9518L87.7824 71.0703L87.7147 71.2058L64.9914 125L125 64.9916L113.367 53.3759L109.405 49.4138L87.884 70.9518Z" fill="url(#paint4_linear_801_13161)"/>
<path d="M142.457 44.7066C142.457 34.3439 148.163 28.9933 155.8 28.9933C161.422 28.9933 166.332 32.0581 167.162 38.1029H162.37C161.76 34.3947 158.865 33.0571 155.851 33.0571C150.839 33.0571 147.131 36.4266 147.131 44.7235C147.131 53.0204 150.839 56.3899 155.851 56.3899C158.882 56.3899 161.76 55.0523 162.37 51.3441H167.162C166.349 57.3889 161.422 60.4537 155.8 60.4537C148.163 60.4368 142.457 55.0692 142.457 44.7066Z" fill="#2E3434"/>
<path d="M169.109 48.9057C169.109 41.828 173.477 37.3409 179.471 37.3409C185.516 37.3409 189.885 41.828 189.885 48.9057C189.885 55.9835 185.516 60.4706 179.471 60.4706C173.477 60.4706 169.109 55.9835 169.109 48.9057ZM185.313 48.9057C185.313 43.5551 182.942 40.9644 179.488 40.9644C176.034 40.9644 173.613 43.5551 173.613 48.9057C173.613 54.2564 176.034 56.847 179.488 56.847C182.942 56.847 185.313 54.2564 185.313 48.9057Z" fill="#2E3434"/>
<path d="M224.511 45.4516V59.9119H220.024V46.1458C220.024 42.6069 218.433 41.3032 215.961 41.3032C213.116 41.3032 210.83 43.6398 210.83 47.4327V59.9119H206.343V46.1458C206.343 42.6069 204.751 41.3032 202.279 41.3032C199.434 41.3032 197.149 43.6398 197.149 47.4327V59.9119H192.662V37.8828H197.149V41.2524C198.571 38.6109 201.077 37.324 203.718 37.324C206.563 37.324 209.069 38.7464 210.204 41.6926C211.626 38.7633 214.301 37.324 217.281 37.324C221.243 37.324 224.511 39.9655 224.511 45.4516Z" fill="#2E3434"/>
<path d="M259.951 45.4516V59.9119H255.464V46.1458C255.464 42.6069 253.873 41.3032 251.4 41.3032C248.556 41.3032 246.27 43.6398 246.27 47.4327V59.9119H241.783V46.1458C241.783 42.6069 240.191 41.3032 237.719 41.3032C234.874 41.3032 232.588 43.6398 232.588 47.4327V59.9119H228.101V37.8828H232.588V41.2524C234.011 38.6109 236.517 37.324 239.158 37.324C242.003 37.324 244.509 38.7464 245.643 41.6926C247.066 38.7633 249.741 37.324 252.721 37.324C256.666 37.324 259.951 39.9655 259.951 45.4516Z" fill="#2E3434"/>
<path d="M262.864 48.9057C262.864 41.828 267.232 37.3409 273.226 37.3409C279.271 37.3409 283.64 41.828 283.64 48.9057C283.64 55.9835 279.271 60.4706 273.226 60.4706C267.232 60.4706 262.864 55.9835 262.864 48.9057ZM279.051 48.9057C279.051 43.5551 276.681 40.9644 273.226 40.9644C269.772 40.9644 267.351 43.5551 267.351 48.9057C267.351 54.2564 269.772 56.847 273.226 56.847C276.681 56.847 279.051 54.2564 279.051 48.9057Z" fill="#2E3434"/>
<path d="M305.415 45.4516V59.9119H300.928V46.5691C300.928 42.7255 299.065 41.3032 296.525 41.3032C293.765 41.3032 291.005 43.1149 291.005 47.5681V59.9119H286.518V37.8828H291.005V41.3878C292.512 38.577 295.103 37.324 297.965 37.324C301.961 37.324 305.415 39.9655 305.415 45.4516Z" fill="#2E3434"/>
<path d="M333.201 37.8828H337.603L332.032 59.9118H326.546L322.398 43.1995L318.131 59.9118H312.611L307.04 37.8828H311.578L315.76 55.848L320.214 37.8828H324.785L329.154 55.4925L333.201 37.8828Z" fill="#2E3434"/>
<path d="M358.294 50.0741H342.784C343.123 54.5273 345.375 56.8978 349.219 56.8978C351.471 56.8978 353.282 55.9835 353.875 54.1379H358.277C357.024 58.3202 353.486 60.4875 348.863 60.4875C342.598 60.4875 338.331 56.0004 338.331 48.9227C338.331 41.8449 342.649 37.3578 348.948 37.3578C354.569 37.3578 358.396 40.9814 358.396 47.8898C358.43 48.5502 358.379 49.2952 358.294 50.0741ZM342.886 46.5691H354.061C353.892 42.336 351.555 40.9137 348.795 40.9137C345.731 40.9137 343.496 42.7762 342.886 46.5691Z" fill="#2E3434"/>
<path d="M381.644 56.5422V59.9964C380.832 60.1658 380.256 60.2166 379.579 60.2166C377.377 60.2166 375.735 59.2684 375.176 57.2873C373.872 59.2684 371.163 60.4875 368.217 60.4875C363.29 60.4875 360.53 57.3381 360.53 53.3589C360.53 49.1258 363.848 46.84 368.048 46.6706L374.905 46.4167V45.333C374.905 42.5222 373.432 40.9644 370.503 40.9644C367.472 40.9644 366.185 42.2682 365.711 44.1646H360.919C361.833 39.7114 365.322 37.3409 370.554 37.3409C376.074 37.3409 379.189 40.321 379.189 45.0282V54.6966C379.189 56.0004 379.883 56.593 380.916 56.593C381.136 56.593 381.306 56.593 381.644 56.5422ZM374.905 52.1398V49.6846L368.81 49.9894C366.304 50.1249 364.966 51.1577 364.966 53.1388C364.966 55.4247 366.439 56.9317 369.335 56.9317C372.45 56.9317 374.905 55.2046 374.905 52.1398Z" fill="#2E3434"/>
<path d="M384.218 59.9118V29.5181H388.705V59.9118H384.218Z" fill="#2E3434"/>
<path d="M167.06 91.7109C167.06 97.2309 163.386 100.397 156.867 100.397H144.218V69.9866H157.307C162.742 69.9866 166.196 72.9667 166.196 77.8433C166.196 81.1282 164.554 83.414 162.048 84.5824C165.113 85.6152 167.06 88.3414 167.06 91.7109ZM148.705 73.9657V82.9399H156.426C159.796 82.9399 161.658 81.4329 161.658 78.4528C161.658 75.4727 159.796 73.9657 156.426 73.9657H148.705ZM157.036 96.4181C160.575 96.4181 162.522 94.7757 162.522 91.6601C162.522 88.5446 160.575 86.9021 157.036 86.9021H148.705V96.4012H157.036V96.4181Z" fill="#2E3434"/>
<path d="M190.156 97.0276V100.482C189.343 100.651 188.767 100.702 188.09 100.702C185.889 100.702 184.246 99.7538 183.687 97.7727C182.384 99.7538 179.674 100.973 176.728 100.973C171.801 100.973 169.041 97.8235 169.041 93.8444C169.041 89.6113 172.36 87.3254 176.559 87.1561L183.417 86.9021V85.8184C183.417 83.0076 181.943 81.4498 179.014 81.4498C175.983 81.4498 174.696 82.7536 174.222 84.6501H169.43C170.345 80.1968 173.833 77.8263 179.065 77.8263C184.585 77.8263 187.7 80.8064 187.7 85.5136V95.182C187.7 96.4858 188.395 97.0785 189.428 97.0785C189.648 97.0615 189.817 97.0615 190.156 97.0276ZM183.417 92.6252V90.17L177.321 90.4748C174.815 90.6103 173.477 91.6431 173.477 93.6242C173.477 95.9101 174.95 97.4171 177.846 97.4171C180.961 97.4171 183.417 95.69 183.417 92.6252Z" fill="#2E3434"/>
<path d="M211.389 85.92V100.38H206.902V87.0376C206.902 83.1939 205.039 81.7716 202.499 81.7716C199.739 81.7716 196.98 83.5833 196.98 88.0366V100.38H192.492V78.3682H196.98V81.8732C198.486 79.0624 201.077 77.8094 203.939 77.8094C207.935 77.8094 211.389 80.4339 211.389 85.92Z" fill="#2E3434"/>
<path d="M233.638 78.3682L224.274 89.0356L233.638 100.397H227.932L219.245 89.696V100.397H214.758V69.9866H219.245V88.7647L228.186 78.3512H233.638V78.3682Z" fill="#2E3434"/>
<path d="M394.92 54.2903V41.6418H391.161V37.8828H394.92V32.8369L399.322 30.077V37.8997H404.199V41.6587H399.322V53.1389C399.322 55.3401 400.27 56.1698 402.048 56.1698C402.742 56.1698 403.47 56.119 404.554 55.9497V59.6579C403.301 60.0981 401.963 60.2167 400.88 60.2167C397.375 60.2167 394.92 58.1848 394.92 54.2903Z" fill="#2E3434"/>
<path d="M407.314 59.9118V29.5181H411.801V41.3877C413.308 38.577 416.627 37.324 419.488 37.324C423.501 37.324 426.955 39.9654 426.955 45.4346V59.8949H422.468V46.5521C422.468 42.7085 419.878 41.2862 417.338 41.2862C414.578 41.2862 411.818 43.0979 411.818 47.5511V59.8949H407.314V59.9118Z" fill="#2E3434"/>
<defs>
<linearGradient id="paint0_linear_801_13161" x1="5" y1="64.9968" x2="124.994" y2="64.9968" gradientUnits="userSpaceOnUse">
<stop offset="0.3191" stop-color="#FCED00"/>
<stop offset="0.4629" stop-color="#FCE903"/>
<stop offset="0.6031" stop-color="#FDE111"/>
<stop offset="0.7415" stop-color="#FFD51E"/>
<stop offset="0.8006" stop-color="#FFCF22"/>
</linearGradient>
<linearGradient id="paint1_linear_801_13161" x1="34.9985" y1="34.9983" x2="119.847" y2="119.847" gradientUnits="userSpaceOnUse">
<stop offset="0.00925926" stop-color="#FCED00"/>
<stop offset="0.1652" stop-color="#FCE60A" stop-opacity="0.7002"/>
<stop offset="0.4187" stop-color="#FED71D" stop-opacity="0.2128"/>
<stop offset="0.5294" stop-color="#FFCF22" stop-opacity="0"/>
</linearGradient>
<linearGradient id="paint2_linear_801_13161" x1="52.852" y1="87.2015" x2="180.088" y2="87.2015" gradientUnits="userSpaceOnUse">
<stop stop-color="#F68B1F"/>
<stop offset="0.0589" stop-color="#F78E1F"/>
<stop offset="0.1263" stop-color="#F89821"/>
<stop offset="0.1977" stop-color="#FAA826"/>
<stop offset="0.2029" stop-color="#FBAA26"/>
<stop offset="0.2706" stop-color="#FBAC26" stop-opacity="0.9351"/>
<stop offset="0.3253" stop-color="#FCB324" stop-opacity="0.8828"/>
<stop offset="0.3754" stop-color="#FEC021" stop-opacity="0.8348"/>
<stop offset="0.4225" stop-color="#FFD11A" stop-opacity="0.7897"/>
<stop offset="0.4639" stop-color="#FFE508" stop-opacity="0.75"/>
<stop offset="0.7003" stop-color="#FCED00" stop-opacity="0.3"/>
</linearGradient>
<linearGradient id="paint3_linear_801_13161" x1="78.9457" y1="81.7968" x2="98.3498" y2="94.4988" gradientUnits="userSpaceOnUse">
<stop offset="0.00307953" stop-color="#F68B1F"/>
<stop offset="0.4919" stop-color="#FFC81C" stop-opacity="0"/>
</linearGradient>
<linearGradient id="paint4_linear_801_13161" x1="78.0454" y1="80.6525" x2="105.786" y2="100.493" gradientUnits="userSpaceOnUse">
<stop offset="0.0164"/>
<stop offset="0.479" stop-color="#FFC81C" stop-opacity="0"/>
</linearGradient>
</defs>
</svg>
