<svg width="269" height="130" viewBox="0 0 269 130" fill="none" xmlns="http://www.w3.org/2000/svg">
<rect x="39.965" y="30.2898" width="69.3394" height="69.3394" fill="white"/>
<path d="M143.974 65.0404L109.304 30.2898V99.7101L143.974 65.0404Z" fill="#DB0011"/>
<path d="M74.6347 65.0404L109.304 30.2898H39.965L74.6347 65.0404Z" fill="#DB0011"/>
<path d="M5.21326 65.0404L39.965 99.7101V30.2898L5.21326 65.0404Z" fill="#DB0011"/>
<path d="M74.6347 65.0404L39.965 99.7101H109.304L74.6347 65.0404Z" fill="#DB0011"/>
<path d="M174.402 62.3487H161.839V50.4388H155.558V79.4801H161.839V67.0802H174.402V79.4801H180.684V50.4388H174.402V62.3487Z" fill="black"/>
<path d="M199.854 62.8376L197.406 62.1037C193.327 60.7989 191.37 60.1459 191.37 58.0251C191.37 55.4143 193.653 54.197 196.019 54.197C198.956 54.197 200.503 55.7468 200.751 58.3532H207.032C206.951 51.9089 202.057 49.951 196.423 49.951C190.954 49.951 184.921 52.1539 184.921 58.5982C184.921 63.8187 189.489 65.6135 194.057 66.9195L196.179 67.4904C199.441 68.4748 201.399 69.1212 201.399 71.406C201.399 74.2607 198.462 75.5623 195.93 75.5623C192.504 75.5623 190.709 73.6854 190.628 70.5857H184.347C184.427 77.519 189.567 80.0489 195.848 80.0489C201.559 80.0489 207.922 77.519 208.003 70.9937C208.011 66.1014 204.828 64.3885 199.854 62.8376Z" fill="black"/>
<path fill-rule="evenodd" clip-rule="evenodd" d="M227.752 64.3886C231.179 63.4906 233.549 61.6148 233.549 57.8622C233.549 53.9465 230.857 51.6628 227.348 50.8469C225.462 50.5345 223.548 50.4245 221.639 50.5187H211.523L211.605 79.479H223.025C228.083 79.479 234.609 78.0101 234.609 71.4028C234.604 67.0781 231.668 65.1225 227.752 64.3886ZM217.637 54.8434H222.042C224.652 54.8434 227.263 55.6594 227.263 58.6781C227.263 62.0228 224.408 62.5937 221.635 62.5937H217.637V54.8434ZM217.555 75.1565H222.206C225.142 75.1565 228 74.4992 228 70.9139C228 67.3286 225.55 66.6723 222.532 66.6723H217.555V75.1565Z" fill="black"/>
<path d="M256.385 70.9138C256.114 73.6264 253.719 75.6211 251.002 75.3982C245.533 75.3982 243.822 70.0148 243.822 65.3653C243.822 60.7157 245.536 54.5962 251.247 54.5962C252.508 54.4811 253.762 54.8865 254.717 55.7185C255.672 56.5504 256.245 57.7366 256.304 59.0018H262.83C262.667 52.4754 257.033 49.8657 251.247 49.8657C242.028 49.8657 237.378 56.3101 237.378 65.2023C237.378 74.0945 241.534 80.0488 250.92 80.0488C256.956 80.0488 262.259 77.601 262.912 70.9117L256.385 70.9138Z" fill="black"/>
</svg>
