<svg width="244" height="130" viewBox="0 0 244 130" fill="none" xmlns="http://www.w3.org/2000/svg">
<path fill-rule="evenodd" clip-rule="evenodd" d="M20.6923 81.0623V52.4562C20.6923 50.1738 21.0708 48.78 21.9188 47.9342C22.9823 47.0654 24.3475 46.6549 25.7138 46.7931H27.0269V45.0127H5V46.7931H6.44808C7.79137 46.6604 9.13245 47.0658 10.1773 47.9204C11.0254 48.7673 11.405 50.1669 11.405 52.4573V81.0612C11.405 85.0188 10.5742 86.7842 5.67154 86.7842H5V88.5404H27.0304V86.7946L26.3658 86.7854C21.5104 86.7265 20.6923 84.9727 20.6923 81.0623Z" fill="#091C5A"/>
<path fill-rule="evenodd" clip-rule="evenodd" d="M70.7554 46.7169C77.4246 46.688 76.3838 50.4807 76.4692 58.0996V71.1634C76.5618 72.0999 76.7078 73.0302 76.9065 73.95L49.3988 45.0646H34.6758V46.778C39.5646 46.7365 41.1662 49.2496 40.9792 53.5857L41.0196 56.9319V77.4957C41.0196 86.1254 40.0354 86.7946 34.9942 86.7888V88.5715H50.9854V86.7888C45.9523 86.88 44.9854 85.9361 45.1735 78.135V56.7392C45.0823 55.8039 44.9393 54.8744 44.7454 53.955L77.8688 88.5819L80.0519 88.605V58.0996C80.0912 50.4842 79.2269 46.6892 86.0946 46.7169V45.0057H70.7554V46.7169Z" fill="#091C5A"/>
<path fill-rule="evenodd" clip-rule="evenodd" d="M119.989 65.9665V67.6615L120.634 67.6869C125.046 67.8576 125.88 68.6492 125.88 72.6703V83.2465C122.606 85.4042 120.227 86.2246 117.227 86.2246C112.935 86.2473 108.816 84.5369 105.803 81.4811C102.247 77.9273 100.514 72.7546 100.514 66.908C100.514 60.6092 102.193 55.2346 105.655 51.7823C108.46 48.9864 112.276 47.4437 116.237 47.5049C120.236 47.626 124.094 49.0085 127.26 51.4546C129.54 53.2209 131.165 55.6981 131.876 58.493L132.02 58.9719H133.672L132.441 44.1692H130.751L130.672 44.7461C130.557 45.608 130.218 47.0538 129.232 47.0538C128.618 46.9983 128.018 46.8313 127.463 46.5611C123.787 45.028 119.851 44.2148 115.868 44.1657C108.946 44.0255 102.255 46.6644 97.2915 51.4926C92.9299 55.9207 90.5302 61.9154 90.6315 68.1299C90.5972 74.1212 93.3131 79.7971 98 83.5292C102.962 87.773 108.527 89.5823 116.609 89.5823C122.393 89.8191 128.122 88.382 133.109 85.4434L134.148 84.8826V73.4688C134.148 68.603 134.745 67.8473 138.707 67.6869L139.35 67.6615V65.9665H119.989Z" fill="#091C5A"/>
<path fill-rule="evenodd" clip-rule="evenodd" d="M217.222 88.4239C218.318 88.4397 219.392 88.1174 220.298 87.5008C223.867 88.0499 227.51 87.2126 230.48 85.1608C231.982 83.9596 233.315 82.5603 234.441 81.0012C235.394 79.7484 236.144 78.3532 236.662 76.8669C237.032 75.9222 237.325 74.9495 237.54 73.9581C238.487 69.1281 238.127 64.1328 236.496 59.4889C236.22 58.6712 235.902 57.8678 235.545 57.0819C233.628 53.1231 231.018 48.8527 226.998 46.3512C224.682 44.879 222.753 42.8734 221.373 40.5023C220.68 39.8769 220.011 39.0485 219.112 38.8985C219.391 39.2799 219.59 39.7141 219.696 40.1746L219.644 40.2415C218.744 40.2152 217.893 39.8227 217.288 39.1546L218.006 38.5027C217.722 38.3804 217.425 38.2928 217.121 38.2419C214.371 37.9304 212.113 39.1985 209.675 39.8077L209.637 39.9427C211.131 40.6073 211.446 42.2504 212.318 43.3696C212.533 43.1112 212.901 43.3004 213.202 43.2773C213.637 43.3015 214.046 43.6154 214.472 43.5081C214.428 43.1727 214.341 42.8443 214.214 42.5308C214.496 42.4627 214.79 42.4627 215.072 42.5308C215.861 42.9923 217.124 42.45 217.616 43.5081C216.742 43.582 215.877 43.733 215.03 43.9592C215.085 44.3054 215.426 44.5696 215.398 44.9112C214.666 44.6124 213.896 44.4163 213.11 44.3285L213.07 44.4439C214.1 45.5771 215.439 46.3851 216.922 46.7689C218.978 47.2431 220.789 46.2658 222.775 46.6062C227.65 48.8365 231.815 53.9377 233.621 58.7804C233.709 59.0112 233.794 59.2469 233.876 59.4877C235.489 64.1607 235.588 69.2229 234.161 73.9558C233.436 75.8867 232.38 77.6763 231.04 79.2439C230.515 79.8965 229.916 80.4858 229.255 81C227.262 82.6513 224.596 83.2395 222.094 82.5796C221.93 82.4642 221.603 82.44 221.659 82.1562C221.749 81.7777 221.833 81.3935 221.908 81.0023C222.354 78.7443 222.526 76.4408 222.422 74.1415L222.412 73.8427C222.303 70.6333 221.605 67.4712 220.354 64.5139C219.534 62.7146 218.552 60.994 217.42 59.3735C216.085 57.3728 214.187 55.8122 211.967 54.8885C210.582 54.5204 208.863 54.4512 207.813 55.6062C207.089 56.2245 206.73 57.1684 206.86 58.1112C205.674 58.8447 204.327 59.278 202.937 59.3735C202.581 59.4438 202.221 59.4958 201.86 59.5292C201.521 59.5445 201.181 59.5313 200.845 59.49C199.08 59.1948 197.425 58.4345 196.052 57.2873C196.023 56.5789 195.982 55.9119 195.955 55.1654C195.156 54.7847 194.61 54.0178 194.513 53.1381L194.58 53.0712C195.006 53.2173 195.412 53.4129 195.792 53.6539C195.67 52.5973 195.361 51.5707 194.882 50.6215C194.39 50.4162 193.9 50.2535 193.438 50.0089C192.918 49.6372 192.574 49.0674 192.487 48.4339C192.965 48.8954 193.792 48.7327 194.16 49.2208C193.519 47.3296 193.508 45.1685 192.458 43.44C191.928 42.1639 190.538 41.5777 189.585 40.6408C189.217 40.1896 189.07 39.5642 188.403 39.495C187.858 39.36 187.818 38.7496 187.722 38.3527C188.061 38.3942 188.346 38.625 188.632 38.6792C187.843 36.5873 187.147 34.26 185.013 32.9273L184.646 33.1581C183.802 33.2729 182.952 33.341 182.1 33.3623C182.512 32.8895 183.043 32.5357 183.638 32.3377C183.096 31.948 182.458 31.7142 181.792 31.6615C181.275 32.069 180.662 32.3365 180.012 32.4381L179.942 32.3827C179.928 31.8935 179.817 31.2958 180.554 31.1723C179.707 30.9011 178.797 30.9011 177.95 31.1723C177.748 31.7031 177.164 32.1796 177.206 32.8073C176.857 33.281 176.471 33.7266 176.052 34.14C176.144 33.1534 176.353 32.1812 176.675 31.2439C176.062 31.4746 175.44 31.8012 174.84 32.0862C173.871 31.5059 172.863 30.9916 171.824 30.5469C171.731 30.5054 171.525 30.4673 171.566 30.6427C172.451 31.2808 172.107 32.4796 172.203 33.3877L171.643 32.9262C171.372 32.2339 170.586 31.7308 170.448 30.9646C169.627 31.1312 168.828 31.3962 168.071 31.7539L167.955 31.8219C168.59 31.8876 169.151 32.2654 169.45 32.8292C168.514 32.7616 167.585 32.6196 166.672 32.4046C166.578 32.3123 166.493 32.2004 166.345 32.2142C165.87 32.4282 165.43 32.7126 165.041 33.0577C164.038 33.9314 163.239 35.0136 162.698 36.2285C163.026 36.2287 163.348 36.3078 163.638 36.4592C163.122 36.7708 162.672 37.3027 162.169 37.6004C162.035 38.3548 161.971 39.12 161.977 39.8862C161.52 40.4413 161.123 41.044 160.795 41.6839C159.985 44.5646 159.668 47.5613 159.855 50.5477C159.581 50.8073 159.227 50.9723 158.97 51.1754L158.998 53.9446H159.065C159.18 53.3619 159.882 53.0365 160.304 52.6419H160.442C160.372 53.2662 160.292 53.8927 160.278 54.5319L159.494 55.1839C158.703 55.8762 159.371 56.925 159.304 57.7973C159.359 58.0281 159.397 58.3662 159.561 58.4215C159.713 58.1001 159.911 57.802 160.147 57.5365C160.487 57.4569 160.787 57.1823 161.098 57.1442C160.92 57.826 160.692 58.4939 160.417 59.1427C160.267 59.2392 160.128 59.3531 160.004 59.4819C159.862 59.6179 159.764 59.793 159.723 59.985C160.365 63.1962 161.261 66.3515 162.402 69.4212C161.655 70.6904 161.231 72.1765 160.609 73.485C160.519 73.665 160.439 73.8542 160.364 74.0435C159.74 75.6242 159.548 77.3896 158.771 78.9115C158.454 78.7017 158.117 78.5239 157.765 78.3808C156.283 77.8583 154.633 78.2285 153.516 79.3339C152.592 79.1427 151.629 79.3186 150.832 79.8242C150.313 80.193 149.902 80.6948 149.643 81.2769C149.475 81.687 149.403 82.1295 149.43 82.5715C148.864 83.0019 148.461 83.6124 148.288 84.3023C148.063 85.7666 148.452 87.2589 149.365 88.4262H217.218L217.222 88.4239Z" fill="white"/>
<path fill-rule="evenodd" clip-rule="evenodd" d="M208.21 57.8457C208.196 58.1988 207.937 58.5945 208.169 58.8934C208.497 58.5253 209.042 58.538 209.477 58.3776C210.664 58.3642 211.846 58.5478 212.974 58.9211C212.69 58.4711 212.495 57.9715 212.186 57.5619C211.557 57.3992 210.606 57.833 210.498 56.9088C210.116 56.5822 209.515 56.8165 209.123 56.8395C208.748 57.103 208.436 57.4467 208.21 57.8457Z" fill="white"/>
<path fill-rule="evenodd" clip-rule="evenodd" d="M166.605 46.1054C166.6 46.0994 166.593 46.0951 166.585 46.0927V46.1054H166.605Z" fill="white"/>
<path fill-rule="evenodd" clip-rule="evenodd" d="M171.554 58.1931L172.372 57.405C172.435 57.3982 172.496 57.4245 172.534 57.4742L172.468 58.9811C172.858 59.3168 173.356 59.5004 173.87 59.4981C173.912 59.0896 174.224 58.8058 174.402 58.4504C174.552 58.1654 174.457 57.7431 174.755 57.5377L174.848 57.6335C174.879 58.0952 174.981 58.5494 175.151 58.98C175.178 59.1958 175.218 59.4692 175.244 59.6596C175.8 59.6746 176.352 59.5534 176.85 59.3065C176.872 58.8272 176.949 58.352 177.081 57.8908C177.206 57.7269 176.931 57.4292 177.273 57.4431C177.463 57.8504 177.805 58.2715 177.995 58.7065C178.722 57.8856 179.178 56.8606 179.301 55.7711C179.07 55.4561 178.716 55.4561 178.443 55.2542C175.995 54.3837 173.309 54.4753 170.927 55.5104C170.76 56.4528 170.987 57.4223 171.554 58.1931Z" fill="white"/>
<path fill-rule="evenodd" clip-rule="evenodd" d="M149.923 83.7115C149.871 84.7333 149.893 85.7575 149.989 86.7761C150.203 87.1593 150.568 87.4357 150.995 87.5388L151.067 86.8465C151.228 85.8784 150.711 84.8526 151.257 84.038C151.634 84.1683 151.998 84.332 152.346 84.5272C152.572 83.5875 152.207 82.6047 151.423 82.0396L149.923 83.7115Z" fill="white"/>
<path fill-rule="evenodd" clip-rule="evenodd" d="M153.283 82.245C152.604 83.906 152.504 85.7474 153 87.472C153.387 87.2423 153.747 86.9689 154.071 86.6573C153.819 85.3989 154.002 84.0922 154.589 82.9512C155.241 83.2166 155.743 83.7537 155.965 84.4212C156.418 83.8129 156.574 83.0327 156.388 82.297C156.415 81.6993 155.73 81.8354 155.406 81.5908C155.516 81.0877 155.501 80.505 156.033 80.2212L154.399 80.3839C153.942 80.9491 153.566 81.5756 153.283 82.245Z" fill="white"/>
<path fill-rule="evenodd" clip-rule="evenodd" d="M156.644 86.94C156.713 87.0646 156.644 87.2862 156.78 87.3081C156.986 86.1669 157.911 85.4262 158.417 84.4235C158.659 84.0842 158.647 83.6077 159.04 83.3481C159.573 83.3481 159.953 83.73 160.472 83.7715C160.634 83.8869 160.387 84.0023 160.376 84.1362C160.156 85.0024 160.024 85.8883 159.981 86.7808H160.073C160.743 86.0287 161.328 85.2053 161.817 84.3254L161.91 83.5535C162.026 82.6304 161.025 82.0304 160.372 81.6496L160.957 80.9008L160.142 80.6146C159.186 80.6932 158.298 81.137 157.662 81.8539C156.924 83.4458 156.576 85.1904 156.647 86.9435L156.644 86.94Z" fill="white"/>
<path fill-rule="evenodd" clip-rule="evenodd" d="M160.308 78.87C160.619 78.9658 160.904 78.7073 161.216 78.8435C162.529 79.2048 163.732 79.8867 164.717 80.8281L165.833 83.6689L166.392 81.9162L166.024 80.9631C165.711 80.2835 164.853 80.3389 164.267 80.3112C164.023 80.0389 164.282 79.725 164.365 79.4689C164.647 78.5031 163.463 78.5562 162.989 78.165C163.019 77.5789 162.308 77.7831 161.914 77.7277L161.779 77.565C161.678 77.4485 161.502 77.4356 161.385 77.5362C161.357 77.4969 161.303 77.4693 161.333 77.4L161.03 77.4693C160.603 77.8124 160.342 78.3216 160.313 78.8689L160.308 78.87Z" fill="white"/>
<path fill-rule="evenodd" clip-rule="evenodd" d="M161.096 75.7442C161.139 75.9247 161.239 76.0866 161.381 76.2057C161.995 76.043 162.576 75.6288 163.286 75.8792C164.152 76.734 165.157 77.4361 166.257 77.9561L166.649 77.8869C166.895 77.9711 167.165 77.9826 167.33 78.2538C167.481 78.6219 167.099 78.84 166.977 79.1376C167.591 79.5865 167.345 80.3907 167.727 80.9307L168.708 79.6269C168.477 79.05 168.72 78.0761 167.822 78.0219C167.518 77.8768 167.326 77.5681 167.331 77.2315C166.748 76.7019 166.026 76.4723 165.439 75.9276C164.961 75.5457 164.678 74.9607 164.065 74.8257C163.631 74.6076 163.17 74.4522 162.693 74.3642C161.777 74.2338 161.692 75.3196 161.096 75.7442Z" fill="white"/>
<path fill-rule="evenodd" clip-rule="evenodd" d="M162.402 73.065L162.566 73.3235C163.245 73.2808 163.86 72.9831 164.527 72.9958C164.975 73.2692 165.566 73.2565 166.022 73.4861C166.365 74.0344 166.808 74.5141 167.327 74.9008C168.432 75.0623 169.042 76.2473 169.423 77.1127V76.6938C169.539 76.0868 169.458 75.4587 169.192 74.9008C168.92 74.6285 168.525 74.4496 168.24 74.2085C168.199 74.0693 168.214 73.9195 168.281 73.7908C167.798 73.3869 167.274 73.0361 166.716 72.7442C165.995 71.6965 164.606 71.9827 163.503 71.6965L162.4 73.0708L162.402 73.065Z" fill="white"/>
<path fill-rule="evenodd" clip-rule="evenodd" d="M162.385 63.0877C162.5 63.5111 162.653 64.0408 162.731 64.4884C163.113 63.6461 163.867 63.2677 164.531 62.5754C164.139 62.3384 163.705 62.1815 163.252 62.1138V62.0896C162.95 62.3827 162.487 62.6827 162.385 63.0877Z" fill="white"/>
<path fill-rule="evenodd" clip-rule="evenodd" d="M164.853 67.5612L165.465 66.9369C166.093 66.3712 166.519 65.6154 166.677 64.785C166.213 64.6026 165.693 64.627 165.248 64.8519C165.045 65.7423 164.912 66.6475 164.853 67.5589V67.5612Z" fill="white"/>
<path fill-rule="evenodd" clip-rule="evenodd" d="M165.3 69.48C166.179 69.6855 167.102 69.5854 167.916 69.1962L168.677 66.7454C168.443 66.6854 168.199 66.6717 167.96 66.705C167.405 67.8988 166.469 68.8747 165.3 69.48Z" fill="white"/>
<path fill-rule="evenodd" clip-rule="evenodd" d="M165.577 60.8077C166.209 61.8106 167.15 62.5802 168.259 63C168.143 61.8589 167.158 61.0685 166.653 60.0912L166.625 59.7647C166.243 59.4197 165.812 59.1349 165.344 58.92C165.327 59.5574 165.406 60.1937 165.577 60.8077Z" fill="white"/>
<path fill-rule="evenodd" clip-rule="evenodd" d="M168.896 69.5884C169.624 69.6878 170.365 69.6171 171.06 69.3819C172.028 69.1511 172.56 68.0919 172.885 67.2634H171.674L170.366 68.5384C169.846 68.8445 169.354 69.1955 168.896 69.5873V69.5884Z" fill="white"/>
<path fill-rule="evenodd" clip-rule="evenodd" d="M168.75 59.5662C168.969 60.6228 169.401 61.6236 170.02 62.5073L170.182 60.48L168.75 59.5662Z" fill="white"/>
<path fill-rule="evenodd" clip-rule="evenodd" d="M173.212 64.8565C173.197 64.1281 173.103 63.4035 172.932 62.6953C172.522 62.4219 171.949 62.4496 171.528 62.1796C171.697 63.2658 172.306 64.2343 173.212 64.8565Z" fill="white"/>
<path fill-rule="evenodd" clip-rule="evenodd" d="M171.973 71.7692C172.83 71.5156 173.659 71.1778 174.449 70.7607C174.952 70.0442 175.718 69.3865 175.823 68.5442C175.198 68.7207 174.652 68.5188 174.07 68.805C173.811 69.5071 173.38 70.1332 172.817 70.6257C172.708 71.0838 172.205 71.3988 171.973 71.7692Z" fill="white"/>
<path fill-rule="evenodd" clip-rule="evenodd" d="M173.306 73.4389L174.327 74.7704C174.895 74.9562 175.516 74.8868 176.029 74.58L175.661 73.3696C174.894 73.5909 174.084 73.6148 173.306 73.4389Z" fill="white"/>
<path fill-rule="evenodd" clip-rule="evenodd" d="M175.009 63.8077L175.403 65.6008C176.253 64.8073 176.671 63.654 176.525 62.5004C176.131 63.0498 175.611 63.4972 175.009 63.8054L175.009 63.8077Z" fill="white"/>
<path fill-rule="evenodd" clip-rule="evenodd" d="M177.69 66.9784C177.697 67.2319 177.777 67.478 177.921 67.6869C178.983 68.0665 179.091 69.3599 180.073 69.8469C180.734 70.0131 181.435 69.8947 182.005 69.5203C181.582 69.0415 181.103 68.7126 180.698 68.2142C180.412 68.0988 180.122 67.9153 180.14 67.5611L177.689 66.9842L177.69 66.9784Z" fill="white"/>
<path fill-rule="evenodd" clip-rule="evenodd" d="M178.538 73.3973C179.003 73.8924 179.614 74.2256 180.282 74.3481C180.175 74.1981 180.352 74.3481 180.378 74.2535L179.554 72.4615C179.145 72.4719 178.724 72.555 178.343 72.5285C178.371 72.8247 178.435 73.1165 178.533 73.3973H178.538Z" fill="white"/>
<path fill-rule="evenodd" clip-rule="evenodd" d="M179.977 65.0169C179.621 64.0752 179.402 63.0869 179.328 62.0826C178.919 62.5707 178.497 62.8903 178.116 63.3853C177.938 64.3938 179.377 64.6407 179.977 65.0169Z" fill="white"/>
<path fill-rule="evenodd" clip-rule="evenodd" d="M181.638 64.0962C182.128 64.7342 183.202 64.515 183.806 64.3269C183.517 63.8365 182.595 63.5504 182.43 63.0219C182.344 62.0999 182.147 61.1915 181.844 60.3162C181.369 61.47 180.794 62.8454 181.638 64.0962Z" fill="white"/>
<path fill-rule="evenodd" clip-rule="evenodd" d="M182.495 66.9785C183.858 67.9731 185.19 69.1269 187.097 68.7092C187.234 68.6135 187.465 68.6273 187.492 68.4519C186.933 68.0966 186.338 67.8254 185.762 67.5012L185.11 66.5481H184.811C184.056 66.7695 183.28 66.9152 182.496 66.9831L182.495 66.9785Z" fill="white"/>
<path fill-rule="evenodd" clip-rule="evenodd" d="M182.524 78.008H182.616C183.445 77.4436 184.381 77.0545 185.366 76.8646C185.625 76.9592 185.462 77.2453 185.692 77.3561C186.28 77.1103 186.987 77.1646 187.586 76.9603C188.236 76.9274 188.884 77.0488 189.478 77.3146C189.94 77.925 190.812 77.8592 191.413 78.2653L191.316 77.3146C190.047 75.8307 188.076 75.7223 186.254 75.7511L186.213 75.5596C185.753 75.5595 185.299 75.6574 184.88 75.8469C184.294 75.9362 183.721 76.1002 183.177 76.335C182.927 76.8793 182.709 77.438 182.524 78.008Z" fill="white"/>
<path fill-rule="evenodd" clip-rule="evenodd" d="M183.615 61.2946C184.093 62.0407 184.955 62.4478 185.834 62.3423C185.31 61.9666 184.946 61.4084 184.813 60.7777C184.95 59.5661 183.618 59.4727 182.96 58.845C183.051 59.6904 183.272 60.5167 183.615 61.2946Z" fill="white"/>
<path fill-rule="evenodd" clip-rule="evenodd" d="M183.478 80.4162H183.636C184.36 79.9639 185.408 80.3008 186.117 79.8289C186.512 79.6235 186.535 80.1681 186.809 80.3181C187.476 80.7266 187.557 81.9485 188.497 81.6658C189.626 82.2496 189.341 83.6273 189.381 84.6312L190.43 83.9781C190.334 83.4485 190.632 82.8058 190.292 82.3454C190.034 81.7685 189.327 81.7073 188.988 81.2308C189.396 80.5385 188.471 80.212 188.278 79.7077L188.333 79.6385L189.773 79.8289C190.207 80.1576 190.5 80.6389 190.593 81.1754C191.723 81.3658 191.996 82.6431 192.392 83.46C192.622 82.9027 192.717 82.3062 192.949 81.7616C192.963 81.3104 192.364 81.3104 192.065 81.1085C192.003 80.4007 191.636 79.7551 191.059 79.3408C189.864 78.8456 188.61 78.507 187.328 78.3335L186.184 78.6877C185.557 78.8377 184.89 78.6473 184.415 79.08C183.707 79.1343 183.652 79.912 183.478 80.4162Z" fill="white"/>
<path fill-rule="evenodd" clip-rule="evenodd" d="M184.192 74.8119L184.453 74.9273C185.009 74.6677 185.569 74.3688 186.155 74.1508C187.065 73.8923 187.77 74.9273 188.538 74.2742C188.823 74.0688 189.066 74.3688 189.285 74.5327C189.613 75.1304 190.375 75.0911 190.947 75.2538C190.662 74.4773 190.308 73.4169 189.313 73.2923C188.892 73.1893 188.478 73.0583 188.074 72.9C187.026 71.7461 186.343 73.8496 185.201 73.3338C184.731 73.7202 184.381 74.2331 184.192 74.8119Z" fill="white"/>
<path fill-rule="evenodd" clip-rule="evenodd" d="M184.457 81.4339C184.892 81.7985 185.339 82.4273 186.019 82.3443C186.867 82.7389 186.513 83.8523 186.975 84.4362L187.465 84L187.424 83.9735L187.493 83.9054L187.522 83.9458C187.601 83.3937 187.5 82.8309 187.234 82.3408C186.921 82.1262 186.553 82.3558 186.255 82.1504C186.186 81.7678 185.958 81.4324 185.628 81.2273C185.41 81.0647 185.123 81.2827 184.879 81.2677L184.458 81.4339H184.457Z" fill="white"/>
<path fill-rule="evenodd" clip-rule="evenodd" d="M186.154 64.8565C186.709 65.5563 187.393 66.1437 188.168 66.5873C188.778 66.8472 189.453 66.9137 190.102 66.7777C189.52 66.2967 188.982 65.7637 188.496 65.1854C188.306 64.9131 188.265 64.575 188.006 64.3292C187.353 64.3462 186.715 64.5288 186.153 64.86L186.154 64.8565Z" fill="white"/>
<path fill-rule="evenodd" clip-rule="evenodd" d="M186.91 59.9896C187.537 60.7627 188.503 60.4512 189.388 60.4777V60.3842L188.027 59.2396C187.611 59.4181 187.232 59.6724 186.91 59.9896Z" fill="white"/>
<path fill-rule="evenodd" clip-rule="evenodd" d="M161.849 47.1646L162.637 49.6153C162.622 48.2307 163.263 47.0769 163.128 45.6577L163.714 44.7865L162.473 45.1673C162.115 45.7762 161.901 46.4597 161.849 47.1646H161.849Z" fill="white"/>
<path fill-rule="evenodd" clip-rule="evenodd" d="M162.385 42.9231L163.46 42.2965V40.7042C163.063 41.0231 162.711 41.3941 162.413 41.8073L162.385 42.9231Z" fill="white"/>
<path fill-rule="evenodd" clip-rule="evenodd" d="M184.46 45.3981C184.206 45.6773 183.856 45.8517 183.48 45.8873C184.119 44.7648 184.262 43.4269 183.874 42.195C184.188 42.1144 184.494 42.0055 184.788 41.8696L184.758 41.8431L185.509 41.1854C186.502 40.5058 186.12 39.2135 186.488 38.25C185.999 37.4873 185.85 36.5631 185.141 35.9227L185.183 35.8973C184.623 35.19 183.615 35.2696 182.852 34.9165C181.845 34.5704 181.07 35.2696 180.349 35.7346C180.036 35.7877 180.233 36.1962 179.887 36.1823C179.668 36.7054 179.482 37.2414 179.329 37.7873C177.991 37.5336 176.607 37.7905 175.45 38.5073C174.851 38.1623 174.196 37.9278 173.515 37.815C173.025 37.7215 172.467 37.8981 172.115 37.6235C171.599 37.0465 171.486 35.9792 170.601 35.8304C170.29 35.7219 170.223 35.3827 170.223 35.0827C169.637 34.9881 169.117 34.7181 168.545 34.5923C167.677 34.1977 166.983 34.8231 166.328 35.2454C166.027 35.3338 165.732 35.4433 165.446 35.5731C164.938 36.3169 164.512 37.1139 164.177 37.95C164.292 38.6259 164.548 39.2702 164.928 39.8412C165.359 40.7354 166.119 41.428 167.05 41.7738C166.655 43.1837 166.655 44.6748 167.05 46.0846L167.027 46.0985L166.983 46.1354C166.856 46.1562 166.726 46.1434 166.605 46.0985H166.588C166.789 47.4048 167.422 48.6062 168.385 49.5115C168.74 49.6373 168.658 50.0573 168.809 50.3296C168.895 50.4774 168.919 50.6535 168.875 50.8188C166.874 50.749 164.893 51.2432 163.159 52.245C162.724 52.4631 162.915 53.0631 162.875 53.4831C164.058 52.6782 165.393 52.1234 166.798 51.8527C167.423 51.742 168.062 51.7326 168.69 51.825L168.76 52.995C167.144 53.8373 165.37 54.3277 163.978 55.7146C163.951 56.1389 163.975 56.5649 164.047 56.9838L165.287 55.9742C166.445 55.0562 167.734 54.3172 169.112 53.7819C169.452 54.2424 169.873 54.6383 170.353 54.9508C171.179 54.4212 172.084 54.0266 173.033 53.7819C173.539 53.4831 174.338 53.7542 174.666 53.1577L174.897 51.9185C174.855 51.8908 174.83 51.8388 174.761 51.8538C174.111 51.5156 173.718 50.8303 173.753 50.0988C173.529 50.2111 173.283 50.2755 173.032 50.2881C172.814 50.2338 172.615 50.1808 172.517 49.9615C172.502 49.6881 172.365 49.2819 172.632 49.0777C173.605 48.5941 174.704 48.4236 175.778 48.5896C176.608 48.6969 177.81 48.6554 178.086 49.6373C178.048 49.9223 178.072 50.235 177.787 50.4254C177.488 50.5881 177.148 50.4104 176.873 50.2904C176.728 51.0227 176.227 51.6347 175.538 51.9231L175.635 52.7135C175.729 53.0677 175.751 53.6504 176.316 53.5281C177.591 53.8926 178.796 54.4674 179.882 55.2288C180.235 54.8545 180.553 54.449 180.833 54.0173C182.846 54.871 184.684 56.0878 186.257 57.6069L186.326 56.4658C184.79 55.1353 183.047 54.065 181.166 53.2973C181.25 52.9308 181.304 52.558 181.328 52.1827C183.446 52.3096 185.503 52.9393 187.328 54.0196L187.308 53.0412C185.416 51.9806 183.295 51.3969 181.128 51.3404C181.052 51.2134 181.019 51.0653 181.034 50.9181C182.11 50.6068 182.927 49.7281 183.16 48.6323C183.716 47.9942 184.521 47.2996 184.331 46.35C184.356 46.2727 184.383 46.1885 184.41 46.1065C184.503 45.8819 184.52 45.6334 184.46 45.3981Z" fill="white"/>
<path fill-rule="evenodd" clip-rule="evenodd" d="M186.353 48.893L187.469 48.5376L187.585 47.9134C187.901 47.0019 187.238 46.3223 186.904 45.6057L186.349 48.8988L186.353 48.893Z" fill="white"/>
<path fill-rule="evenodd" clip-rule="evenodd" d="M189.168 53.2038C189.7 53.7865 190.218 54.7269 191.158 54.4395C191.053 54.0676 190.911 53.7069 190.735 53.363C190.488 53.0757 190.408 52.2611 189.918 52.5484C189.55 52.3026 189.456 51.8907 189.225 51.5676C189.161 52.1105 189.142 52.6577 189.168 53.2038Z" fill="white"/>
<path fill-rule="evenodd" clip-rule="evenodd" d="M189.36 57.188C189.566 57.4754 189.621 57.8457 189.822 58.1007C190.247 58.2984 190.724 58.3554 191.183 58.2634C191.592 58.1688 191.85 58.6165 192.232 58.3557C191.757 58.0569 191.472 57.5134 191.02 57.1211C190.488 56.6977 189.921 57.0646 189.36 57.188Z" fill="white"/>
<path fill-rule="evenodd" clip-rule="evenodd" d="M190.083 63.5112C191.073 64.1942 192.268 64.5164 193.468 64.4239C193.603 64.3535 193.836 64.3673 193.863 64.2035C193.085 63.93 192.273 63.1558 191.458 62.9931C191.007 62.3008 190.42 63.172 189.851 63.1154C189.863 63.2793 190.026 63.4039 190.083 63.5112Z" fill="white"/>
<path fill-rule="evenodd" clip-rule="evenodd" d="M192.91 75.517L193.115 75.9554C193.319 77.37 194.216 78.6739 193.725 80.2247C194.134 80.5097 194.258 80.985 194.515 81.3658H194.584C194.8 80.1762 194.776 78.9554 194.515 77.775C194.643 76.6997 193.55 76.0743 192.91 75.517Z" fill="white"/>
<path fill-rule="evenodd" clip-rule="evenodd" d="M193.148 61.5923C193.935 62.1042 194.914 62.2251 195.802 61.92C195.264 61.6496 194.757 61.3211 194.291 60.9404L193.148 61.5923Z" fill="white"/>
<path fill-rule="evenodd" clip-rule="evenodd" d="M196.504 65.7692C196.48 66.3123 196.757 66.8244 197.225 67.1019C197.424 66.7949 197.566 66.4544 197.644 66.0969C197.517 65.4894 197.168 64.9511 196.665 64.5876C196.541 64.9686 196.487 65.3688 196.504 65.7692Z" fill="white"/>
<path fill-rule="evenodd" clip-rule="evenodd" d="M196.547 71.9677C196.451 72.6058 197.157 72.69 197.457 73.0431C197.703 73.3419 197.293 73.5462 197.293 73.8312C197.82 74.4848 198.109 75.299 198.11 76.1388C198.366 75.326 198.577 74.4993 198.74 73.6627C198.685 73.065 197.733 73.1838 197.882 72.5215C198.033 71.8606 197.951 71.1678 197.651 70.56C197.595 70.4631 197.472 70.2715 197.368 70.3292C197.115 70.8946 196.504 71.2881 196.547 71.9677Z" fill="white"/>
<path fill-rule="evenodd" clip-rule="evenodd" d="M198.411 68.7312L199.117 70.1066C199.432 70.0685 199.633 69.7604 199.879 69.5504C200.072 68.9735 199.566 68.6112 199.417 68.1485C199.293 67.822 199.417 67.387 199.187 67.1008C199.011 66.9935 198.805 66.8158 198.602 66.87L198.413 68.7335L198.411 68.7312Z" fill="white"/>
<path fill-rule="evenodd" clip-rule="evenodd" d="M199.322 65.1162C199.937 65.4498 200.453 65.9418 200.816 66.5412C201.293 67.9258 202.056 69.1812 202.613 70.5266C202.819 71.4647 202.982 72.3024 203.24 73.2266C203.337 73.4666 203.282 73.9443 203.665 73.9062C203.772 72.8677 203.977 71.88 203.99 70.8058C203.646 70.4288 203.236 70.1193 202.778 69.8931V69.7985C202.834 69.5677 203.024 69.2954 203.31 69.337C203.426 69.1974 203.8 69.0635 203.638 68.82C202.93 68.1139 202.97 66.8943 201.838 66.675C201.495 66.4852 201.29 66.116 201.311 65.7243C200.732 65.3095 200.033 65.0959 199.322 65.1162Z" fill="white"/>
<path fill-rule="evenodd" clip-rule="evenodd" d="M199.973 72.4881C200.666 73.1238 200.426 74.0504 200.369 74.9111C200.261 75.4281 200.914 75.1292 201.119 75.4004C201.414 76.1084 201.424 76.9034 201.145 77.6181C201.544 77.0926 201.903 76.5379 202.22 75.9588C202.206 75.7281 202.504 75.6127 202.493 75.3334C202.609 74.9388 202.153 75.1154 201.963 75.0715C201.8 75.0311 201.622 74.9227 201.674 74.7057C201.885 73.9894 201.847 73.2228 201.567 72.5307C201.404 71.9711 201.637 71.2257 201.377 70.7377C200.942 71.3354 199.646 71.4727 199.973 72.4927V72.4881Z" fill="white"/>
<path fill-rule="evenodd" clip-rule="evenodd" d="M201.24 62.8292C202.453 64.0534 203.338 65.2834 204.647 66.4672C204.652 65.9541 204.629 65.441 204.578 64.9303C204.351 64.5807 204.065 64.2728 203.733 64.0199C202.769 63.923 202.262 62.6261 201.24 62.8292Z" fill="white"/>
<path fill-rule="evenodd" clip-rule="evenodd" d="M204.413 69.3116C204.448 69.4331 204.493 69.5513 204.548 69.6646C205.092 70.5252 205.562 71.4304 205.953 72.3704C205.843 71.3654 206.53 70.1123 205.625 69.3393C205.51 69.0116 205.094 69.1212 204.835 69.1477L204.413 69.3116Z" fill="white"/>
<path fill-rule="evenodd" clip-rule="evenodd" d="M207.68 79.2462C208.063 79.4192 208.551 79.1065 208.919 78.8908C209.242 78.8518 209.566 78.9559 209.805 79.1758C209.913 79.3927 209.805 79.5946 209.843 79.8012C210.672 80.0139 211.462 80.3533 212.187 80.8073L212.418 80.5765C212.39 80.0157 212.07 79.5103 211.575 79.245C211.29 79.0777 210.865 79.1746 210.664 78.915C210.778 78.669 210.818 78.3953 210.779 78.1269C210.384 78.1223 209.999 77.9989 209.675 77.7727C209.444 77.7058 209.24 77.5154 209.05 77.7727C208.37 78.2342 208.332 78.915 207.674 79.245L207.68 79.2462Z" fill="white"/>
<path fill-rule="evenodd" clip-rule="evenodd" d="M208.634 62.1323C208.989 62.0613 209.324 61.9127 209.615 61.6973C210.524 60.8665 211.845 61.4238 212.907 61.4111C212.689 61.0407 212.439 60.6901 212.159 60.3634C211.794 60.1792 211.396 60.0679 210.988 60.0357C210.065 59.4946 209.437 60.4038 208.728 60.8515C208.509 61.2438 208.475 61.7124 208.634 62.1323Z" fill="white"/>
<path fill-rule="evenodd" clip-rule="evenodd" d="M208.661 64.9303C208.661 64.8922 208.661 64.8484 208.701 64.8369C208.817 64.9465 208.686 65.2026 208.892 65.2557C209.244 65.0655 209.58 64.8483 209.899 64.6061C210.812 64.6061 211.356 63.7222 212.252 63.7222C213.744 63.9151 215.193 64.3558 216.54 65.0261C216.355 64.1154 215.751 63.3455 214.91 62.9492C214.514 62.8529 214.096 62.9782 213.818 63.2769C212.905 63.8538 213.383 62.4484 212.743 62.4196C211.911 62.7449 211.024 62.9018 210.131 62.8811C209.585 63.083 209.202 63.5838 208.592 63.5319C208.518 63.9981 208.541 64.4746 208.66 64.9315L208.661 64.9303Z" fill="white"/>
<path fill-rule="evenodd" clip-rule="evenodd" d="M209.285 67.9615C209.569 68.2603 210.045 68.2038 210.457 68.2603L211.639 67.7988C211.654 67.5807 211.286 67.523 211.365 67.283C211.693 66.915 212.143 67.1677 212.55 67.0211C213.127 66.9403 213.704 66.3703 214.281 66.7903C214.268 66.8573 214.31 66.9542 214.257 67.0211C214.077 67.4434 214.372 67.7007 214.705 67.8634C215.373 67.988 215.998 68.6007 216.666 68.325C216.585 67.7825 216.467 67.2462 216.312 66.72C215.755 66.6242 215.361 66.1627 214.842 65.9711C214.63 66.1972 214.335 66.3255 214.025 66.3253C212.976 66.0807 211.724 65.4288 210.664 66.0946C210.281 66.5561 209.6 66.42 209.084 66.6219C209.1 67.0746 209.167 67.5241 209.285 67.9615Z" fill="white"/>
<path fill-rule="evenodd" clip-rule="evenodd" d="M209.735 76.0476C209.652 76.2784 209.423 76.6603 209.843 76.7676C210.716 76.7976 211.832 76.3499 212.515 77.0273C212.745 77.2061 212.63 77.5707 212.622 77.8038L213.763 78.7569C213.922 78.2003 214.032 77.6308 214.091 77.0549C214.006 76.603 213.76 76.1972 213.398 75.9126C212.647 75.9126 212.211 75.0357 211.408 75.1476C210.99 75.0507 210.621 75.4246 210.197 75.4246C210.032 75.6242 209.878 75.8326 209.735 76.0488V76.0476Z" fill="white"/>
<path fill-rule="evenodd" clip-rule="evenodd" d="M210.063 69.638C210.238 70.0027 210.445 70.6027 210.784 70.6442C211.682 70.2141 212.711 70.1467 213.657 70.4561C213.956 70.5103 213.956 70.8496 213.888 71.0688C214.349 71.3411 214.909 71.5569 215.397 71.8569L215.262 71.0423C215.233 70.1573 214.117 70.0742 214.049 69.2019C213.115 68.8848 212.113 68.8289 211.15 69.0403C210.835 69.3277 210.388 69.2861 210.005 69.3692C209.983 69.4742 210.048 69.54 210.063 69.638Z" fill="white"/>
<path fill-rule="evenodd" clip-rule="evenodd" d="M210.296 74.0423C210.827 73.8923 211.163 73.3073 211.737 73.2542C212.606 73.2443 213.425 73.6607 213.929 74.3688C214.259 74.5858 214.189 75.1465 214.61 75.1465C214.586 74.4919 214.609 73.8363 214.679 73.185C214.102 72.2342 212.693 72.9669 212.162 71.8523L211.155 71.9192C210.433 72.0992 210.626 72.9404 210.527 73.5115C210.445 73.6904 210.282 73.8242 210.296 74.0423Z" fill="white"/>
<path fill-rule="evenodd" clip-rule="evenodd" d="M215.287 79.9916C215.711 80.8339 216.64 81.4754 216.732 82.4423C216.935 82.1807 217.108 81.8979 217.25 81.5989C217.236 81.3266 216.921 81.3266 216.798 81.1096C216.682 80.7566 216.868 80.4439 216.921 80.1289C216.711 79.5976 216.333 79.1493 215.846 78.8516L215.287 79.9916Z" fill="white"/>
<path fill-rule="evenodd" clip-rule="evenodd" d="M216.962 77.8442L217.94 79.1757C218.319 78.4172 218.411 77.5471 218.198 76.7261C218.105 76.5761 217.926 76.3315 217.682 76.4411C217.312 76.823 217.259 77.4057 216.965 77.843L216.962 77.8442Z" fill="white"/>
<path fill-rule="evenodd" clip-rule="evenodd" d="M212.975 40.6154C213.317 40.8138 213.697 40.9384 214.091 40.9812C214.396 40.8059 214.755 40.748 215.1 40.8185C215.603 41.1462 216.216 40.7504 216.799 40.7781C216.294 40.3319 215.72 39.9699 215.1 39.7062C214.337 39.8723 213.731 40.4135 212.975 40.6154Z" fill="white"/>
<path fill-rule="evenodd" clip-rule="evenodd" d="M218.3 41.8985C219.018 41.9654 219.537 42.6035 220.031 43.1377C220.617 43.2734 221.131 43.6222 221.474 44.1162L221.243 43.3939C221.034 42.7029 220.666 42.0705 220.168 41.5477C219.529 41.5506 218.896 41.6694 218.3 41.8985Z" fill="white"/>
<path fill-rule="evenodd" clip-rule="evenodd" d="M167.496 35.9308L167.89 35.9712C168.953 36.5019 170.668 36.7789 170.763 38.31C169.655 38.7156 168.645 39.3501 167.798 40.1723C167.145 39.5054 165.823 39.8735 165.606 38.7046C165.812 37.6027 166.204 36.2181 167.496 35.9308Z" fill="#FF6600"/>
<path fill-rule="evenodd" clip-rule="evenodd" d="M168.52 42.8272C169.757 42.7199 170.954 42.893 172.236 42.7869C172.573 42.9307 172.852 43.185 173.025 43.508C172.984 44.9746 172.534 46.3765 172.466 47.8857C171.871 48.102 171.412 48.586 171.229 49.1919C170.731 49.3817 170.248 49.6085 169.784 49.8703C169.546 49.3627 169.626 48.7622 169.991 48.3357C170.52 47.5857 171.896 47.7588 171.784 46.5807C172.138 46.0038 171.798 45.2746 171.813 44.6757C171.675 44.228 171.54 44.8257 171.322 44.8107C170.902 44.9374 170.45 44.9045 170.053 44.7184C169.766 44.4149 169.413 44.1726 169.331 43.7642C168.907 43.5819 168.551 43.2727 168.311 42.8792L168.52 42.8272Z" fill="#FF6600"/>
<path fill-rule="evenodd" clip-rule="evenodd" d="M170.018 51.6922C170.595 51.773 171.214 51.5134 171.719 51.8007C171.559 51.984 171.336 52.1005 171.094 52.1272L170.181 52.5496C169.838 52.4665 170.03 51.923 170.018 51.6922Z" fill="#FF6600"/>
<path fill-rule="evenodd" clip-rule="evenodd" d="M172.399 40.3373C172.983 40.1457 173.61 39.7546 174.237 39.9438C173.798 40.4249 173.415 40.9536 173.095 41.52L171.23 41.4807C171.488 40.9848 171.897 40.5842 172.399 40.3373Z" fill="#FF6600"/>
<path fill-rule="evenodd" clip-rule="evenodd" d="M177.859 39.8897C178.632 39.7547 178.592 40.7597 179.3 40.8024C179.423 40.965 179.599 41.1127 179.531 41.3562C179.045 41.4506 178.554 41.5145 178.06 41.5477C177.447 41.2016 177.844 40.1458 176.876 40.215C176.823 40.1354 176.712 39.9704 176.849 39.9162C177.18 39.8342 177.524 39.8251 177.859 39.8897Z" fill="#FF6600"/>
<path fill-rule="evenodd" clip-rule="evenodd" d="M177.37 43.5346C177.715 43.1534 178.202 42.9317 178.716 42.9219L182.243 42.99C182.393 43.125 182.108 43.2473 182.108 43.4088C181.889 43.6119 181.575 43.6673 181.385 43.8588C180.923 43.8738 180.962 44.4138 180.636 44.6457C180.131 45.15 179.398 44.9203 178.812 44.8373C178.587 44.6909 178.405 44.489 178.281 44.2511L178.117 44.4138C178.323 45.1765 178.267 46.0211 178.416 46.7942L179.261 47.3538C179.275 48.6046 180.746 48.2642 181.385 48.9588C181.206 49.4078 180.944 49.8189 180.612 50.1703C180.121 49.6953 179.53 49.3371 178.881 49.1226C178.827 48.3865 178.024 47.9538 177.574 47.5846C177.458 46.2519 177.424 44.895 177.208 43.6003L177.37 43.5346Z" fill="#FF6600"/>
<path fill-rule="evenodd" clip-rule="evenodd" d="M178.647 51.9231H180.282L180.077 52.7815L178.442 52.0892C178.405 51.9508 178.551 51.9104 178.647 51.9231Z" fill="#FF6600"/>
<path fill-rule="evenodd" clip-rule="evenodd" d="M181.587 36.518L182.798 36.1361C183.497 36.4709 184.162 36.8712 184.785 37.3315C185.217 38.3468 185.284 39.48 184.976 40.5392C184.608 40.95 183.806 40.5392 183.507 41.1923H183.452C182.873 39.8738 181.838 38.8085 180.537 38.1923C180.645 37.5164 181.024 36.9136 181.586 36.5226L181.587 36.518Z" fill="#FF6600"/>
<path fill-rule="evenodd" clip-rule="evenodd" d="M209.98 88.3269H217.243C218.339 88.344 219.413 88.0216 220.318 87.4038C223.886 87.9533 227.529 87.1173 230.501 85.0673C232.002 83.8657 233.334 82.4665 234.46 80.9077C235.413 79.6543 236.163 78.2583 236.682 76.7711C237.051 75.8259 237.345 74.8528 237.56 73.8611C238.507 69.0311 238.148 64.0361 236.522 59.3908C236.236 58.5585 235.918 57.7573 235.566 56.9873C233.648 53.0285 231.042 48.7592 227.018 46.2565C224.703 44.784 222.775 42.7785 221.393 40.4077C220.701 39.78 220.031 38.9515 219.133 38.8015C219.412 39.1837 219.611 39.6181 219.719 40.0788L219.665 40.1481C218.762 40.1198 217.91 39.7233 217.308 39.0508L218.031 38.4C217.747 38.2788 217.45 38.1924 217.145 38.1427C214.397 37.83 212.136 39.0935 209.7 39.7061L209.66 39.8411C211.154 40.5069 211.467 42.1488 212.34 43.2692C212.558 43.0096 212.927 43.2 213.225 43.1711C213.659 43.2 214.069 43.5173 214.489 43.4019C214.449 43.0662 214.362 42.7377 214.232 42.4258C214.513 42.3554 214.808 42.3554 215.09 42.4258C215.878 42.8873 217.145 42.3415 217.635 43.4019C216.762 43.4745 215.896 43.6247 215.05 43.8508C215.103 44.1911 215.443 44.4635 215.417 44.8038C214.685 44.5035 213.915 44.3066 213.128 44.2188L213.092 44.3342C214.122 45.4678 215.46 46.2768 216.942 46.6627C218.997 47.1369 220.807 46.1596 222.792 46.5C227.669 48.7304 231.832 53.8315 233.645 58.6731C233.734 58.9038 233.819 59.1388 233.899 59.3781C235.512 64.0518 235.612 69.1146 234.185 73.8484C233.458 75.7803 232.4 77.5705 231.058 79.1388C230.531 79.7897 229.932 80.3785 229.272 80.8938C227.282 82.5436 224.617 83.1302 222.118 82.4688C221.955 82.3627 221.627 82.3338 221.68 82.0511C221.771 81.6727 221.86 81.2861 221.93 80.8973C222.378 78.6406 222.552 76.3383 222.449 74.04C222.449 73.9396 222.442 73.8392 222.438 73.7411C222.33 70.532 221.632 67.3701 220.379 64.4135C219.561 62.6142 218.579 60.8939 217.446 59.2742C216.113 57.2712 214.215 55.7091 211.993 54.7858C210.608 54.4177 208.886 54.3508 207.839 55.5069C207.115 56.1232 206.754 57.0661 206.883 58.0084C205.699 58.7461 204.351 59.1819 202.96 59.2777C202.613 59.3077 202.249 59.4346 201.884 59.4323C201.545 59.4485 201.205 59.4346 200.868 59.3908C199.101 59.0983 197.444 58.3377 196.071 57.1881C196.043 56.4842 196.002 55.8127 195.975 55.0685C195.178 54.6866 194.633 53.9209 194.534 53.0423L194.605 52.9731C195.029 53.1204 195.434 53.3172 195.813 53.5592C195.693 52.5022 195.384 51.4752 194.902 50.5269C194.412 50.3215 193.918 50.16 193.458 49.9131C192.937 49.5407 192.594 48.97 192.508 48.3358C192.982 48.7973 193.813 48.6346 194.181 49.1261C193.543 47.235 193.528 45.0738 192.479 43.3454C191.948 42.0669 190.559 41.4831 189.606 40.5427C189.238 40.095 189.09 39.4708 188.422 39.4004C187.879 39.2654 187.836 38.6515 187.742 38.2604C188.082 38.2985 188.367 38.5315 188.655 38.5846C187.864 36.4892 187.169 34.1665 185.033 32.8338L184.665 33.0646C183.821 33.1811 182.971 33.2493 182.119 33.2688C182.532 32.7972 183.063 32.4446 183.658 32.2477C183.116 31.8579 182.478 31.623 181.812 31.5681C181.297 31.9778 180.683 32.2455 180.033 32.3446L179.966 32.2927C179.951 31.8046 179.838 31.2023 180.574 31.0823C179.728 30.81 178.819 30.81 177.973 31.0823C177.768 31.6131 177.187 32.0873 177.225 32.7127C176.877 33.1873 176.491 33.6334 176.072 34.0465C176.164 33.0598 176.374 32.0876 176.696 31.1504C176.083 31.3811 175.46 31.7054 174.862 31.9938C173.892 31.4141 172.883 30.9006 171.844 30.4569C171.748 30.4154 171.545 30.3738 171.583 30.5504C172.468 31.1896 172.127 32.385 172.221 33.3L171.663 32.8385C171.39 32.1461 170.603 31.6442 170.467 30.8769C169.646 31.043 168.848 31.3084 168.09 31.6673L167.975 31.7342C168.611 31.7992 169.173 32.1758 169.475 32.7392C168.54 32.6731 167.612 32.5331 166.7 32.3204C166.604 32.2246 166.523 32.1161 166.371 32.13C165.896 32.3452 165.456 32.6299 165.065 32.9746C164.064 33.8476 163.265 34.9285 162.725 36.1419C163.052 36.1446 163.373 36.2236 163.664 36.3727C163.148 36.6854 162.698 37.215 162.193 37.515C162.06 38.2695 161.996 39.0346 162.003 39.8008C161.547 40.3556 161.15 40.9565 160.819 41.5938C160.011 44.4757 159.694 47.4729 159.88 50.46C159.607 50.7173 159.252 50.8846 158.996 51.0865L159.023 53.8558H159.09C159.215 53.2708 159.91 52.9442 160.33 52.5508H160.467C160.4 53.1761 160.317 53.8004 160.304 54.4419L159.514 55.0938C158.727 55.7861 159.398 56.8315 159.323 57.7015C159.38 57.9323 159.418 58.2785 159.585 58.3304C159.734 58.0093 159.928 57.7116 160.162 57.4465C160.503 57.3623 160.8 57.0923 161.114 57.0508C160.937 57.7327 160.709 58.4007 160.433 59.0492C160.283 59.1474 160.144 59.2616 160.018 59.3896C159.878 59.5269 159.783 59.7029 159.743 59.895C160.385 63.1042 161.284 66.2567 162.431 69.3219C161.681 70.5842 161.257 72.075 160.633 73.3811C160.544 73.5646 160.465 73.7492 160.388 73.9396C159.763 75.5227 159.573 77.2858 158.794 78.8088C158.479 78.5962 158.142 78.4179 157.789 78.2769C156.307 77.7564 154.659 78.1259 153.542 79.2288C152.617 79.0382 151.655 79.2131 150.857 79.7169C150.337 80.088 149.927 80.5911 149.668 81.1742C149.502 81.5839 149.43 82.0254 149.457 82.4665C148.89 82.8963 148.487 83.507 148.316 84.1973C148.088 85.6615 148.478 87.1545 149.391 88.3211L209.98 88.3269Z" fill="white"/>
<path fill-rule="evenodd" clip-rule="evenodd" d="M236.519 59.3895C236.234 58.5565 235.915 57.7549 235.564 56.9849C233.646 53.0261 231.04 48.758 227.016 46.2542C224.701 44.7817 222.772 42.7761 221.391 40.4053C220.699 39.7776 220.028 38.9492 219.131 38.8003C219.41 39.1823 219.609 39.6168 219.717 40.0776L219.663 40.1457C218.762 40.1184 217.911 39.7241 217.308 39.0542L218.031 38.4022C217.747 38.281 217.45 38.1946 217.145 38.1449C214.397 37.8334 212.136 39.0957 209.7 39.7084L209.66 39.8434C211.154 40.5092 211.467 42.1511 212.34 43.2726C212.558 43.0119 212.927 43.2022 213.225 43.1745C213.659 43.2022 214.069 43.5207 214.489 43.4053C214.448 43.0696 214.362 42.7412 214.232 42.4292C214.513 42.3588 214.808 42.3588 215.09 42.4292C215.878 42.8907 217.145 42.3449 217.635 43.4053C216.762 43.4783 215.896 43.6289 215.05 43.8553C215.103 44.1945 215.443 44.468 215.417 44.8072C214.685 44.5074 213.915 44.3106 213.128 44.2222L213.092 44.3376C214.121 45.4715 215.459 46.2803 216.942 46.6649C218.997 47.1438 220.807 46.163 222.792 46.5022C227.669 48.7326 231.832 53.8349 233.645 58.6765C233.734 58.9072 233.819 59.1422 233.899 59.3815C235.511 64.0548 235.611 69.1172 234.185 73.8507C233.458 75.7826 232.4 77.5732 231.059 79.1422C230.532 79.7929 229.933 80.3816 229.273 80.8972C227.282 82.5461 224.618 83.1326 222.119 82.4722C221.958 82.3661 221.628 82.3372 221.681 82.0546C221.772 81.6761 221.861 81.2896 221.931 80.9007C222.379 78.6429 222.553 76.3394 222.45 74.0399C222.45 73.9395 222.443 73.8392 222.439 73.7411C222.331 70.5319 221.633 67.37 220.38 64.4134C219.562 62.6137 218.58 60.893 217.447 59.273C216.113 57.2706 214.216 55.7086 211.994 54.7845C210.61 54.4165 208.887 54.3495 207.84 55.5069C207.116 56.1232 206.755 57.066 206.884 58.0084C205.7 58.7466 204.353 59.1825 202.961 59.2776C202.615 59.3088 202.25 59.4345 201.885 59.4334C201.546 59.449 201.206 59.4351 200.869 59.3919C199.102 59.099 197.446 58.338 196.072 57.188C196.045 56.4853 196.003 55.8138 195.977 55.0695C195.179 54.6871 194.634 53.9211 194.535 53.0422L194.606 52.9742C195.03 53.1215 195.436 53.3183 195.814 53.5603C195.694 52.503 195.385 51.4757 194.903 50.5269C194.413 50.3226 193.919 50.1611 193.459 49.9142C192.938 49.5414 192.595 48.9703 192.509 48.3357C192.983 48.7972 193.814 48.6345 194.182 49.1272C193.544 47.2361 193.529 45.0738 192.48 43.3465C191.95 42.068 190.56 41.4842 189.607 40.5426C189.239 40.0961 189.092 39.4707 188.423 39.4015C187.88 39.2653 187.837 38.6526 187.743 38.2603C188.083 38.2995 188.368 38.5326 188.657 38.5857C187.865 36.4903 187.17 34.1665 185.035 32.8349L184.667 33.0657C183.822 33.1822 182.972 33.2504 182.12 33.2699C182.532 32.7979 183.064 32.4453 183.659 32.2488C183.117 31.8585 182.479 31.6235 181.813 31.5692C181.298 31.9787 180.684 32.2464 180.034 32.3457L179.967 32.2938C179.952 31.8045 179.839 31.2034 180.575 31.0834C179.73 30.81 178.82 30.81 177.974 31.0834C177.769 31.613 177.188 32.0884 177.227 32.7138C176.878 33.1887 176.493 33.6348 176.073 34.0476C176.165 33.0609 176.375 32.0887 176.697 31.1515C176.084 31.3822 175.461 31.7065 174.863 31.9938C173.893 31.4144 172.885 30.9013 171.845 30.458C171.749 30.4165 171.546 30.3749 171.584 30.5515C172.469 31.1907 172.128 32.3861 172.222 33.2999L171.664 32.8384C171.392 32.1461 170.605 31.643 170.468 30.8769C169.647 31.044 168.849 31.3094 168.092 31.6672L167.976 31.7342C168.612 31.7995 169.174 32.1766 169.476 32.7403C168.542 32.6731 167.614 32.5331 166.701 32.3215C166.605 32.2257 166.525 32.1161 166.372 32.1311C165.897 32.3459 165.457 32.6306 165.066 32.9757C164.065 33.8485 163.266 34.9294 162.726 36.143C163.053 36.1462 163.374 36.2252 163.665 36.3738C163.15 36.6865 162.7 37.2172 162.194 37.5161C162.061 38.271 161.997 39.0365 162.004 39.803C161.547 40.3573 161.15 40.9584 160.82 41.5961C160.012 44.4779 159.694 47.4751 159.881 50.4622C159.608 50.7195 159.253 50.8869 158.997 51.0888L159.025 53.858H159.092C159.216 53.273 159.911 52.9465 160.331 52.553H160.468C160.401 53.1772 160.318 53.8026 160.305 54.443L159.527 55.0915C158.74 55.7838 159.411 56.8292 159.335 57.6992C159.393 57.9299 159.431 58.2761 159.597 58.3269C159.745 58.0061 159.94 57.7087 160.174 57.4442C160.52 57.3599 160.812 57.0888 161.126 57.0484C160.948 57.7304 160.721 58.3983 160.445 59.0469C160.295 59.1444 160.155 59.2581 160.03 59.3861C159.89 59.5236 159.794 59.6995 159.755 59.8915C160.392 63.1028 161.287 66.2577 162.431 69.3253C161.681 70.5888 161.257 72.0796 160.633 73.3857C160.544 73.568 160.465 73.7526 160.388 73.943C159.763 75.5261 159.573 77.2892 158.794 78.8122C158.479 78.6 158.142 78.4221 157.789 78.2815C156.308 77.7601 154.659 78.1292 153.542 79.2322C152.617 79.0421 151.655 79.217 150.857 79.7203C150.338 80.0917 149.928 80.5948 149.668 81.1776C149.502 81.5873 149.43 82.0288 149.457 82.4699C148.891 82.9004 148.488 83.5108 148.316 84.2007C148.087 85.6657 148.477 87.1597 149.391 88.3269H173.447C173.081 87.861 172.769 87.355 172.518 86.8188C172.003 86.0422 172.357 84.9415 172.301 84.0438C172.791 83.0549 173.29 82.0615 173.849 81.0957C173.965 80.9007 174.08 80.7103 174.195 80.5188L175.3 80.0999C175.885 80.0999 176.376 79.6822 176.933 79.8276C177.682 80.5776 177.682 79.0799 178.406 79.0119C180.093 78.7949 181.767 78.9565 182.719 80.3872C182.719 80.5765 183.021 80.5765 182.95 80.7542C182.732 80.8199 182.526 80.6838 182.298 80.6838C181.259 80.4276 180.049 79.7722 179.03 80.3572C178.991 80.6019 178.938 80.8499 178.888 81.0945C178.837 81.3451 178.798 81.5982 178.773 81.8526C179.442 82.0908 180.038 82.4982 180.503 83.0353C180.896 82.4348 181.507 82.0106 182.207 81.8526C182.78 81.8949 183.338 82.0618 183.84 82.3419C184.699 83.1334 184.275 84.4788 184.196 85.4838C184.972 85.9176 185.828 86.1657 186.619 86.5857C186.227 86.8756 185.785 87.0886 185.314 87.2134L184.008 86.9526C183.858 86.8453 183.597 86.8453 183.546 86.6538C183.05 87.1448 182.633 87.7091 182.308 88.3269H200.955C200.71 87.7993 200.419 87.2946 200.084 86.8188C199.823 85.909 199.731 84.9591 199.812 84.0161L201.555 81.3622C202.567 81.2025 203.592 81.1391 204.617 81.173C204.669 81.1502 204.719 81.1232 204.767 81.0922C205.196 80.7934 205.327 80.108 205.962 80.1957C206.979 80.003 208.03 80.2676 208.835 80.9192C208.811 80.9808 208.782 81.0406 208.748 81.098C208.39 81.6749 207.717 81.0311 207.227 81.2042C207.021 81.4222 207.322 81.683 207.362 81.9265C207.542 82.1688 207.183 82.1411 207.063 82.1838C206.765 82.2358 206.46 82.1398 206.246 81.9265C206.192 81.8561 206.232 81.7765 206.13 81.7638C205.831 82.1336 205.597 82.552 205.438 83.0007C205.794 83.2662 206.095 83.5995 206.322 83.9815C206.635 84.4303 206.076 84.7684 205.969 85.1642C205.953 85.1921 205.927 85.2123 205.896 85.22C205.865 85.2276 205.832 85.222 205.805 85.2045C205.788 85.1948 205.774 85.1809 205.763 85.1642C205.475 85.0015 205.233 84.5872 204.919 84.7026C204.644 85.9142 205.013 87.1257 204.85 88.3349C205.426 88.3835 206.004 88.3835 206.58 88.3349L206.811 85.778C207.154 84.1335 207.984 82.6305 209.194 81.4649C210.442 80.6122 211.249 82.2969 212.172 82.8819C212.324 82.9095 212.27 83.0722 212.336 83.1669C212.322 83.4392 212.037 83.5476 211.847 83.6284C211.27 83.8303 210.852 83.2049 210.499 82.8369C210.16 83.2049 210.008 83.693 209.614 83.9803L209.749 84.0196C210.227 84.4129 210.571 84.9457 210.733 85.5438C210.695 86.0997 210.389 86.6024 209.913 86.8915C209.558 86.2629 209.255 85.6069 209.005 84.9299C209.017 84.9588 208.988 84.9715 208.962 84.9992C208.212 85.2011 208.012 86.0446 207.887 86.7299C207.927 87.3969 207.425 87.6692 207.558 88.3349H217.266C218.362 88.3525 219.436 88.03 220.341 87.4119C223.912 87.9589 227.557 87.1183 230.527 85.0626C232.029 83.8614 233.361 82.4621 234.486 80.903C235.44 79.65 236.19 78.2544 236.71 76.7676C237.078 75.8217 237.371 74.8483 237.587 73.8565C238.523 69.025 238.155 64.0312 236.519 59.3895Z" fill="#FF6600"/>
<path fill-rule="evenodd" clip-rule="evenodd" d="M174.049 84.63C174.58 84.2839 175.433 84.2066 175.558 83.4197C175.373 83.2338 175.151 83.0895 174.906 82.9962L174.347 83.1589C174.429 82.8012 174.541 82.4508 174.68 82.1112L176.473 81.5273C176.242 82.4345 176.101 83.3619 176.05 84.2966C176.121 85.699 176.488 87.0705 177.126 88.3212H175.192C174.975 87.0439 173.638 86.1173 174.05 84.6231L174.049 84.63Z" fill="#FF6600"/>
<path fill-rule="evenodd" clip-rule="evenodd" d="M178.229 82.9961H178.338L179.642 84.1811L179.833 84.1396C179.726 85.5242 179.653 86.8892 179.642 88.328H178.228C177.817 86.9585 177.579 85.5429 177.52 84.1142C177.717 83.7179 177.955 83.3432 178.229 82.9961Z" fill="#FF6600"/>
<path fill-rule="evenodd" clip-rule="evenodd" d="M181.14 84.3046C181.401 83.9654 181.508 83.3919 182.025 83.3262C182.383 83.3045 182.735 83.421 183.008 83.6516C183.486 84.2492 183.018 85.0131 182.845 85.6131C182.629 86.5354 182.355 87.4433 182.027 88.3316H180.651L181.14 84.3046Z" fill="#FF6600"/>
<path fill-rule="evenodd" clip-rule="evenodd" d="M201.792 83.8846C202.091 84.2676 202.185 84.7811 202.635 85.1226C203.027 84.5048 203.136 83.7489 202.934 83.0457L202.54 82.65C203.045 82.5346 203.578 82.4873 204.079 82.3938C203.744 83.0865 203.554 83.8404 203.52 84.6092C203.533 85.8346 203.736 87.0588 203.846 88.335H202.352C201.711 87.1939 201.352 85.9167 201.304 84.6092C201.434 84.348 201.599 84.1055 201.793 83.888L201.792 83.8846Z" fill="#FF6600"/>
<path fill-rule="evenodd" clip-rule="evenodd" d="M208.232 57.7534C208.217 58.1065 207.959 58.4988 208.189 58.8011C208.519 58.433 209.062 58.4469 209.498 58.2842C210.686 58.2707 211.868 58.4548 212.996 58.8288C212.71 58.3788 212.517 57.8757 212.205 57.4684C211.579 57.3046 210.626 57.7396 210.517 56.8107C210.137 56.4865 209.539 56.7184 209.143 56.7438C208.767 57.0067 208.456 57.3511 208.232 57.7511V57.7534Z" fill="white"/>
<path fill-rule="evenodd" clip-rule="evenodd" d="M166.625 46.0107L166.604 45.9969V46.0107H166.625Z" fill="white"/>
<path fill-rule="evenodd" clip-rule="evenodd" d="M171.573 58.0996L172.39 57.3115C172.452 57.3037 172.513 57.3286 172.552 57.3773L172.487 58.8865C172.874 59.2232 173.371 59.407 173.885 59.4034C173.927 58.9973 174.24 58.7111 174.418 58.3557C174.567 58.0719 174.472 57.6507 174.771 57.4488L174.867 57.5411C174.893 58.0028 174.994 58.4571 175.166 58.8865C175.193 59.1046 175.232 59.3757 175.257 59.5661C175.814 59.5832 176.367 59.4614 176.865 59.2119C176.887 58.7344 176.964 58.2612 177.096 57.8019C177.221 57.6369 176.946 57.3403 177.287 57.3507C177.478 57.7592 177.817 58.1792 178.01 58.62C178.739 57.7998 179.195 56.7731 179.314 55.6823C179.083 55.3707 178.737 55.3707 178.457 55.1653C176.01 54.2971 173.326 54.3899 170.945 55.425C170.776 56.3649 171.003 57.3328 171.573 58.0996Z" fill="white"/>
<path fill-rule="evenodd" clip-rule="evenodd" d="M149.936 83.6181C149.884 84.6399 149.906 85.6641 150.003 86.6827C150.217 87.0673 150.584 87.3435 151.012 87.4431L151.079 86.7507C151.243 85.7861 150.726 84.7615 151.272 83.9411C151.649 84.071 152.013 84.2343 152.361 84.4292C152.587 83.4888 152.222 82.5051 151.438 81.9392L149.936 83.6181Z" fill="white"/>
<path fill-rule="evenodd" clip-rule="evenodd" d="M153.302 82.1481C152.623 83.81 152.523 85.6516 153.017 87.3773C153.404 87.1453 153.764 86.8713 154.092 86.5604C153.838 85.3024 154.02 83.9954 154.61 82.8554C155.26 83.121 155.762 83.657 155.984 84.3231C156.439 83.7174 156.595 82.9387 156.409 82.2046C156.437 81.6069 155.756 81.7431 155.428 81.4962C155.535 80.9931 155.522 80.4116 156.053 80.1219L154.422 80.2846C153.963 80.85 153.586 81.4774 153.302 82.1481Z" fill="white"/>
<path fill-rule="evenodd" clip-rule="evenodd" d="M156.664 86.8465C156.733 86.9619 156.664 87.1927 156.803 87.2146C157.005 86.0712 157.93 85.3315 158.436 84.3231C158.68 83.9873 158.667 83.5073 159.062 83.2512C159.591 83.2512 159.973 83.6319 160.492 83.6689C160.654 83.7923 160.408 83.8996 160.394 84.0369C160.176 84.9033 160.044 85.7892 160 86.6815H160.094C160.762 85.9302 161.347 85.1085 161.838 84.2308L161.93 83.4577C162.056 82.5346 161.048 81.9346 160.392 81.5527L160.978 80.8027L160.16 80.5177C159.205 80.5962 158.318 81.0406 157.683 81.7581C156.943 83.3495 156.595 85.0944 156.666 86.8477L156.664 86.8465Z" fill="white"/>
<path fill-rule="evenodd" clip-rule="evenodd" d="M160.327 78.7765C160.639 78.87 160.925 78.6138 161.237 78.7477C162.549 79.1106 163.751 79.7924 164.736 80.7323L165.853 83.5765L166.412 81.8192L166.045 80.8707C165.73 80.19 164.872 80.2454 164.287 80.2177C164.043 79.9454 164.3 79.6327 164.383 79.3754C164.668 78.4084 163.487 78.4627 163.008 78.0692C163.037 77.4923 162.327 77.6873 161.932 77.6342L161.797 77.4715C161.698 77.3547 161.522 77.3403 161.405 77.4392C161.381 77.3988 161.325 77.3711 161.352 77.3042L161.053 77.3711C160.622 77.7126 160.358 78.2235 160.331 78.773L160.327 78.7765Z" fill="white"/>
<path fill-rule="evenodd" clip-rule="evenodd" d="M161.115 75.6485C161.16 75.8283 161.26 75.9896 161.4 76.11C162.014 75.9473 162.603 75.5239 163.308 75.7835C164.173 76.639 165.176 77.3413 166.277 77.8604L166.672 77.7935C166.915 77.8731 167.187 77.887 167.35 78.1604C167.501 78.5285 167.119 78.7373 167.003 79.0431C167.615 79.4943 167.372 80.2939 167.751 80.8362L168.731 79.5323C168.5 78.9554 168.746 77.9827 167.849 77.9262C167.544 77.7842 167.35 77.476 167.355 77.1393C166.778 76.6085 166.052 76.3777 165.467 75.8331C164.989 75.4535 164.703 74.8697 164.092 74.7335C163.659 74.5135 163.195 74.3581 162.717 74.272C161.796 74.137 161.715 75.2308 161.115 75.6485Z" fill="white"/>
<path fill-rule="evenodd" clip-rule="evenodd" d="M162.424 72.9669L162.587 73.2276C163.267 73.1861 163.878 72.8815 164.548 72.8999C164.996 73.1711 165.587 73.1561 166.048 73.3892C166.392 73.9366 166.835 74.4154 167.353 74.8015C168.457 74.9642 169.068 76.1515 169.45 77.0192V76.6003C169.564 75.9917 169.483 75.3626 169.219 74.8026C168.947 74.5315 168.548 74.3549 168.263 74.1103C168.22 73.9694 168.235 73.8171 168.304 73.6869C167.819 73.2839 167.294 72.9324 166.737 72.638C166.016 71.5903 164.629 71.8799 163.526 71.5903L162.426 72.9657L162.424 72.9669Z" fill="white"/>
<path fill-rule="evenodd" clip-rule="evenodd" d="M162.4 62.9931C162.515 63.4166 162.668 63.945 162.746 64.395C163.124 63.5527 163.877 63.1708 164.543 62.4785C164.152 62.2407 163.717 62.0837 163.264 62.017V61.9893C162.97 62.2858 162.507 62.587 162.4 62.9931Z" fill="white"/>
<path fill-rule="evenodd" clip-rule="evenodd" d="M164.872 67.4677L165.484 66.8423C166.113 66.2776 166.538 65.5219 166.695 64.6915C166.231 64.5105 165.712 64.5357 165.268 64.7607C165.065 65.6512 164.933 66.5563 164.872 67.4677H164.872Z" fill="white"/>
<path fill-rule="evenodd" clip-rule="evenodd" d="M165.321 69.3865C166.2 69.5913 167.123 69.4899 167.937 69.0992L168.701 66.6519C168.453 66.6381 168.207 66.5273 167.977 66.6115C167.422 67.8041 166.488 68.7797 165.321 69.3865H165.321Z" fill="white"/>
<path fill-rule="evenodd" clip-rule="evenodd" d="M165.596 60.7108C166.229 61.7119 167.169 62.4811 168.276 62.9031C168.161 61.7596 167.175 60.9704 166.67 59.9942L166.642 59.6677C166.262 59.3225 165.83 59.038 165.363 58.8242C165.346 59.4612 165.424 60.0971 165.596 60.7108Z" fill="white"/>
<path fill-rule="evenodd" clip-rule="evenodd" d="M168.915 69.495C169.643 69.5919 170.383 69.5217 171.08 69.2897C172.046 69.0589 172.58 67.9974 172.904 67.17H171.692L170.387 68.4474C169.865 68.7507 169.373 69.1014 168.915 69.495Z" fill="white"/>
<path fill-rule="evenodd" clip-rule="evenodd" d="M168.769 59.4727C168.988 60.5278 169.42 61.5273 170.038 62.4103L170.2 60.383L168.769 59.4727Z" fill="white"/>
<path fill-rule="evenodd" clip-rule="evenodd" d="M173.231 64.7619C173.216 64.0332 173.121 63.3084 172.947 62.6007C172.538 62.3273 171.967 62.3538 171.545 62.085C171.716 63.1708 172.325 64.1388 173.231 64.7619Z" fill="white"/>
<path fill-rule="evenodd" clip-rule="evenodd" d="M171.99 71.67C172.848 71.417 173.678 71.0799 174.469 70.6639C174.972 69.9416 175.738 69.2896 175.844 68.4485C175.214 68.6239 174.673 68.4196 174.087 68.7069C173.828 69.4095 173.397 70.0359 172.834 70.5289C172.728 70.9881 172.225 71.3077 171.99 71.67Z" fill="white"/>
<path fill-rule="evenodd" clip-rule="evenodd" d="M173.325 73.3419L174.348 74.6746C174.916 74.8592 175.536 74.7902 176.05 74.4854L175.684 73.2761C174.916 73.4956 174.105 73.5182 173.325 73.3419Z" fill="white"/>
<path fill-rule="evenodd" clip-rule="evenodd" d="M175.027 63.7154L175.422 65.5085C176.275 64.718 176.693 63.5637 176.543 62.4104C176.15 62.9609 175.63 63.4086 175.027 63.7154Z" fill="white"/>
<path fill-rule="evenodd" clip-rule="evenodd" d="M177.711 66.8815C177.717 67.1348 177.797 67.3807 177.942 67.5888C179.005 67.9719 179.113 69.263 180.094 69.7499C180.754 69.9186 181.455 69.8 182.023 69.4234C181.605 68.9457 181.127 68.6157 180.719 68.1195C180.434 68.0042 180.142 67.8207 180.16 67.4676L177.71 66.8815L177.711 66.8815Z" fill="white"/>
<path fill-rule="evenodd" clip-rule="evenodd" d="M178.556 73.3026C179.018 73.7976 179.628 74.1306 180.295 74.2523C180.187 74.1034 180.365 74.2523 180.39 74.1588L179.573 72.3657C179.165 72.3796 178.742 72.4626 178.362 72.4361C178.392 72.7317 178.457 73.0226 178.556 73.3026Z" fill="white"/>
<path fill-rule="evenodd" clip-rule="evenodd" d="M179.999 64.9258C179.644 63.9828 179.424 62.994 179.347 61.9893C178.942 62.4785 178.519 62.797 178.137 63.292C177.962 64.3004 179.402 64.5439 179.999 64.9258Z" fill="white"/>
<path fill-rule="evenodd" clip-rule="evenodd" d="M181.654 64.0016C182.148 64.6431 183.221 64.4262 183.821 64.2323C183.533 63.7431 182.612 63.4558 182.445 62.9296C182.359 62.0075 182.163 61.099 181.859 60.2239C181.388 61.3754 180.813 62.7508 181.654 64.0016Z" fill="white"/>
<path fill-rule="evenodd" clip-rule="evenodd" d="M182.515 66.8816C183.876 67.8739 185.211 69.0335 187.117 68.6123C187.253 68.52 187.487 68.5292 187.513 68.355C186.953 68.0019 186.359 67.7273 185.782 67.4019L185.13 66.4512H184.832C184.076 66.6737 183.3 66.8194 182.516 66.8862L182.515 66.8816Z" fill="white"/>
<path fill-rule="evenodd" clip-rule="evenodd" d="M182.542 77.91H182.64C183.468 77.3444 184.404 76.9556 185.389 76.7677C185.65 76.8646 185.485 77.1508 185.718 77.2581C186.303 77.0158 187.011 77.0677 187.609 76.8646C188.258 76.8285 188.907 76.9471 189.501 77.2108C189.963 77.8246 190.835 77.7554 191.436 78.165L191.338 77.2108C190.075 75.7292 188.1 75.6219 186.276 75.6496L186.236 75.4592C185.776 75.4584 185.321 75.5556 184.902 75.7442C184.316 75.8341 183.744 75.9981 183.2 76.2323C182.948 76.7783 182.729 77.3385 182.542 77.91H182.542Z" fill="white"/>
<path fill-rule="evenodd" clip-rule="evenodd" d="M183.636 61.1988C184.112 61.9469 184.975 62.3549 185.855 62.2477C185.393 61.7954 184.859 61.3246 184.834 60.6831C184.97 59.4727 183.638 59.3758 182.988 58.7504C183.076 59.5951 183.295 60.4211 183.636 61.1988Z" fill="white"/>
<path fill-rule="evenodd" clip-rule="evenodd" d="M183.5 80.318H183.663C184.383 79.8703 185.432 80.2119 186.14 79.7411C186.535 79.5369 186.562 80.0873 186.832 80.2315C187.499 80.6365 187.582 81.8619 188.52 81.5757C189.648 82.1607 189.364 83.5373 189.405 84.5388L190.454 83.888C190.358 83.3584 190.658 82.718 190.317 82.2565C190.058 81.6727 189.35 81.6184 189.01 81.143C189.42 80.4507 188.493 80.1207 188.301 79.6177L188.361 79.5507L189.803 79.7411C190.236 80.0707 190.528 80.5517 190.622 81.0877C191.749 81.2792 192.021 82.5553 192.415 83.3711C192.645 82.815 192.741 82.2173 192.972 81.6703C192.987 81.2215 192.388 81.2215 192.088 81.0184C192.03 80.3103 191.661 79.6643 191.082 79.253C189.888 78.756 188.634 78.4173 187.353 78.2457L186.209 78.5919C185.582 78.743 184.916 78.5527 184.438 78.9853C183.731 79.0384 183.674 79.8161 183.5 80.318Z" fill="white"/>
<path fill-rule="evenodd" clip-rule="evenodd" d="M184.217 74.715L184.477 74.8384C185.036 74.58 185.593 74.2811 186.179 74.0619C187.088 73.8046 187.795 74.8384 188.562 74.1773C188.846 73.9753 189.093 74.273 189.308 74.4369C189.64 75.0346 190.399 74.993 190.972 75.1546C190.686 74.3803 190.331 73.32 189.337 73.193C188.916 73.0904 188.502 72.9589 188.099 72.7996C187.05 71.6457 186.368 73.7527 185.224 73.2369C184.753 73.6225 184.403 74.1357 184.217 74.715Z" fill="white"/>
<path fill-rule="evenodd" clip-rule="evenodd" d="M184.477 81.3392C184.912 81.7061 185.361 82.3326 186.043 82.2496C186.885 82.643 186.532 83.7588 186.994 84.3449L187.484 83.9088L187.444 83.8799L187.512 83.813L187.541 83.8511C187.62 83.299 187.519 82.7362 187.252 82.2461C186.942 82.0303 186.575 82.2611 186.274 82.0569C186.207 81.6737 185.98 81.3376 185.648 81.1338C185.43 80.9676 185.143 81.1857 184.897 81.1707L184.477 81.3392Z" fill="white"/>
<path fill-rule="evenodd" clip-rule="evenodd" d="M186.179 64.7619C186.735 65.4616 187.418 66.049 188.194 66.4927C188.804 66.7521 189.478 66.8177 190.127 66.6808C189.545 66.2007 189.008 65.6689 188.522 65.0919C188.329 64.8185 188.291 64.4769 188.031 64.2346C187.378 64.25 186.74 64.4332 186.178 64.7665L186.179 64.7619Z" fill="white"/>
<path fill-rule="evenodd" clip-rule="evenodd" d="M186.933 59.895C187.558 60.6727 188.526 60.3566 189.41 60.3843V60.2896L188.048 59.1473C187.633 59.3242 187.254 59.5778 186.933 59.895H186.933Z" fill="white"/>
<path fill-rule="evenodd" clip-rule="evenodd" d="M161.87 47.07L162.658 49.5208C162.643 48.1362 163.286 46.9743 163.15 45.5619L163.732 44.6908L162.493 45.0727C162.134 45.6815 161.921 46.3651 161.87 47.07Z" fill="white"/>
<path fill-rule="evenodd" clip-rule="evenodd" d="M162.4 42.8273L163.476 42.2019V40.6154C163.079 40.9334 162.727 41.3028 162.427 41.7138L162.4 42.8273Z" fill="white"/>
<path fill-rule="evenodd" clip-rule="evenodd" d="M184.482 45.3023C184.228 45.5828 183.878 45.7571 183.501 45.7904C184.14 44.6705 184.284 43.335 183.897 42.105C184.209 42.0234 184.514 41.9145 184.807 41.7796L184.78 41.7508L185.528 41.0988C186.523 40.4181 186.14 39.1258 186.508 38.1611C186.02 37.4008 185.87 36.4765 185.162 35.8361L185.202 35.8084C184.643 35.1011 183.637 35.1842 182.875 34.8311C181.865 34.485 181.09 35.1842 180.365 35.6469C180.051 35.7011 180.25 36.1084 179.903 36.0934C179.684 36.617 179.497 37.1534 179.343 37.6996C178.006 37.4462 176.622 37.7036 175.466 38.4208C174.869 38.0738 174.213 37.8392 173.532 37.7284C173.042 37.6304 172.484 37.8081 172.131 37.5358C171.614 36.9531 171.502 35.8915 170.617 35.7427C170.303 35.6331 170.239 35.2927 170.239 34.9927C169.653 34.8958 169.133 34.6258 168.565 34.5034C167.693 34.1088 167 34.7342 166.347 35.1565C166.044 35.2429 165.748 35.3517 165.461 35.4819C164.955 36.2287 164.53 37.0265 164.192 37.8623C164.31 38.5372 164.565 39.1805 164.943 39.7523C165.375 40.6457 166.135 41.338 167.065 41.685C166.67 43.094 166.67 44.5844 167.065 45.9934C167.065 45.9934 167.043 46.0119 167.043 46.0073C167.029 46.0223 167.015 46.0362 166.999 46.0488C166.872 46.0687 166.742 46.0544 166.623 46.0073H166.605C166.808 47.3126 167.439 48.5136 168.398 49.4215C168.753 49.5369 168.67 49.9661 168.816 50.2361C168.905 50.3829 168.93 50.5595 168.887 50.7254C166.885 50.6577 164.904 51.1526 163.169 52.1538C162.734 52.3719 162.925 52.9696 162.884 53.3931C164.067 52.5861 165.402 52.03 166.807 51.7592C167.433 51.6497 168.071 51.6403 168.7 51.7315L168.767 52.9038C167.151 53.7484 165.378 54.2365 163.992 55.6246C163.964 56.0465 163.986 56.4703 164.059 56.8869L165.299 55.8808C166.457 54.9618 167.746 54.2228 169.124 53.6884C169.466 54.1488 169.886 54.5449 170.366 54.8584C171.191 54.3268 172.096 53.9317 173.047 53.6884C173.55 53.3896 174.356 53.6607 174.681 53.0631L174.912 51.825C174.874 51.7984 174.845 51.7419 174.777 51.7558C174.127 51.4187 173.734 50.734 173.77 50.0031C173.545 50.116 173.299 50.1801 173.048 50.1911C172.833 50.1381 172.627 50.0838 172.533 49.8634C172.519 49.5934 172.382 49.185 172.656 48.9831C173.628 48.4995 174.726 48.3279 175.799 48.4915C176.628 48.6069 177.828 48.5608 178.115 49.5392C178.075 49.8254 178.1 50.1369 177.816 50.3284C177.517 50.4911 177.178 50.3134 176.905 50.1911C176.757 50.9219 176.258 51.5328 175.572 51.8238L175.665 52.6119C175.758 52.9661 175.781 53.55 176.345 53.4265C177.62 53.7931 178.825 54.3673 179.913 55.1261C180.268 54.7546 180.587 54.3492 180.863 53.9158C182.876 54.7723 184.714 55.9905 186.287 57.51L186.352 56.3665C184.818 55.0348 183.074 53.9644 181.192 53.1981C181.277 52.8306 181.332 52.4572 181.358 52.0811C183.475 52.2099 185.532 52.8386 187.358 53.9158L187.331 52.9384C185.441 51.8778 183.321 51.2947 181.154 51.24C181.076 51.1151 181.042 50.9677 181.057 50.8211C182.134 50.5118 182.952 49.6321 183.182 48.5354C183.741 47.8973 184.544 47.2027 184.354 46.2531C184.377 46.1723 184.405 46.0904 184.433 46.0073C184.525 45.7838 184.544 45.5372 184.488 45.3023H184.482Z" fill="white"/>
<path fill-rule="evenodd" clip-rule="evenodd" d="M186.371 48.7984L187.487 48.443L187.612 47.8199C187.925 46.9072 187.257 46.2276 186.929 45.5065L186.371 48.7984Z" fill="white"/>
<path fill-rule="evenodd" clip-rule="evenodd" d="M189.188 53.1058C189.72 53.6919 190.237 54.6289 191.177 54.345C191.072 53.9733 190.931 53.6127 190.755 53.2685C190.511 52.9835 190.427 52.1677 189.938 52.4539C189.57 52.2092 189.477 51.8008 189.246 51.4742C189.183 52.0156 189.164 52.5614 189.192 53.1058H189.188Z" fill="white"/>
<path fill-rule="evenodd" clip-rule="evenodd" d="M189.385 57.0911C189.59 57.375 189.647 57.7454 189.846 58.0027C190.273 58.1995 190.75 58.2568 191.211 58.1665C191.617 58.0696 191.877 58.5127 192.257 58.2611C191.779 57.9623 191.496 57.4177 191.047 57.0208C190.511 56.6031 189.94 56.97 189.385 57.0911Z" fill="white"/>
<path fill-rule="evenodd" clip-rule="evenodd" d="M190.1 63.4165C191.091 64.0987 192.287 64.4201 193.487 64.3269C193.622 64.26 193.853 64.2727 193.88 64.1111C193.105 63.6563 192.301 63.2519 191.474 62.9007C191.025 62.2084 190.436 63.0796 189.867 63.0161C189.882 63.1834 190.046 63.3057 190.1 63.4165Z" fill="white"/>
<path fill-rule="evenodd" clip-rule="evenodd" d="M192.929 75.4235L193.133 75.8573C193.34 77.2731 194.234 78.5758 193.746 80.1265C194.155 80.4138 194.277 80.8892 194.538 81.27H194.605C194.82 80.0804 194.797 78.8599 194.538 77.6792C194.653 76.6038 193.568 75.9808 192.929 75.4235L192.929 75.4235Z" fill="white"/>
<path fill-rule="evenodd" clip-rule="evenodd" d="M193.165 61.5C193.952 62.0116 194.931 62.1325 195.818 61.8277C195.281 61.5564 194.774 61.2279 194.307 60.8481L193.165 61.5Z" fill="white"/>
<path fill-rule="evenodd" clip-rule="evenodd" d="M196.525 65.6711C196.503 66.2145 196.779 66.7264 197.246 67.0061C197.443 66.6978 197.585 66.3573 197.665 65.9999C197.536 65.3922 197.186 64.8538 196.684 64.4884C196.56 64.8699 196.505 65.2704 196.522 65.6711H196.525Z" fill="white"/>
<path fill-rule="evenodd" clip-rule="evenodd" d="M196.565 71.8742C196.468 72.5123 197.175 72.5954 197.474 72.9508C197.72 73.2496 197.312 73.4539 197.312 73.7389C197.84 74.3918 198.13 75.2063 198.131 76.0465C198.385 75.2342 198.593 74.4083 198.755 73.5727C198.701 72.9727 197.749 73.095 197.898 72.4315C198.049 71.7706 197.968 71.0777 197.667 70.47C197.614 70.3765 197.487 70.185 197.383 70.2392C197.135 70.7989 196.525 71.1923 196.565 71.8742Z" fill="white"/>
<path fill-rule="evenodd" clip-rule="evenodd" d="M198.43 68.6365L199.137 70.0119C199.45 69.9704 199.654 69.6658 199.897 69.4535C200.089 68.8823 199.583 68.5154 199.436 68.0515C199.313 67.7239 199.436 67.2912 199.205 67.0062C199.026 66.8908 198.825 66.7189 198.621 66.7754L198.431 68.6389L198.43 68.6365Z" fill="white"/>
<path fill-rule="evenodd" clip-rule="evenodd" d="M199.339 65.0169C199.956 65.3524 200.474 65.8452 200.839 66.4454C201.318 67.83 202.077 69.0819 202.632 70.4285C202.837 71.3677 203 72.2065 203.257 73.1285C203.355 73.3742 203.3 73.8462 203.682 73.8081C203.788 72.7754 203.993 71.7819 204.008 70.7077C203.666 70.3309 203.255 70.0224 202.797 69.7985V69.7027C202.852 69.4719 203.044 69.1985 203.328 69.2412C203.443 69.105 203.818 68.97 203.654 68.7242C202.947 68.0181 202.987 66.8019 201.861 66.5827C201.518 66.3926 201.312 66.024 201.33 65.6319C200.752 65.2139 200.052 64.9977 199.339 65.0169Z" fill="white"/>
<path fill-rule="evenodd" clip-rule="evenodd" d="M200 72.39C200.692 73.0281 200.45 73.9535 200.395 74.8131C200.286 75.33 200.938 75.0277 201.143 75.3023C201.44 76.0091 201.45 76.8034 201.172 77.5177C201.572 76.9921 201.932 76.437 202.248 75.8573C202.237 75.6265 202.535 75.5169 202.522 75.2308C202.638 74.8373 202.176 75.0139 201.989 74.9735C201.827 74.9331 201.651 74.8235 201.707 74.6054C201.912 73.8878 201.871 73.1222 201.591 72.4304C201.427 71.8731 201.66 71.1242 201.398 70.635C200.961 71.2327 199.667 71.37 200 72.39Z" fill="white"/>
<path fill-rule="evenodd" clip-rule="evenodd" d="M201.26 62.7357C202.474 63.9611 203.359 65.1899 204.667 66.3749C204.672 65.8614 204.649 65.3481 204.6 64.8369C204.373 64.4859 204.087 64.1774 203.753 63.9253C202.788 63.8319 202.285 62.5315 201.262 62.7357H201.26Z" fill="white"/>
<path fill-rule="evenodd" clip-rule="evenodd" d="M204.431 69.2157C204.465 69.3378 204.511 69.4561 204.569 69.5688C205.113 70.4294 205.583 71.335 205.972 72.2757C205.857 71.2684 206.542 70.0188 205.642 69.2434C205.527 68.9146 205.115 69.0242 204.853 69.0507L204.431 69.2157Z" fill="white"/>
<path fill-rule="evenodd" clip-rule="evenodd" d="M207.7 79.1539C208.08 79.3327 208.57 79.0189 208.938 78.7996C209.261 78.7629 209.584 78.8676 209.824 79.087C209.932 79.3027 209.824 79.5046 209.865 79.7123C210.692 79.9248 211.481 80.2643 212.204 80.7185L212.435 80.4877C212.408 79.9258 212.087 79.4195 211.592 79.1539C211.308 78.99 210.883 79.087 210.68 78.8273C210.794 78.5813 210.834 78.3076 210.795 78.0393C210.401 78.0345 210.018 77.911 209.695 77.685C209.464 77.617 209.256 77.4254 209.066 77.685C208.386 78.1466 208.348 78.8273 207.692 79.1539H207.7Z" fill="white"/>
<path fill-rule="evenodd" clip-rule="evenodd" d="M208.654 62.0376C209.008 61.9653 209.342 61.816 209.632 61.6003C210.546 60.7707 211.865 61.328 212.929 61.3142C212.709 60.944 212.458 60.5935 212.178 60.2665C211.813 60.0832 211.415 59.9731 211.008 59.9422C210.085 59.3965 209.457 60.3092 208.746 60.7569C208.526 61.1487 208.492 61.6183 208.654 62.0376Z" fill="white"/>
<path fill-rule="evenodd" clip-rule="evenodd" d="M208.678 64.8381C208.678 64.7954 208.678 64.7538 208.718 64.7435C208.844 64.8508 208.706 65.1127 208.911 65.1623C209.262 64.9697 209.599 64.7515 209.917 64.5092C210.829 64.5092 211.375 63.6242 212.271 63.6242C213.763 63.8198 215.211 64.2608 216.559 64.9292C216.374 64.0179 215.769 63.2476 214.927 62.8523C214.531 62.7544 214.113 62.88 213.837 63.18C212.927 63.7569 213.403 62.3492 212.762 62.3215C211.929 62.647 211.04 62.8038 210.146 62.7831C209.602 62.9885 209.223 63.4904 208.607 63.435C208.538 63.9028 208.562 64.3797 208.678 64.8381Z" fill="white"/>
<path fill-rule="evenodd" clip-rule="evenodd" d="M209.306 67.868C209.592 68.1703 210.067 68.115 210.477 68.1703L211.661 67.7088C211.675 67.4953 211.308 67.4377 211.39 67.193C211.717 66.8261 212.166 67.0857 212.573 66.9357C213.143 66.8538 213.727 66.285 214.304 66.705C214.286 66.7742 214.328 66.8677 214.274 66.9357C214.095 67.3546 214.39 67.6153 214.724 67.7792C215.392 67.8946 216.015 68.5142 216.686 68.2407C216.604 67.6985 216.487 67.1623 216.334 66.6357C215.775 66.5423 215.377 66.0796 214.864 65.888C214.652 66.1141 214.356 66.242 214.046 66.2411C212.997 65.9953 211.738 65.3446 210.682 66.0103C210.302 66.4719 209.621 66.3369 209.103 66.5411C209.122 66.9895 209.19 67.4344 209.306 67.868Z" fill="white"/>
<path fill-rule="evenodd" clip-rule="evenodd" d="M209.756 75.9553C209.675 76.1861 209.443 76.5657 209.871 76.6753C210.741 76.7019 211.858 76.253 212.539 76.9326C212.77 77.1126 212.654 77.4772 212.645 77.7103L213.788 78.6611C213.947 78.1048 214.058 77.5357 214.118 76.9603C214.033 76.5088 213.787 76.1035 213.426 75.8192C212.676 75.8192 212.242 74.9434 211.437 75.0507C211.018 74.9584 210.649 75.3311 210.225 75.3311C210.06 75.5308 209.906 75.7396 209.764 75.9565L209.756 75.9553Z" fill="white"/>
<path fill-rule="evenodd" clip-rule="evenodd" d="M210.081 69.54C210.261 69.9092 210.464 70.5069 210.803 70.5461C211.701 70.118 212.73 70.0511 213.675 70.3592C213.974 70.4111 213.974 70.7515 213.906 70.9684C214.368 71.2407 214.925 71.4588 215.415 71.7565L215.278 70.9407C215.25 70.0569 214.137 69.9773 214.067 69.105C213.134 68.7858 212.131 68.7295 211.168 68.9423C210.855 69.2273 210.404 69.1892 210.026 69.2688C210.002 69.3784 210.067 69.4488 210.081 69.54Z" fill="white"/>
<path fill-rule="evenodd" clip-rule="evenodd" d="M210.313 73.9476C210.844 73.7976 211.185 73.2149 211.758 73.1584C212.627 73.1529 213.445 73.5703 213.95 74.2776C214.275 74.4911 214.206 75.0495 214.631 75.0495C214.603 74.395 214.625 73.7393 214.695 73.088C214.128 72.1384 212.71 72.8734 212.179 71.7565L211.173 71.8245C210.449 72.0034 210.642 72.8457 210.547 73.418C210.464 73.5934 210.302 73.7295 210.317 73.9453L210.313 73.9476Z" fill="white"/>
<path fill-rule="evenodd" clip-rule="evenodd" d="M215.312 79.8992C215.729 80.7427 216.659 81.3819 216.753 82.3465C216.956 82.0855 217.129 81.8026 217.27 81.503C217.255 81.2319 216.942 81.2319 216.821 81.0138C216.696 80.6607 216.887 80.348 216.936 80.0342C216.723 79.504 216.346 79.056 215.86 78.7557L215.305 79.8992H215.312Z" fill="white"/>
<path fill-rule="evenodd" clip-rule="evenodd" d="M216.986 77.7473L217.964 79.0823C218.343 78.3232 218.435 77.4527 218.222 76.6315C218.128 76.4804 217.95 76.2357 217.707 76.3465C217.339 76.7307 217.283 77.3134 216.986 77.7473Z" fill="white"/>
<path fill-rule="evenodd" clip-rule="evenodd" d="M212.995 40.5254C213.338 40.7251 213.719 40.8505 214.114 40.8935C214.417 40.7149 214.776 40.6568 215.12 40.7308C215.624 41.0574 216.237 40.6616 216.822 40.6893C216.316 40.2421 215.741 39.879 215.12 39.6139C214.356 39.7754 213.746 40.3212 212.995 40.5254Z" fill="white"/>
<path fill-rule="evenodd" clip-rule="evenodd" d="M218.317 41.8015C219.04 41.8696 219.559 42.5088 220.048 43.0396C220.633 43.176 221.147 43.5241 221.49 44.0169L221.26 43.3003C221.05 42.6072 220.681 41.9726 220.183 41.4473C219.545 41.4537 218.913 41.5736 218.317 41.8015Z" fill="white"/>
<path fill-rule="evenodd" clip-rule="evenodd" d="M167.517 35.8373L167.913 35.88C168.972 36.4107 170.682 36.6877 170.786 38.2177C169.675 38.622 168.663 39.2571 167.816 40.0811C167.164 39.4154 165.844 39.7823 165.623 38.6134C165.83 37.5092 166.223 36.1211 167.517 35.8373Z" fill="#FF6600"/>
<path fill-rule="evenodd" clip-rule="evenodd" d="M168.54 42.7338C169.78 42.6242 170.977 42.7996 172.257 42.6923C172.593 42.8363 172.87 43.0891 173.045 43.41C173.003 44.8788 172.555 46.2784 172.489 47.7946C171.893 48.0097 171.432 48.4933 171.247 49.0996C170.749 49.291 170.267 49.5194 169.803 49.7826C169.568 49.2733 169.648 48.6739 170.009 48.2446C170.54 47.4992 171.917 47.6676 171.807 46.4896C172.161 45.9207 171.822 45.1846 171.832 44.588C171.697 44.1369 171.56 44.7369 171.343 44.723C170.923 44.8488 170.47 44.8143 170.074 44.6261C169.787 44.3273 169.436 44.0803 169.352 43.6753C168.928 43.4933 168.571 43.1845 168.33 42.7915L168.536 42.7419L168.54 42.7338Z" fill="#FF6600"/>
<path fill-rule="evenodd" clip-rule="evenodd" d="M170.037 51.5966C170.614 51.6808 171.232 51.4177 171.738 51.712C171.632 51.9035 171.343 51.9843 171.112 52.0385L170.198 52.4573C169.859 52.3743 170.05 51.8297 170.037 51.5966Z" fill="#FF6600"/>
<path fill-rule="evenodd" clip-rule="evenodd" d="M172.423 40.2438C173.007 40.0534 173.635 39.6611 174.26 39.8492C173.823 40.3315 173.439 40.8604 173.118 41.4265L171.253 41.3861C171.512 40.8912 171.922 40.4912 172.423 40.2438Z" fill="#FF6600"/>
<path fill-rule="evenodd" clip-rule="evenodd" d="M177.877 39.795C178.655 39.66 178.61 40.6662 179.32 40.7043C179.444 40.867 179.622 41.0158 179.55 41.2616C179.065 41.3561 178.574 41.4197 178.08 41.452C177.465 41.1127 177.863 40.0512 176.895 40.1193C176.842 40.0374 176.734 39.8735 176.868 39.8204C177.198 39.7375 177.543 39.7289 177.877 39.795Z" fill="#FF6600"/>
<path fill-rule="evenodd" clip-rule="evenodd" d="M177.385 43.4377C177.73 43.0562 178.219 42.8352 178.733 42.8273L182.26 42.893C182.41 43.0303 182.123 43.1527 182.123 43.3153C181.907 43.5196 181.593 43.5761 181.401 43.7642C180.94 43.778 180.983 44.3227 180.653 44.5546C180.149 45.0577 179.413 44.8257 178.828 44.745C178.605 44.5976 178.422 44.3964 178.296 44.16L178.133 44.3227C178.339 45.0853 178.285 45.9277 178.436 46.703L179.279 47.2603C179.292 48.51 180.763 48.1696 181.401 48.8642C181.223 49.3145 180.959 49.7259 180.625 50.0757C180.133 49.6023 179.541 49.2444 178.894 49.028C178.838 48.2965 178.037 47.8592 177.59 47.4934C177.464 46.1584 177.439 44.7992 177.222 43.508L177.385 43.4377Z" fill="#FF6600"/>
<path fill-rule="evenodd" clip-rule="evenodd" d="M178.668 51.8297H180.303L180.097 52.6847L178.461 51.9924C178.423 51.8562 178.572 51.8158 178.668 51.8297Z" fill="#FF6600"/>
<path fill-rule="evenodd" clip-rule="evenodd" d="M181.607 36.4235L182.819 36.0427C183.518 36.3776 184.183 36.7778 184.806 37.2381C185.238 38.2534 185.305 39.3866 184.997 40.4458C184.628 40.8531 183.825 40.4458 183.528 41.0989H183.471C182.894 39.7797 181.859 38.714 180.558 38.0989C180.665 37.4217 181.044 36.8176 181.607 36.4258V36.4235Z" fill="#FF6600"/>
</svg>
