<svg width="275" height="130" viewBox="0 0 275 130" fill="none" xmlns="http://www.w3.org/2000/svg">
<path d="M40.375 76.21L30.6125 45.93C29.2375 41.305 26.8875 40 23.3088 40H5.17125C6.59625 40.5838 7.5375 44.2562 7.5375 44.2562L16.2987 74.6613C17.17 78.1952 20.4041 80.6309 24.0413 80.4925H43.2675C41.89 80.2425 40.375 76.21 40.375 76.21Z" fill="#ED1A3A"/>
<path d="M86.4062 40C82.8288 40 80.4837 41.305 79.1037 45.93L69.3362 76.2075C69.3362 76.2075 67.8237 80.24 66.445 80.4912H85.6725C89.3118 80.6325 92.5493 78.197 93.4225 74.6613L102.18 44.2562C102.18 44.2562 103.124 40.5838 104.555 40L86.4062 40Z" fill="#ED1A3A"/>
<rect x="44.2287" y="40.2388" width="21.3438" height="40.2487" fill="#ED1A3A"/>
<path fill-rule="evenodd" clip-rule="evenodd" d="M116.328 53.7676C119.781 53.5935 123.171 54.7337 125.818 56.9589C128.184 59.0847 129.401 63.0426 129.469 68.8326H110.228C110.319 70.3253 110.81 71.7659 111.649 73.0039C112.452 74.0552 113.51 74.8846 114.723 75.4139C116.374 76.0714 118.145 76.3738 119.921 76.3014C123.125 76.2366 126.303 75.7172 129.36 74.7589V79.6264C125.681 80.5791 121.898 81.0774 118.097 81.1101C115.078 81.1746 112.076 80.6331 109.27 79.5176C106.844 78.5379 104.799 76.8003 103.441 74.5639C102.09 72.3577 101.383 69.8173 101.4 67.2301C101.385 64.865 101.982 62.5362 103.134 60.4701C104.301 58.3788 106.051 56.6723 108.171 55.5589C110.699 54.2924 113.502 53.6767 116.328 53.7676ZM112.054 59.9001C110.901 61.2926 110.218 63.0137 110.101 64.8176H121.09C121.258 63.0109 120.755 61.2057 119.679 59.7451C118.75 58.7277 117.422 58.1685 116.045 58.2151C114.533 58.1694 113.076 58.7846 112.054 59.9001Z" fill="#405661"/>
<path d="M147.375 64.7175L144.939 63.9325C143.863 63.662 142.846 63.1959 141.939 62.5575C141.417 62.1601 141.103 61.5472 141.086 60.8913C141.119 60.0509 141.629 59.3029 142.399 58.965C143.626 58.3914 144.977 58.1336 146.329 58.215C149.175 58.31 151.998 58.7653 154.73 59.57V54.695C151.739 54.1293 148.706 53.8194 145.663 53.7688C141.323 53.7738 138.098 54.5113 135.985 55.9813C134.031 57.1741 132.832 59.293 132.818 61.5825C132.761 63.3565 133.535 65.0552 134.911 66.1763C136.855 67.663 139.059 68.7726 141.411 69.4475L144.249 70.405C145.377 70.7353 146.454 71.2199 147.449 71.845C148.096 72.256 148.491 72.967 148.499 73.7338C148.462 74.6423 147.92 75.4539 147.095 75.8363C145.941 76.442 144.647 76.7285 143.345 76.6663C139.702 76.5316 136.106 75.8024 132.699 74.5075V79.69C136.365 80.6201 140.131 81.0986 143.913 81.115C148.218 81.115 151.499 80.2817 153.756 78.615C155.778 77.3688 157.047 75.199 157.143 72.8263C157.16 71.1788 156.493 69.5981 155.299 68.4625C154.042 67.2592 151.401 66.0109 147.375 64.7175Z" fill="#405661"/>
<path d="M171.565 75.3924C170.772 74.7349 170.376 73.4678 170.376 71.5912V58.7912H177.046V54.3412H170.375V49.0762L161.982 49.8987V54.3412H158.525V58.7912H161.984V72.5537C161.872 74.2694 162.263 75.9804 163.109 77.4774C163.961 78.6725 165.138 79.5979 166.5 80.1437C168.537 80.8896 170.701 81.2252 172.869 81.1312C174.468 81.0648 176.055 80.8152 177.597 80.3874V76.0687C176.753 76.2565 175.892 76.3595 175.027 76.3762C173.794 76.4633 172.569 76.1152 171.565 75.3924Z" fill="#405661"/>
<path fill-rule="evenodd" clip-rule="evenodd" d="M194.121 55.1713C195.943 54.2005 197.984 53.7169 200.047 53.7675C203.36 53.5743 206.584 54.8843 208.822 57.3338C210.981 59.9697 212.087 63.3118 211.926 66.715C212.053 70.4463 210.821 74.0967 208.46 76.9888C206.038 79.7882 202.458 81.3109 198.761 81.1138C197.732 81.1199 196.705 81.0138 195.699 80.7975C194.768 80.5872 193.863 80.2727 193.002 79.86C191.925 79.2974 190.919 78.6057 190.009 77.8V90H181.617V54.3238H190.01V59.385C190.964 57.6267 192.387 56.1679 194.121 55.1713ZM196.37 76.48C198.423 76.5794 200.354 75.4988 201.342 73.6963C202.451 71.7605 203.014 69.5604 202.972 67.33C203.088 65.2722 202.541 63.2315 201.411 61.5075C200.385 60.0964 198.717 59.2974 196.975 59.3825C195.699 59.4051 194.452 59.7726 193.367 60.4463C192.09 61.2184 190.954 62.2029 190.007 63.3575V73.63C190.946 74.5768 192.054 75.3399 193.272 75.88C194.257 76.2751 195.309 76.4787 196.37 76.48Z" fill="#405661"/>
<path fill-rule="evenodd" clip-rule="evenodd" d="M240.655 76.0751C241.127 76.3687 241.67 76.5289 242.226 76.5388C242.612 76.5361 242.996 76.5102 243.379 76.4613L243.504 80.4313C241.961 80.8529 240.372 81.0821 238.772 81.1138C237.406 81.1453 236.046 80.9214 234.761 80.4538C233.559 79.9343 232.621 78.9464 232.165 77.7188H231.797C230.83 78.5326 229.776 79.2372 228.654 79.8201C227.768 80.2495 226.835 80.5754 225.875 80.7913C224.87 81.0097 223.845 81.1179 222.816 81.1138C220.397 81.235 218.018 80.4567 216.137 78.9288C214.537 77.6196 213.615 75.6564 213.63 73.5888C213.673 70.9355 215.093 68.4956 217.38 67.1488C219.881 65.4288 223.934 64.5688 229.539 64.5688H231.772V62.2088C231.935 60.9111 231.313 59.6405 230.189 58.9726C228.935 58.3776 227.556 58.0937 226.169 58.1451C222.763 58.19 219.409 58.9838 216.344 60.4701V55.5801C220.01 54.39 223.839 53.7764 227.694 53.7613C229.782 53.7328 231.863 54.0001 233.876 54.5551C235.513 54.9798 237.012 55.8193 238.23 56.9926C239.41 58.3474 239.997 60.1187 239.861 61.9101V73.4663C239.86 74.8972 240.125 75.7668 240.655 76.0751ZM228.75 75.6913C229.835 75.2432 230.852 74.6448 231.771 73.9138L231.78 68.6376H229.807C227.708 68.5032 225.61 68.919 223.72 69.8438C222.542 70.4015 221.771 71.5676 221.72 72.8701C221.698 73.8416 222.149 74.7633 222.93 75.3413C223.741 75.9774 224.746 76.3142 225.776 76.2951C226.797 76.2863 227.807 76.0814 228.75 75.6913Z" fill="#405661"/>
<path d="M262.206 76.3625C260.615 76.3884 259.039 76.0426 257.605 75.3525C256.22 74.6551 255.101 73.5221 254.422 72.1275C252.644 68.644 252.967 64.4576 255.26 61.2887C256.741 59.369 259.093 58.3297 261.51 58.5275C264.248 58.6479 266.959 59.1222 269.575 59.9387V54.8225C266.731 54.1724 263.828 53.82 260.911 53.7712C255.468 53.7712 251.343 55.0358 248.536 57.565C245.748 60.0579 244.208 63.6591 244.332 67.3975C244.255 71.0571 245.699 74.585 248.32 77.14C250.973 79.7858 254.937 81.1092 260.211 81.11C263.45 81.0779 266.676 80.6846 269.827 79.9375V75.0625C267.373 75.901 264.8 76.3399 262.206 76.3625Z" fill="#405661"/>
</svg>
