<svg width="65" height="65" viewBox="0 0 65 65" fill="none" xmlns="http://www.w3.org/2000/svg">
<path d="M10.8334 40.625C10.8334 49.6085 18.0998 56.875 27.0834 56.875L24.7623 52.2329M54.1667 24.375C54.1667 15.3914 46.9002 8.12496 37.9167 8.12496L40.2377 12.767M10.2619 24.4752C8.3444 25.5125 3.32315 27.6304 6.38086 30.2791C7.87586 31.5737 9.54149 32.5 11.635 32.5H23.5761C25.6669 32.5 27.3325 31.5737 28.8275 30.2791C31.8879 27.6304 26.864 25.5125 24.9465 24.4752C20.4534 22.0431 14.755 22.0431 10.2619 24.4752ZM23.6979 11.5727C23.7022 12.3769 23.548 13.1741 23.244 13.9187C22.94 14.6633 22.4922 15.3407 21.9263 15.9122C21.3604 16.4837 20.6874 16.938 19.9457 17.2492C19.2041 17.5604 18.4085 17.7225 17.6042 17.726C16.7999 17.7225 16.0043 17.5604 15.2626 17.2492C14.521 16.938 13.848 16.4837 13.2821 15.9122C12.7162 15.3407 12.2684 14.6633 11.9644 13.9187C11.6604 13.1741 11.5062 12.3769 11.5104 11.5727C11.5058 10.7682 11.6598 9.97068 11.9636 9.22576C12.2675 8.48085 12.7152 7.80313 13.2811 7.23138C13.8471 6.65963 14.5202 6.20506 15.262 5.89367C16.0038 5.58228 16.7997 5.42017 17.6042 5.41663C18.4087 5.42017 19.2046 5.58228 19.9464 5.89367C20.6882 6.20506 21.3613 6.65963 21.9272 7.23138C22.4932 7.80313 22.9409 8.48085 23.2447 9.22576C23.5486 9.97068 23.7026 10.7682 23.6979 11.5727ZM40.0536 51.5585C38.1361 52.5958 33.1148 54.7137 36.1725 57.3625C37.6675 58.657 39.3332 59.5833 41.4267 59.5833H53.3677C55.4586 59.5833 57.1242 58.657 58.6192 57.3625C61.6796 54.7137 56.6557 52.5958 54.7382 51.5585C50.245 49.1264 44.5467 49.1264 40.0536 51.5585ZM53.4896 38.656C53.4942 39.4605 53.3402 40.258 53.0364 41.0029C52.7326 41.7478 52.2849 42.4255 51.7189 42.9973C51.153 43.569 50.4798 44.0236 49.738 44.335C48.9962 44.6464 48.2003 44.8085 47.3959 44.812C46.5914 44.8085 45.7955 44.6464 45.0537 44.335C44.3119 44.0236 43.6388 43.569 43.0728 42.9973C42.5068 42.4255 42.0591 41.7478 41.7553 41.0029C41.4515 40.258 41.2975 39.4605 41.3021 38.656C41.2975 37.8515 41.4515 37.054 41.7553 36.3091C42.0591 35.5642 42.5068 34.8865 43.0728 34.3147C43.6388 33.743 44.3119 33.2884 45.0537 32.977C45.7955 32.6656 46.5914 32.5035 47.3959 32.5C48.2003 32.5035 48.9962 32.6656 49.738 32.977C50.4798 33.2884 51.153 33.743 51.7189 34.3147C52.2849 34.8865 52.7326 35.5642 53.0364 36.3091C53.3402 37.054 53.4942 37.8515 53.4896 38.656Z" stroke="white" stroke-width="3" stroke-linecap="round" stroke-linejoin="round"/>
</svg>
