<svg width="65" height="65" viewBox="0 0 65 65" fill="none" xmlns="http://www.w3.org/2000/svg">
<path d="M49.2375 21.775L50.4914 20.5183C51.4899 19.5195 52.8442 18.9583 54.2564 18.958C55.6687 18.9578 57.0232 19.5185 58.0219 20.517C59.0207 21.5154 59.582 22.8697 59.5822 24.2819C59.5825 25.6942 59.0217 27.0487 58.0233 28.0475L56.7693 29.3041M49.2375 21.775C49.2375 21.775 49.3946 24.44 51.7481 26.7935C54.1016 29.1471 56.7693 29.3041 56.7693 29.3041M49.2375 21.775L37.7 33.3125C36.9146 34.0925 36.5246 34.4852 36.1887 34.9158C35.7915 35.425 35.4539 35.9721 35.1758 36.5571C34.9402 37.05 34.7668 37.5727 34.4175 38.6208L33.2989 41.9791L32.936 43.0652M56.7693 29.3041L45.2318 40.8416C44.4464 41.6271 44.0564 42.0171 43.6258 42.3529C43.1166 42.7501 42.5696 43.0877 41.9846 43.3658C41.4916 43.6014 40.9689 43.7748 39.9208 44.1241L36.5625 45.2427L35.4764 45.6056M32.936 43.0652L32.5758 44.1539C32.4919 44.4066 32.4799 44.6777 32.5413 44.9368C32.6026 45.196 32.7348 45.4329 32.9231 45.6212C33.1114 45.8095 33.3484 45.9417 33.6075 46.003C33.8666 46.0644 34.1377 46.0524 34.3904 45.9685L35.4764 45.6056M32.936 43.0652L35.4764 45.6056" stroke="white" stroke-width="2"/>
<path d="M21.6667 35.2083H28.4375M21.6667 24.375H39.2708M21.6667 46.0416H25.7292M8.125 37.9166V27.0833C8.125 16.8702 8.125 11.7623 11.2992 8.59079C14.4733 5.41933 19.5785 5.41663 29.7917 5.41663H35.2083C45.4215 5.41663 50.5294 5.41663 53.7008 8.59079M56.875 37.9166C56.875 48.1297 56.875 53.2377 53.7008 56.4091M53.7008 56.4091C50.5294 59.5833 45.4215 59.5833 35.2083 59.5833H29.7917C19.5785 59.5833 14.4706 59.5833 11.2992 56.4091M53.7008 56.4091C56.2575 53.8552 56.7531 50.05 56.8506 43.3333" stroke="white" stroke-width="2" stroke-linecap="round"/>
</svg>
