<svg width="65" height="65" viewBox="0 0 65 65" fill="none" xmlns="http://www.w3.org/2000/svg">
<path d="M41.9847 59.6375C41.0187 59.6375 40.0951 59.4515 39.214 59.0796C38.3329 58.7094 37.5954 58.1479 37.0013 57.395L24.0528 41.0637L25.4855 39.6662C25.9495 39.2022 26.5002 38.9115 27.1376 38.7942C27.7749 38.6768 28.4033 38.768 29.0226 39.0677L40.8336 44.1404V19.0098H44.6876C47.3201 19.0098 49.5581 19.9315 51.4015 21.775C53.245 23.6221 54.1667 25.861 54.1667 28.4917V50.1583C54.1667 52.789 53.245 55.0261 51.4015 56.8696C49.5581 58.7131 47.3201 59.6348 44.6876 59.6348L41.9847 59.6375ZM17.9184 56.875C16.7051 56.875 15.6723 56.4489 14.8201 55.5967C13.9679 54.7444 13.5417 53.7126 13.5417 52.501V12.499C13.5417 11.2892 13.9679 10.2574 14.8201 9.40333C15.6723 8.55111 16.7051 8.125 17.9184 8.125H39.168C40.3777 8.125 41.4096 8.55111 42.2636 9.40333C43.1158 10.2556 43.542 11.2883 43.542 12.5017V19.0098H40.8336V12.5017C40.8336 12.0142 40.6774 11.6142 40.3651 11.3019C40.0527 10.9895 39.6537 10.8333 39.168 10.8333H17.9184C17.4309 10.8333 17.031 10.9895 16.7186 11.3019C16.4063 11.6142 16.2501 12.0142 16.2501 12.5017V52.501C16.2501 52.9867 16.4063 53.3858 16.7186 53.6981C17.031 54.0105 17.4309 54.1667 17.9184 54.1667H34.3905L36.5842 56.875H17.9184ZM28.5432 19.7925C29.1011 19.7925 29.5877 19.5849 30.003 19.1696C30.4183 18.7543 30.6259 18.2668 30.6259 17.7071C30.6259 17.1474 30.4183 16.6608 30.003 16.2473C29.5877 15.832 29.1002 15.6244 28.5405 15.6244C27.9808 15.6244 27.4951 15.8329 27.0834 16.25C26.6717 16.6671 26.4641 17.1546 26.4605 17.7125C26.4605 18.2704 26.6681 18.757 27.0834 19.1723C27.4987 19.5876 27.9862 19.7952 28.5459 19.7952M42.0388 56.9292H44.6903C46.5626 56.9292 48.1588 56.2719 49.4786 54.9575C50.8003 53.6394 51.4611 52.0397 51.4611 50.1583V28.4917C51.4611 26.6211 50.8003 25.025 49.4786 23.7033C48.157 22.3817 46.5599 21.7199 44.6876 21.7181H43.542V48.3085L28.0422 41.6352L38.8945 55.4585C39.27 55.9478 39.734 56.3153 40.2865 56.5608C40.839 56.8064 41.4222 56.9283 42.0361 56.9265" fill="white"/>
</svg>
