<svg width="60" height="60" viewBox="0 0 60 60" fill="none" xmlns="http://www.w3.org/2000/svg">
<path d="M49.1175 38.84H10.8825M49.1175 38.84V20C49.1175 15.285 49.1175 12.93 47.6525 11.465C46.19 10 43.8325 10 39.1175 10H20.8825C16.1675 10 13.8125 10 12.3475 11.465C10.8825 12.93 10.8825 15.285 10.8825 20V38.84M49.1175 38.84L53.4775 43.34L53.6975 43.57C54.4994 44.451 54.9604 45.5893 54.9975 46.78L55 47.0975C55 47.4725 55 47.6575 54.99 47.815C54.9133 49.0297 54.3961 50.1748 53.5355 51.0355C52.6748 51.8961 51.5297 52.4133 50.315 52.49C50.076 52.5002 49.8367 52.5035 49.5975 52.5H10.4025C10.0275 52.5 9.8425 52.5 9.685 52.49C8.47025 52.4133 7.3252 51.8961 6.46453 51.0355C5.60386 50.1748 5.0867 49.0297 5.01 47.815C5 47.6575 5 47.47 5 47.1L5.0025 46.7825C5.0396 45.5918 5.5006 44.4535 6.3025 43.5725L6.5225 43.3425L10.8825 38.84M23.75 46.25H36.25" stroke="#F5F5F5" stroke-width="2.8125" stroke-linecap="round"/>
<path d="M31.875 16.875C31.875 17.3723 31.6775 17.8492 31.3258 18.2008C30.9742 18.5525 30.4973 18.75 30 18.75C29.5027 18.75 29.0258 18.5525 28.6742 18.2008C28.3225 17.8492 28.125 17.3723 28.125 16.875C28.125 16.3777 28.3225 15.9008 28.6742 15.5492C29.0258 15.1975 29.5027 15 30 15C30.4973 15 30.9742 15.1975 31.3258 15.5492C31.6775 15.9008 31.875 16.3777 31.875 16.875Z" fill="#F5F5F5"/>
</svg>
