<svg width="60" height="60" viewBox="0 0 60 60" fill="none" xmlns="http://www.w3.org/2000/svg">
<path d="M19.5 36C19.1022 36 18.7206 35.842 18.4393 35.5607C18.158 35.2794 18 34.8978 18 34.5C18 34.1022 18.158 33.7206 18.4393 33.4393C18.7206 33.158 19.1022 33 19.5 33H40.5C40.8978 33 41.2794 33.158 41.5607 33.4393C41.842 33.7206 42 34.1022 42 34.5C42 34.8978 41.842 35.2794 41.5607 35.5607C41.2794 35.842 40.8978 36 40.5 36H19.5ZM19.5 45C19.1022 45 18.7206 44.842 18.4393 44.5607C18.158 44.2794 18 43.8978 18 43.5C18 43.1022 18.158 42.7206 18.4393 42.4393C18.7206 42.158 19.1022 42 19.5 42H40.5C40.8978 42 41.2794 42.158 41.5607 42.4393C41.842 42.7206 42 43.1022 42 43.5C42 43.8978 41.842 44.2794 41.5607 44.5607C41.2794 44.842 40.8978 45 40.5 45H19.5Z" fill="white"/>
<path fill-rule="evenodd" clip-rule="evenodd" d="M33.555 3H13.5C12.3065 3 11.1619 3.47411 10.318 4.31802C9.47411 5.16193 9 6.30653 9 7.5V52.5C9 53.6935 9.47411 54.8381 10.318 55.682C11.1619 56.5259 12.3065 57 13.5 57H46.5C47.6935 57 48.8381 56.5259 49.682 55.682C50.5259 54.8381 51 53.6935 51 52.5V21.606C50.9997 20.4794 50.5769 19.3939 49.815 18.564L36.873 4.458C36.4512 3.99824 35.9385 3.6312 35.3673 3.3802C34.7961 3.12921 34.1789 2.99973 33.555 3ZM12 7.5C12 7.10218 12.158 6.72064 12.4393 6.43934C12.7206 6.15804 13.1022 6 13.5 6H33.555C33.7631 5.99977 33.9691 6.04286 34.1596 6.12653C34.3502 6.2102 34.5213 6.33262 34.662 6.486L47.604 20.592C47.8583 20.8685 47.9996 21.2303 48 21.606V52.5C48 52.8978 47.842 53.2794 47.5607 53.5607C47.2794 53.842 46.8978 54 46.5 54H13.5C13.1022 54 12.7206 53.842 12.4393 53.5607C12.158 53.2794 12 52.8978 12 52.5V7.5Z" fill="white"/>
<path d="M33 21H49.5C49.8978 21 50.2794 21.158 50.5607 21.4393C50.842 21.7206 51 22.1022 51 22.5C51 22.8978 50.842 23.2794 50.5607 23.5607C50.2794 23.842 49.8978 24 49.5 24H31.5C31.1022 24 30.7206 23.842 30.4393 23.5607C30.158 23.2794 30 22.8978 30 22.5V4.5C30 4.10218 30.158 3.72064 30.4393 3.43934C30.7206 3.15804 31.1022 3 31.5 3C31.8978 3 32.2794 3.15804 32.5607 3.43934C32.842 3.72064 33 4.10218 33 4.5V21Z" fill="white"/>
</svg>
