<svg width="45" height="45" viewBox="0 0 45 45" fill="none" xmlns="http://www.w3.org/2000/svg">
<path fill-rule="evenodd" clip-rule="evenodd" d="M17.768 12.825C16.5283 13.7542 15.968 14.868 15.968 15.9075C15.968 16.947 16.5283 18.063 17.768 18.9945C19.01 19.926 20.828 20.5695 22.9318 20.5695C23.5285 20.5695 24.1008 20.8066 24.5228 21.2285C24.9447 21.6505 25.1818 22.2228 25.1818 22.8195C25.1818 23.4162 24.9447 23.9885 24.5228 24.4105C24.1008 24.8324 23.5285 25.0695 22.9318 25.0695C19.9483 25.0695 17.1605 24.165 15.068 22.5945C12.9755 21.024 11.468 18.684 11.468 15.9097C11.468 13.1355 12.9755 10.7933 15.068 9.22275C17.1605 7.6545 19.9505 6.75 22.9318 6.75C27.551 6.75 31.9183 8.96175 33.6553 12.645C33.7813 12.9124 33.8534 13.202 33.8675 13.4973C33.8816 13.7926 33.8374 14.0877 33.7374 14.3659C33.6374 14.6441 33.4837 14.8999 33.2848 15.1186C33.086 15.3374 32.846 15.5149 32.5786 15.6409C32.3112 15.7669 32.0216 15.839 31.7264 15.8531C31.4311 15.8672 31.1359 15.823 30.8577 15.723C30.5795 15.6231 30.3238 15.4693 30.105 15.2704C29.8862 15.0716 29.7088 14.8317 29.5828 14.5642C28.7953 12.8835 26.3383 11.25 22.934 11.25C20.8303 11.25 19.01 11.8935 17.768 12.825Z" fill="white"/>
<path fill-rule="evenodd" clip-rule="evenodd" d="M27.3531 32.8118C28.5929 31.8825 29.1509 30.7688 29.1509 29.7292C29.1509 28.6898 28.5929 27.5715 27.3509 26.6423C26.1111 25.7107 24.2909 25.0672 22.1894 25.0672C21.5926 25.0672 21.0203 24.8302 20.5984 24.4082C20.1764 23.9863 19.9394 23.414 19.9394 22.8172C19.9394 22.2205 20.1764 21.6482 20.5984 21.2263C21.0203 20.8043 21.5926 20.5672 22.1894 20.5672C25.1729 20.5672 27.9606 21.4718 30.0531 23.0422C32.1456 24.6128 33.6509 26.9527 33.6509 29.727C33.6509 32.5012 32.1456 34.8435 30.0509 36.4118C27.9584 37.9823 25.1729 38.8868 22.1894 38.8868C17.5701 38.8868 13.2006 36.675 11.4659 32.9895C11.2114 32.4498 11.1817 31.831 11.3834 31.2694C11.5851 30.7078 12.0016 30.2493 12.5414 29.9948C13.0811 29.7402 13.6999 29.7106 14.2615 29.9123C14.8231 30.114 15.2816 30.5305 15.5361 31.0702C16.3281 32.7533 18.7851 34.3867 22.1894 34.3867C24.2931 34.3867 26.1111 33.7432 27.3531 32.8118ZM22.4999 2.25C23.0966 2.25 23.6689 2.48705 24.0909 2.90901C24.5128 3.33097 24.7499 3.90326 24.7499 4.5V6.75C24.7499 7.34674 24.5128 7.91903 24.0909 8.34099C23.6689 8.76295 23.0966 9 22.4999 9C21.9031 9 21.3308 8.76295 20.9089 8.34099C20.4869 7.91903 20.2499 7.34674 20.2499 6.75V4.5C20.2499 3.90326 20.4869 3.33097 20.9089 2.90901C21.3308 2.48705 21.9031 2.25 22.4999 2.25Z" fill="white"/>
<path fill-rule="evenodd" clip-rule="evenodd" d="M22.5 36C23.0967 36 23.669 36.2371 24.091 36.659C24.5129 37.081 24.75 37.6533 24.75 38.25V40.5C24.75 41.0967 24.5129 41.669 24.091 42.091C23.669 42.5129 23.0967 42.75 22.5 42.75C21.9033 42.75 21.331 42.5129 20.909 42.091C20.4871 41.669 20.25 41.0967 20.25 40.5V38.25C20.25 37.6533 20.4871 37.081 20.909 36.659C21.331 36.2371 21.9033 36 22.5 36Z" fill="white"/>
</svg>
