<svg width="10" height="17" viewBox="0 0 10 17" fill="none" xmlns="http://www.w3.org/2000/svg">
<path fill-rule="evenodd" clip-rule="evenodd" d="M2.05305 1.158L9.29605 8.414C9.36125 8.4763 9.41298 8.5513 9.44807 8.63437C9.48316 8.71744 9.50085 8.80682 9.50005 8.897C9.50045 8.98919 9.48264 9.08056 9.44763 9.16585C9.41262 9.25114 9.36111 9.32867 9.29605 9.394C6.67605 11.95 4.15105 14.417 1.72105 16.795C1.59605 16.912 1.09605 17.203 0.710052 16.771C0.324052 16.338 0.558052 15.961 0.710052 15.805L7.77805 8.897L1.03105 2.138C0.785052 1.79867 0.805052 1.48567 1.09105 1.199C1.37772 0.912332 1.69838 0.897999 2.05305 1.158Z" fill="#8ECEFF"/>
</svg>
