<svg width="81" height="81" viewBox="0 0 81 81" fill="none" xmlns="http://www.w3.org/2000/svg">
<path d="M24.2873 34.2463C24.2872 34.4125 24.3199 34.5771 24.3835 34.7307C24.4471 34.8842 24.5403 35.0238 24.6579 35.1413C24.7754 35.2588 24.9149 35.3521 25.0685 35.4156C25.2221 35.4792 25.3867 35.5119 25.5529 35.5119H32.96C33.1262 35.5119 33.2908 35.4792 33.4444 35.4156C33.598 35.3521 33.7375 35.2588 33.855 35.1413C33.9726 35.0238 34.0658 34.8842 34.1294 34.7307C34.193 34.5771 34.2257 34.4125 34.2256 34.2463V27.9923C35.8826 27.6952 37.3824 26.825 38.4627 25.5338C39.5429 24.2427 40.1348 22.6128 40.1348 20.9294C40.1348 19.246 39.5429 17.6161 38.4627 16.325C37.3824 15.0338 35.8826 14.1636 34.2256 13.8665V7.61377C34.2257 7.44755 34.193 7.28296 34.1294 7.12938C34.0658 6.97581 33.9726 6.83627 33.855 6.71874C33.7375 6.6012 33.598 6.50798 33.4444 6.44439C33.2908 6.38081 33.1262 6.3481 32.96 6.34814H10.6324C9.15571 6.34963 7.73995 6.93684 6.69574 7.98093C5.65153 9.02502 5.06416 10.4407 5.0625 11.9174V34.2463C5.06246 34.4125 5.09516 34.5771 5.15875 34.7307C5.22234 34.8842 5.31556 35.0238 5.43309 35.1413C5.55063 35.2588 5.69017 35.3521 5.84374 35.4156C5.99731 35.4792 6.16191 35.5119 6.32812 35.5119H13.7352C13.9015 35.5119 14.0661 35.4792 14.2196 35.4156C14.3732 35.3521 14.5127 35.2588 14.6303 35.1413C14.7478 35.0238 14.841 34.8842 14.9046 34.7307C14.9682 34.5771 15.0009 34.4125 15.0009 34.2463C15.0143 33.0236 15.5093 31.8556 16.3787 30.9958C17.248 30.1359 18.4213 29.6536 19.6441 29.6536C20.8668 29.6536 22.0402 30.1359 22.9095 30.9958C23.7788 31.8556 24.2739 33.0236 24.2873 34.2463ZM12.5815 32.9806H7.59375V11.9174C7.59485 11.1119 7.91536 10.3397 8.48499 9.77018C9.05462 9.20067 9.82687 8.88032 10.6324 8.87939H31.6944V15.0209C31.6943 15.1871 31.727 15.3517 31.7906 15.5053C31.8542 15.6588 31.9474 15.7984 32.065 15.9159C32.1825 16.0334 32.3221 16.1267 32.4756 16.1903C32.6292 16.2538 32.7938 16.2865 32.96 16.2865C34.1824 16.3002 35.35 16.7954 36.2096 17.6647C37.0691 18.5339 37.5512 19.707 37.5511 20.9295C37.5511 22.1519 37.069 23.325 36.2095 24.1942C35.3499 25.0635 34.1822 25.5586 32.9599 25.5723C32.7937 25.5723 32.6291 25.605 32.4755 25.6686C32.322 25.7322 32.1824 25.8254 32.0649 25.9429C31.9474 26.0605 31.8542 26.2 31.7906 26.3536C31.727 26.5071 31.6943 26.6717 31.6944 26.8379V32.9806H26.7067C26.3977 31.3334 25.5227 29.8459 24.233 28.7756C22.9433 27.7053 21.32 27.1195 19.6441 27.1195C17.9681 27.1195 16.3448 27.7053 15.0551 28.7756C13.7654 29.8459 12.8904 31.3334 12.5815 32.9806Z" fill="white"/>
<path d="M70.3679 19.6641H48.0402C47.874 19.664 47.7094 19.6967 47.5558 19.7603C47.4023 19.8239 47.2627 19.9171 47.1452 20.0347C47.0277 20.1522 46.9344 20.2917 46.8708 20.4453C46.8073 20.5989 46.7746 20.7635 46.7746 20.9297V28.3368C46.7746 28.503 46.8073 28.6676 46.8708 28.8212C46.9344 28.9748 47.0277 29.1143 47.1452 29.2318C47.2627 29.3494 47.4023 29.4426 47.5558 29.5062C47.7094 29.5698 47.874 29.6025 48.0402 29.6024C49.2627 29.616 50.4305 30.1111 51.2901 30.9804C52.1498 31.8496 52.6319 33.0229 52.6319 34.2454C52.6319 35.4679 52.1497 36.6411 51.29 37.5104C50.4304 38.3796 49.2625 38.8747 48.0401 38.8882C47.8739 38.8882 47.7093 38.9209 47.5557 38.9845C47.4022 39.0481 47.2627 39.1413 47.1451 39.2588C47.0276 39.3764 46.9344 39.5159 46.8708 39.6695C46.8073 39.823 46.7746 39.9876 46.7746 40.1538V45.4883H41.7863C41.489 43.8315 40.6187 42.3321 39.3277 41.2521C38.0367 40.1721 36.4071 39.5804 34.724 39.5804C33.0408 39.5804 31.4112 40.1721 30.1202 41.2521C28.8292 42.3321 27.959 43.8315 27.6617 45.4883H21.4077C21.2415 45.4882 21.0769 45.5209 20.9233 45.5845C20.7698 45.6481 20.6302 45.7413 20.5127 45.8588C20.3952 45.9764 20.3019 46.1159 20.2383 46.2695C20.1748 46.4231 20.142 46.5877 20.1421 46.7539V69.0828C20.1437 70.5594 20.7311 71.9751 21.7753 73.0192C22.8195 74.0633 24.2353 74.6506 25.712 74.652H70.3679C71.8445 74.6506 73.2603 74.0633 74.3045 73.0192C75.3487 71.9751 75.9361 70.5594 75.9377 69.0828V25.2333C75.9361 23.7566 75.3487 22.341 74.3045 21.2969C73.2603 20.2528 71.8445 19.6655 70.3679 19.6641ZM55.2144 34.2459C55.2124 32.5631 54.6199 30.9343 53.5402 29.6435C52.4604 28.3527 50.9619 27.4817 49.3059 27.1825V22.1953H70.3679C71.1734 22.1962 71.9456 22.5166 72.5153 23.0861C73.0849 23.6556 73.4054 24.4278 73.4065 25.2333V45.4883H67.265C67.0988 45.4882 66.9342 45.5209 66.7806 45.5845C66.627 45.6481 66.4875 45.7413 66.37 45.8588C66.2524 45.9764 66.1592 46.1159 66.0956 46.2695C66.032 46.4231 65.9993 46.5877 65.9994 46.7539C65.9857 47.9763 65.4904 49.1441 64.6211 50.0036C63.7518 50.8632 62.5786 51.3453 61.3561 51.3453C60.1336 51.3453 58.9604 50.8631 58.0911 50.0035C57.2218 49.1439 56.7266 47.9762 56.713 46.7537C56.713 46.5875 56.6803 46.4229 56.6167 46.2694C56.5531 46.1158 56.4599 45.9763 56.3423 45.8588C56.2248 45.7413 56.0853 45.6481 55.9317 45.5845C55.7781 45.5209 55.6135 45.4882 55.4473 45.4883H49.3058V41.3082C50.9617 41.0091 52.4601 40.1383 53.5398 38.8477C54.6196 37.5572 55.2122 35.9286 55.2144 34.2459ZM22.6733 69.0828V48.0195H28.8154C28.9816 48.0195 29.1462 47.9868 29.2998 47.9233C29.4534 47.8597 29.5929 47.7664 29.7104 47.6489C29.828 47.5314 29.9212 47.3918 29.9848 47.2383C30.0484 47.0847 30.0811 46.9201 30.081 46.7539C30.0831 45.5238 30.5731 44.3449 31.4436 43.4758C32.3141 42.6068 33.4939 42.1187 34.7239 42.1187C35.954 42.1187 37.1338 42.6068 38.0042 43.4758C38.8747 44.3449 39.3648 45.5238 39.3668 46.7539C39.3668 46.9201 39.3995 47.0847 39.4631 47.2383C39.5267 47.3918 39.6199 47.5314 39.7374 47.6489C39.8549 47.7664 39.9945 47.8597 40.1481 47.9233C40.3016 47.9868 40.4662 48.0195 40.6324 48.0195H46.7745V53.0078C45.1175 53.305 43.6177 54.1752 42.5375 55.4663C41.4573 56.7575 40.8654 58.3873 40.8654 60.0707C40.8654 61.7542 41.4573 63.384 42.5375 64.6752C43.6177 65.9663 45.1175 66.8365 46.7745 67.1337V72.1208H25.712C24.9065 72.1198 24.1342 71.7995 23.5646 71.23C22.9949 70.6605 22.6744 69.8883 22.6733 69.0828ZM70.3679 72.1208H49.3058V65.9793C49.3059 65.8131 49.2732 65.6485 49.2096 65.4949C49.146 65.3413 49.0528 65.2018 48.9353 65.0842C48.8177 64.9667 48.6782 64.8735 48.5246 64.8099C48.371 64.7463 48.2064 64.7136 48.0402 64.7136C46.8089 64.7136 45.6279 64.2245 44.7572 63.3538C43.8865 62.4831 43.3973 61.3021 43.3973 60.0707C43.3973 58.8394 43.8865 57.6584 44.7572 56.7877C45.6279 55.917 46.8089 55.4279 48.0402 55.4279C48.2064 55.4279 48.371 55.3952 48.5246 55.3316C48.6782 55.268 48.8177 55.1748 48.9353 55.0573C49.0528 54.9397 49.146 54.8002 49.2096 54.6466C49.2732 54.493 49.3059 54.3284 49.3058 54.1622V48.8266H54.2936C54.5906 50.4836 55.4608 51.9834 56.7519 53.0636C58.043 54.1438 59.6728 54.7357 61.3562 54.7357C63.0396 54.7357 64.6694 54.1438 65.9605 53.0636C67.2516 51.9834 68.1217 50.4836 68.4188 48.8266H73.4065V69.0828C73.4054 69.8883 73.0849 70.6605 72.5152 71.23C71.9456 71.7995 71.1734 72.1199 70.3679 72.1208Z" fill="white"/>
</svg>
