<svg width="72" height="72" viewBox="0 0 72 72" fill="none" xmlns="http://www.w3.org/2000/svg">
<path fill-rule="evenodd" clip-rule="evenodd" d="M43.3574 48.1117H22.8633C22.3175 48.1117 21.875 47.6693 21.875 47.1235V39.6664C21.875 38.0352 22.5229 36.4712 23.6762 35.3177C24.8296 34.1645 26.3938 33.5165 28.0248 33.5165H30.2074C30.4627 33.5165 30.708 33.6153 30.8921 33.7922L33.1089 35.9218L35.315 33.7936C35.4991 33.6159 35.7452 33.5165 36.0012 33.5165H38.1958C39.8268 33.5165 41.391 34.1645 42.5444 35.3177C43.6977 36.4712 44.3457 38.0352 44.3457 39.6664V47.1235C44.3457 47.6693 43.9032 48.1117 43.3574 48.1117ZM39.1704 46.1353H42.3692V39.6664C42.3692 38.5596 41.9294 37.4979 41.1468 36.7154C40.3641 35.9327 39.3026 35.4929 38.1958 35.4929H36.4001L33.7964 38.0049C33.4141 38.3738 32.8087 38.3744 32.4256 38.0063L29.8096 35.4929H28.0248C26.918 35.4929 25.8565 35.9327 25.0738 36.7154C24.2911 37.4979 23.8515 38.5596 23.8515 39.6664V46.1353H27.0502V41.0663C27.0502 40.5208 27.4929 40.0781 28.0384 40.0781C28.5838 40.0781 29.0266 40.5208 29.0266 41.0663V46.1353H37.194V41.0663C37.194 40.5208 37.6368 40.0781 38.1822 40.0781C38.7277 40.0781 39.1704 40.5208 39.1704 41.0663V46.1353ZM68.3971 25.5617H69.8828C70.4282 25.5617 70.871 26.0046 70.871 26.55C70.871 27.0955 70.4282 27.5382 69.8828 27.5382H45.1217C44.5764 27.5382 44.1335 27.0955 44.1335 26.55C44.1335 26.0046 44.5764 25.5617 45.1217 25.5617H46.6075V19.5646C46.6075 18.5736 47.4108 17.7702 48.4017 17.7702H51.1518C52.1427 17.7702 52.946 18.5736 52.946 19.5646V25.5617H54.3331V16.448C54.3331 15.457 55.1364 14.6537 56.1273 14.6537H58.8773C59.8682 14.6537 60.6715 15.457 60.6715 16.448V25.5617H62.0585V13.3313C62.0585 12.3404 62.8618 11.5371 63.8527 11.5371H66.6029C67.5938 11.5371 68.3971 12.3404 68.3971 13.3313V25.5617ZM48.5839 25.5617H50.9695V19.7467H48.5839V25.5617ZM56.3095 25.5617H58.695V16.6302H56.3095V25.5617ZM64.035 25.5617H66.4206V13.5136H64.035V25.5617ZM13.5232 61.3843C6.81773 56.2912 2.18912 48.6033 1.13693 39.8228C1.10319 39.5419 1.1917 39.2598 1.37975 39.0485C1.56794 38.837 1.83773 38.7163 2.12065 38.717L9.1141 38.7355C9.59989 38.7368 10.0128 39.091 10.0879 39.571C10.987 45.319 14.0227 50.3624 18.3551 53.8635C18.7395 54.1743 18.8352 54.7213 18.5791 55.1441L14.9662 61.1093C14.821 61.349 14.581 61.5157 14.3059 61.5681C14.0307 61.6206 13.7462 61.5537 13.5232 61.3843ZM13.855 59.129L16.4494 54.8456C12.3027 51.2511 9.35297 46.312 8.28003 40.7097C8.28003 40.7097 3.2533 40.6966 3.2533 40.6964C4.42253 48.0911 8.30855 54.5869 13.855 59.129ZM24.6551 57.4799C27.1779 58.4345 29.9125 58.9568 32.7679 58.9568C43.218 58.9568 52.0469 51.9595 54.8197 42.3984H50.3789C49.97 42.3984 49.6034 42.1467 49.4566 41.7651C49.3097 41.3835 49.4131 40.951 49.7166 40.6768L58.853 32.4252C59.2292 32.0854 59.8015 32.0854 60.1776 32.4252L69.3142 40.6768C69.6175 40.951 69.7209 41.3835 69.5741 41.7651C69.4272 42.1467 69.0606 42.3984 68.6518 42.3984H63.9826C61.0168 56.9194 48.16 67.8588 32.7679 67.8588C28.3375 67.8588 24.1171 66.9521 20.282 65.3151C20.0187 65.2027 19.8171 64.9815 19.7293 64.709C19.6416 64.4364 19.6764 64.1392 19.8247 63.8943L23.46 57.8923C23.7068 57.4847 24.2094 57.3113 24.6551 57.4799ZM24.7319 59.6074L22.1166 63.9253C25.4258 65.1898 29.0166 65.8823 32.7679 65.8823C47.4737 65.8823 59.7132 55.2368 62.1919 41.238C62.2755 40.766 62.6856 40.422 63.1651 40.422H66.0832L59.5154 34.4902L52.9476 40.422H56.0979C56.3992 40.422 56.6841 40.5595 56.8716 40.7952C57.0591 41.031 57.1287 41.3395 57.0607 41.633C54.5043 52.6846 44.592 60.9332 32.7679 60.9332C29.9568 60.9332 27.2537 60.4668 24.7319 59.6074ZM1.15768 32.0074C1.83265 26.6203 3.85472 21.6495 6.87561 17.4432C7.0494 17.2014 7.323 17.0508 7.62046 17.0333C7.91777 17.0158 8.20719 17.1334 8.40794 17.3533L13.2122 22.613C13.5119 22.9412 13.5557 23.4293 13.319 23.8055C11.7206 26.3477 10.6066 29.2247 10.1074 32.3067C10.0298 32.7863 9.615 33.1383 9.12935 33.137L2.13575 33.1186C1.85269 33.1178 1.58347 32.9958 1.39655 32.7833C1.20949 32.5709 1.12253 32.2884 1.15768 32.0074ZM3.27886 31.1451L8.30573 31.1584C8.85378 28.3789 9.86417 25.7646 11.2534 23.3992L7.78747 19.6047C5.53528 23.0271 3.96723 26.9389 3.27886 31.1451ZM12.197 11.68C15.6222 8.77939 19.6675 6.58875 24.1045 5.33595C24.3732 5.26 24.6613 5.30137 24.8979 5.44974C25.1345 5.59798 25.2973 5.83939 25.346 6.11426L26.5642 12.9787C26.6509 13.4677 26.3612 13.9452 25.8874 14.0941C23.0228 14.9941 20.3996 16.4413 18.1401 18.3126C17.7342 18.6489 17.1356 18.6072 16.7801 18.218L12.1059 13.1007C11.9249 12.9024 11.8323 12.639 11.8494 12.3709C11.8666 12.103 11.9921 11.8535 12.197 11.68ZM14.2692 12.5382L17.6165 16.203C19.6723 14.6268 21.9804 13.3634 24.469 12.4841L23.5943 7.55468C20.1763 8.6577 17.0265 10.3603 14.2692 12.5382ZM31.8348 4.15501C32.1448 4.14612 32.4558 4.1416 32.7679 4.1416C35.9749 4.1416 39.0719 4.61666 41.9923 5.49986C42.2568 5.57991 42.4757 5.76697 42.5959 6.01572C42.7162 6.26461 42.7268 6.55233 42.6252 6.80941L40.0654 13.2792C39.8796 13.7487 39.3699 14.0026 38.8834 13.8684C37.031 13.3569 35.0851 13.0723 33.0773 13.0456C32.603 13.0394 32.2001 12.6972 32.1173 12.2302L30.8903 5.31548C30.84 5.03257 30.9154 4.74188 31.0968 4.51897C31.2782 4.29619 31.5476 4.16334 31.8348 4.15501ZM33.0403 6.1192C33.355 7.89252 33.9229 11.0936 33.9229 11.0936C35.5075 11.166 37.0538 11.3866 38.548 11.742L40.385 7.09911C38.0368 6.48104 35.5759 6.14193 33.0403 6.1192ZM33.1042 19.555C36.4877 19.555 39.2345 22.3018 39.2345 25.6851C39.2345 29.0684 36.4877 31.8153 33.1042 31.8153C29.7209 31.8153 26.9741 29.0684 26.9741 25.6851C26.9741 22.3018 29.7209 19.555 33.1042 19.555ZM33.1042 21.5314C30.8118 21.5314 28.9505 23.3927 28.9505 25.6851C28.9505 27.9777 30.8118 29.8388 33.1042 29.8388C35.3968 29.8388 37.2581 27.9777 37.2581 25.6851C37.2581 23.3927 35.3968 21.5314 33.1042 21.5314Z" fill="white"/>
</svg>
