<svg width="65" height="65" viewBox="0 0 65 65" fill="none" xmlns="http://www.w3.org/2000/svg">
<mask id="mask0_335_13529" style="mask-type:luminance" maskUnits="userSpaceOnUse" x="0" y="0" width="65" height="65">
<path d="M0 7.62939e-06H65V65H0V7.62939e-06Z" fill="white"/>
</mask>
<g mask="url(#mask0_335_13529)">
<path d="M22.7096 8.20803C21.1041 10.2923 20.1494 12.9035 20.1494 15.738C20.1494 22.5589 25.679 28.0884 32.4999 28.0884C39.321 28.0884 44.8504 22.5589 44.8504 15.738C44.8504 8.91694 39.321 3.38737 32.4999 3.38737C29.8915 3.38737 27.4719 4.19606 25.4783 5.57642" stroke="white" stroke-width="2" stroke-miterlimit="10" stroke-linecap="round" stroke-linejoin="round"/>
<path d="M41.0388 24.6611C39.6667 21.1812 37.1113 19.0348 35.0949 17.9381C36.2135 17.1314 36.9422 15.8181 36.9422 14.3336C36.9422 11.8805 34.9535 9.89179 32.5004 9.89179C30.0472 9.89179 28.0584 11.8805 28.0584 14.3336C28.0584 15.8181 28.7873 17.1314 29.9059 17.9381C27.8893 19.0348 25.334 21.1813 23.9619 24.6611" stroke="white" stroke-width="2" stroke-miterlimit="10" stroke-linecap="round" stroke-linejoin="round"/>
<path d="M55.4646 37.517C54.2586 37.1238 52.9709 36.9113 51.6337 36.9113C44.8126 36.9113 39.2832 42.4407 39.2832 49.2618C39.2832 56.0827 44.8126 61.6123 51.6337 61.6123C58.4546 61.6123 63.9841 56.0827 63.9841 49.2618C63.9841 45.1154 61.9408 41.4462 58.8062 39.2064" stroke="white" stroke-width="2" stroke-miterlimit="10" stroke-linecap="round" stroke-linejoin="round"/>
<path d="M60.1725 58.1851C58.8004 54.7053 56.2451 52.5588 54.2287 51.4621C55.3472 50.6553 56.076 49.3421 56.076 47.8577C56.076 45.4044 54.0873 43.4157 51.6342 43.4157C49.1809 43.4157 47.1921 45.4044 47.1921 47.8577C47.1921 49.3421 47.9211 50.6553 49.0395 51.4621C47.0231 52.5588 44.4678 54.7053 43.0957 58.1851" stroke="white" stroke-width="2" stroke-miterlimit="10" stroke-linecap="round" stroke-linejoin="round"/>
<path d="M14.4738 61.5864C20.7637 61.0142 25.6911 55.7263 25.6911 49.2872C25.6911 42.4663 20.1617 36.9367 13.3407 36.9367C6.51968 36.9367 0.990234 42.4663 0.990234 49.2872C0.990234 55.1885 5.12903 60.123 10.6623 61.3465" stroke="white" stroke-width="2" stroke-miterlimit="10" stroke-linecap="round" stroke-linejoin="round"/>
<path d="M21.905 58.1851C20.5329 54.7053 17.9775 52.5588 15.9612 51.4621C17.0796 50.6553 17.8084 49.3421 17.8084 47.8577C17.8084 45.4044 15.8197 43.4157 13.3665 43.4157C10.9132 43.4157 8.92452 45.4044 8.92452 47.8577C8.92452 49.3421 9.65349 50.6553 10.7719 51.4621C8.75555 52.5588 6.20011 54.7053 4.82812 58.1851" stroke="white" stroke-width="2" stroke-miterlimit="10" stroke-linecap="round" stroke-linejoin="round"/>
<path d="M41.2565 42.5635L32.5 36.9114V28.0883" stroke="white" stroke-width="2" stroke-miterlimit="10" stroke-linecap="round" stroke-linejoin="round"/>
<path d="M23.7441 42.5635L32.5006 36.9114" stroke="white" stroke-width="2" stroke-miterlimit="10" stroke-linecap="round" stroke-linejoin="round"/>
</g>
</svg>
