<svg width="46" height="46" viewBox="0 0 46 46" fill="none" xmlns="http://www.w3.org/2000/svg">
<path d="M23.0615 23.2376C22.1626 23.283 21.4106 22.6786 20.6803 22.1675L19.3457 40.8633H26.2661L24.867 22.678C24.3353 23.0421 23.7059 23.237 23.0615 23.237" fill="#D0CFCE"/>
<path d="M20.6787 15.6131C20.6819 15.6536 20.6927 15.693 20.7106 15.7294C20.7857 15.8468 20.9034 15.9305 21.039 15.9626C21.4301 15.6278 21.8991 15.3969 22.4029 15.291C22.9067 15.1852 23.429 15.2078 23.9217 15.3569C24.2226 15.0236 24.4034 14.5993 24.4354 14.1514C24.4389 13.7122 24.3704 13.2754 24.2328 12.8583C23.725 10.9249 23.112 9.02077 22.3967 7.15425C22.1937 6.58511 21.9218 6.04293 21.5872 5.53978C21.4012 5.23798 21.118 5.00857 20.7841 4.88939C20.6162 4.83635 20.4346 4.84766 20.2746 4.92111C20.1146 4.99456 19.9876 5.1249 19.9184 5.28678C19.8882 5.4166 19.8821 5.55088 19.9005 5.68289L20.6787 15.6131Z" fill="white"/>
<path d="M22.9655 19.3577C23.4429 19.3577 23.8299 18.9707 23.8299 18.4933C23.8299 18.0159 23.4429 17.6289 22.9655 17.6289C22.4881 17.6289 22.1011 18.0159 22.1011 18.4933C22.1011 18.9707 22.4881 19.3577 22.9655 19.3577Z" fill="#D0CFCE"/>
<path d="M21.7383 22.453C21.7718 22.4302 21.8006 22.4011 21.8232 22.3674C21.8874 22.2437 21.901 22.0998 21.8609 21.9662C21.3754 21.7949 20.9409 21.5042 20.5973 21.1207C20.2537 20.7373 20.0122 20.2736 19.8951 19.7723C19.4559 19.6785 18.9981 19.7343 18.5943 19.9307C18.2121 20.1471 17.8678 20.4247 17.5753 20.7523C16.1551 22.1588 14.8127 23.6417 13.5541 25.1945C13.1627 25.6547 12.8291 26.1611 12.5606 26.7023C12.3922 27.0143 12.3352 27.3744 12.399 27.7232C12.4782 28.0791 12.8143 28.3174 13.1759 28.2746C13.3036 28.2363 13.4231 28.1743 13.5285 28.0919L21.7383 22.453ZM27.1324 18.1156C27.0957 18.0981 27.056 18.0876 27.0155 18.085C26.8763 18.0913 26.745 18.1516 26.6494 18.253C26.7436 18.7589 26.7091 19.2804 26.5488 19.7694C26.3886 20.2584 26.1079 20.6993 25.7326 21.0513C25.8706 21.4794 26.1479 21.848 26.5197 22.0991C26.8984 22.3221 27.311 22.4816 27.7413 22.5712C29.6693 23.0978 31.6247 23.5189 33.5986 23.8324C34.1928 23.941 34.7984 23.9774 35.4015 23.9391C35.7559 23.9289 36.0962 23.7982 36.3663 23.5685C36.6346 23.3219 36.6729 22.9124 36.4551 22.6204C36.3578 22.5292 36.2445 22.4566 36.1209 22.4064C33.1245 20.9753 30.1288 19.545 27.1324 18.1156Z" fill="white"/>
<path d="M21.0936 24.7869L19.8567 40.8633H26.2661L24.8669 22.678M20.679 15.6131C20.6821 15.6536 20.693 15.693 20.7109 15.7294C20.786 15.8468 20.9037 15.9305 21.0393 15.9626C21.4304 15.6278 21.8994 15.3969 22.4032 15.291C22.9069 15.1852 23.4293 15.2078 23.922 15.3569C24.2229 15.0236 24.4037 14.5993 24.4356 14.1514C24.4391 13.7122 24.3707 13.2754 24.2331 12.8583C23.7253 10.9249 23.1123 9.02077 22.397 7.15425C22.194 6.58511 21.9221 6.04293 21.5875 5.53978C21.4015 5.23798 21.1183 5.00857 20.7844 4.88939C20.6165 4.83635 20.4349 4.84766 20.2749 4.92111C20.1149 4.99456 19.9879 5.1249 19.9187 5.28678C19.8885 5.4166 19.8824 5.55088 19.9008 5.68289L20.679 15.6131ZM21.7383 22.4531C21.7718 22.4302 21.8006 22.4011 21.8232 22.3675C21.8874 22.2437 21.901 22.0998 21.8609 21.9663C21.3754 21.795 20.9409 21.5042 20.5973 21.1208C20.2537 20.7374 20.0122 20.2736 19.8951 19.7723C19.4559 19.6785 18.9981 19.7343 18.5943 19.9308C18.2121 20.1472 17.8678 20.4247 17.5753 20.7524C16.1551 22.1589 14.8127 23.6418 13.5541 25.1946C13.1627 25.6548 12.8291 26.1611 12.5606 26.7023C12.3922 27.0144 12.3352 27.3745 12.399 27.7233C12.4782 28.0791 12.8143 28.3174 13.1759 28.2746C13.3036 28.2363 13.4231 28.1743 13.5285 28.0919L21.7383 22.4531ZM27.1324 18.1157C27.0957 18.0981 27.056 18.0877 27.0155 18.085C26.8763 18.0914 26.745 18.1516 26.6494 18.253C26.7436 18.7589 26.7091 19.2804 26.5488 19.7694C26.3886 20.2585 26.1079 20.6993 25.7326 21.0514C25.8706 21.4794 26.1479 21.8481 26.5197 22.0991C26.8984 22.3222 27.311 22.4816 27.7413 22.5713C29.6693 23.0979 31.6247 23.5189 33.5986 23.8324C34.1928 23.9411 34.7984 23.9775 35.4015 23.9391C35.7559 23.9289 36.0962 23.7982 36.3663 23.5686C36.6346 23.322 36.6729 22.9124 36.4551 22.6205C36.3578 22.5292 36.2445 22.4567 36.1209 22.4064C33.1245 20.9753 30.1288 19.5451 27.1324 18.1157Z" stroke="black" stroke-width="1.27778" stroke-linecap="round" stroke-linejoin="round"/>
<path d="M23.1896 19.8055C23.7905 19.8055 24.2776 19.3183 24.2776 18.7174C24.2776 18.1165 23.7905 17.6294 23.1896 17.6294C22.5887 17.6294 22.1016 18.1165 22.1016 18.7174C22.1016 19.3183 22.5887 19.8055 23.1896 19.8055Z" stroke="black" stroke-width="1.27778" stroke-linecap="round" stroke-linejoin="round"/>
</svg>
