<svg width="46" height="46" viewBox="0 0 46 46" fill="none" xmlns="http://www.w3.org/2000/svg">
<path d="M35.9375 28.7499C35.9375 36.6894 30.9395 41.6874 23 41.6874C15.0605 41.6874 10.0625 36.6894 10.0625 28.7499C10.0625 20.23 19.3371 8.72823 22.1815 5.40132C22.2827 5.28311 22.4083 5.18822 22.5497 5.12316C22.6911 5.0581 22.8448 5.02441 23.0004 5.02441C23.1561 5.02441 23.3098 5.0581 23.4512 5.12316C23.5926 5.18822 23.7182 5.28311 23.8194 5.40132C26.6629 8.72823 35.9375 20.23 35.9375 28.7499Z" stroke="black" stroke-width="2.875" stroke-miterlimit="10"/>
<path d="M30.9062 29.4688C30.9062 31.1844 30.2247 32.8297 29.0116 34.0428C27.7985 35.256 26.1531 35.9375 24.4375 35.9375" stroke="black" stroke-width="2.875" stroke-linecap="round" stroke-linejoin="round"/>
</svg>
