<svg width="289" height="252" viewBox="0 0 289 252" fill="none" xmlns="http://www.w3.org/2000/svg">
<mask id="mask0_101_7178" style="mask-type:luminance" maskUnits="userSpaceOnUse" x="0" y="0" width="289" height="289">
<path d="M0 0H289V289H0V0Z" fill="white"/>
</mask>
<g mask="url(#mask0_101_7178)">
<path fill-rule="evenodd" clip-rule="evenodd" d="M64.8263 174.664C54.0531 171.997 44.4837 165.798 37.6448 157.057C30.8058 148.316 27.0912 137.536 27.0938 126.438V121.922C27.0938 108.748 32.327 96.1138 41.6423 86.7986C50.9576 77.4833 63.5918 72.25 76.7656 72.25H81.2812C94.1669 72.2384 106.552 77.2401 115.815 86.197C125.079 95.1539 130.495 107.363 130.917 120.242V120.296H130.953V126.438C130.953 128.81 130.791 131.134 130.465 133.41C130.104 138.13 129.562 142.766 128.84 147.318C126.935 159.242 123.543 170.881 118.743 181.962C110.137 201.812 96.7145 219.201 79.6917 232.555L77.9216 233.927C77.1735 234.497 76.2607 234.807 75.3206 234.812C74.5434 234.81 73.7801 234.606 73.1045 234.222C72.4289 233.837 71.864 233.285 71.4644 232.619C71.0648 231.952 70.844 231.193 70.8234 230.417C70.8028 229.64 70.9831 228.87 71.3469 228.184C75.6334 220.031 79.5509 211.69 83.0875 203.185C86.6458 194.623 90.2402 184.888 93.1483 174.682C89.2661 175.643 85.2805 176.122 81.2812 176.109H76.7656C72.6353 176.097 68.6556 175.616 64.8263 174.664ZM54.91 200.042C39.0467 195.331 25.1305 185.62 15.2356 172.356C5.34056 159.092 -0.00345035 142.986 1.67135e-06 126.438V121.922C1.67135e-06 101.562 8.08779 82.0367 22.4841 67.6404C36.8805 53.244 56.4061 45.1563 76.7656 45.1563H81.2812C107.508 45.1563 130.646 58.3057 144.5 78.3551C151.559 68.1136 161.002 59.7409 172.014 53.9577C183.027 48.1746 195.28 45.1541 207.719 45.1563H212.234C232.328 45.1521 251.621 53.0263 265.974 67.0884C280.326 81.1505 288.593 100.279 289 120.368V126.438C289 129.749 288.789 133.018 288.368 136.245C284.629 183.569 263.839 225.944 225.366 255.44C219.884 259.633 213.175 261.905 206.274 261.906C182.052 261.906 167.512 236.167 178.313 215.594C180.318 211.783 183.009 206.418 185.863 200.06C171.801 195.873 159.233 187.743 149.648 176.633C139.865 208 120.56 235.543 94.4127 255.44C88.9313 259.633 82.222 261.905 75.3206 261.906C51.0988 261.906 36.5585 236.167 47.3599 215.594C49.3648 211.783 52.0561 206.418 54.91 200.06M195.798 174.664C199.627 175.616 203.607 176.097 207.737 176.109H212.252C216.251 176.104 220.234 175.625 224.12 174.682C220.828 186.188 216.723 197.445 211.837 208.369C208.888 215.079 205.713 221.688 202.318 228.184C201.954 228.87 201.774 229.64 201.795 230.417C201.815 231.193 202.036 231.952 202.436 232.619C202.835 233.285 203.4 233.837 204.076 234.222C204.751 234.606 205.515 234.81 206.292 234.812C207.232 234.807 208.145 234.497 208.893 233.927L210.663 232.555C216.106 228.244 221.115 223.62 225.691 218.683C236.353 207.223 244.858 193.933 250.798 179.451C255.027 169.123 258.046 158.34 259.793 147.318C260.54 142.707 261.089 138.067 261.437 133.41C261.762 131.122 261.924 128.798 261.924 126.438V120.314H261.906V120.242C261.484 107.357 256.063 95.1423 246.792 86.1844C237.52 77.2266 225.126 72.229 212.234 72.25H207.701C194.527 72.25 181.893 77.4833 172.577 86.7986C163.262 96.1138 158.029 108.748 158.029 121.922V126.438C158.029 149.738 174.104 169.318 195.761 174.664" fill="white"/>
</g>
</svg>
