<svg width="302" height="398" viewBox="0 0 302 398" fill="none" xmlns="http://www.w3.org/2000/svg">
<path d="M57.055 282.524C53.6782 279.389 50.389 276.211 47.1877 272.945L0 395.383L7.71843 396.21L57.2304 282.655V282.611H57.1427C57.0988 282.568 57.0988 282.524 57.055 282.524Z" fill="#50A6AA"/>
<path d="M301.981 395.099L184.634 86.0073L182.475 80.3085C204.067 72.3303 225.042 65.4918 242.889 59.9684L243.902 63.7822L248 79.1688L285.28 46.6859C285.28 46.6859 239.143 40.8118 237.645 40.1981L241.258 53.8313L242.36 57.9519C223.015 62.7301 201.82 68.2097 180.36 74.6975L178.2 68.9987L151.981 0L117.874 88.6375L114.085 98.4569C76.2765 114.983 43.5797 135.981 26.7466 163.247C8.37125 196.782 22.3841 229.835 51.82 260.214C55.2571 263.764 58.9146 267.315 62.7483 270.778C103.245 307.469 164.232 339.777 213.85 363.58C220.283 366.649 226.496 369.586 232.445 372.391C232.445 372.435 232.445 372.523 232.489 372.567C252.231 382.693 266.332 388.962 276.423 392.775C277.216 393.17 278.009 393.521 278.758 393.871C278.758 393.871 278.802 393.74 278.802 393.608C303.523 402.463 301.981 395.099 301.981 395.099ZM73.28 249.956C68.6531 245.967 64.3787 241.934 60.4569 237.813C49.9252 226.766 42.0815 215.15 38.0275 203.095C29.3024 167.85 62.9686 137.428 108.577 112.835L103.773 125.372L86.6319 169.954L65.0838 225.977C69.4463 230.405 74.2495 234.569 79.1848 238.427L113.644 170.13L146.605 104.813L238.835 337.892C234.737 336.226 230.506 334.56 226.232 332.807C174.19 311.59 112.278 283.491 73.28 249.956Z" fill="#50A6AA"/>
</svg>
