<svg width="174" height="41" viewBox="0 0 174 41" fill="none" xmlns="http://www.w3.org/2000/svg">
<path d="M5.16117 40.28H5.02117C3.70117 40.28 2.62117 39.56 1.76117 38.1C0.901172 36.64 0.481172 35.08 0.481172 33.46C0.481172 33.18 0.501172 32.9 0.521172 32.62C0.681172 30.7 1.18117 28.9 2.04117 27.24C2.12117 27.1 2.24117 27.02 2.40117 27.02C2.70117 27.04 2.84117 27.18 2.84117 27.48L2.78117 27.66C1.82117 29.5 1.34117 31.48 1.34117 33.6C1.34117 34.56 1.52117 35.54 1.90117 36.54C2.24117 37.4 2.72117 38.14 3.36117 38.72C3.94117 39.18 4.48117 39.42 5.02117 39.42C5.32117 39.42 5.60117 39.34 5.90117 39.2C7.20117 38.52 8.56117 36.94 9.96117 34.48C13.1012 29.14 15.8412 22.36 18.1812 14.18C19.2212 10.54 20.2212 6.88 21.1612 3.22C21.2412 3 21.3812 2.9 21.5612 2.9C21.8412 2.9 21.9812 3.08 21.9812 3.44C21.8012 4.16 21.6212 4.88 21.4612 5.6C20.1612 11.48 19.1612 17.44 18.4412 23.5L18.4012 24.04C18.1012 26.3 17.9612 28.56 17.9612 30.84C17.9612 33.6 18.4012 35.76 19.2812 37.3C20.0012 38.48 20.8012 39.06 21.6612 39.06C22.6012 39.06 23.5612 38.68 24.5212 37.92C26.2212 36.6 27.7812 34.8 29.2212 32.54C31.3012 29.16 33.6012 24.24 36.1012 17.74C38.1812 12.26 40.0012 6.66 41.5812 0.939999C41.6412 0.719998 41.7812 0.619998 41.9812 0.619998C42.2812 0.619998 42.4212 0.759997 42.4212 1.04C42.4212 1.14 42.2012 1.94 41.7812 3.4C40.0812 9.28 38.1012 15.04 35.8412 20.68C34.8212 23.26 33.7212 25.82 32.5212 28.36C31.3412 30.9 29.9212 33.24 28.2612 35.4C27.4812 36.38 26.6612 37.26 25.7612 38.06C24.7812 39 23.6612 39.6 22.4412 39.88C22.2412 39.9 22.0412 39.92 21.8612 39.92C21.0812 39.92 20.4012 39.68 19.8012 39.2C19.0612 38.62 18.5012 37.82 18.0812 36.84C17.2812 34.84 17.1012 32.66 17.1012 30.68C17.1012 28.26 17.3212 25.34 17.7812 21.96C18.1212 18.96 18.3012 17.28 18.3012 16.94V16.86L18.2812 16.88C16.4612 22.82 14.3412 28.14 11.9212 32.8C11.0612 34.48 10.0812 36.06 9.00117 37.54C7.80117 39.22 6.52117 40.14 5.16117 40.28ZM39.6365 26.02C39.8765 26.02 40.1565 25.96 40.4965 25.82C41.1565 25.56 41.7965 25.22 42.3765 24.8C42.1565 24.66 41.8565 24.58 41.4765 24.58C41.1365 24.58 40.6365 24.7 40.0165 24.96C39.3965 25.22 39.0965 25.44 39.0965 25.64C39.0965 25.7 39.1165 25.78 39.1765 25.84C39.2765 25.96 39.4165 26.02 39.6365 26.02ZM39.3765 26.88C38.6765 26.88 38.3165 26.52 38.2565 25.82C38.2765 25.28 38.4965 24.9 38.9165 24.64C39.8565 24.08 40.7765 23.8 41.6565 23.8C42.1165 23.8 42.5565 23.94 42.9765 24.22C43.0365 24.28 43.1165 24.3 43.2165 24.3C43.4765 24.3 43.6165 24.46 43.6165 24.8C43.6165 25.54 44.1165 25.9 45.1165 25.9C46.5365 25.9 48.3565 25.48 50.6165 24.66C50.8765 24.56 51.0365 24.52 51.0965 24.52C51.3165 24.52 51.4765 24.76 51.4765 24.94C51.4765 25.12 51.3765 25.26 51.1965 25.32C49.4565 25.94 47.6965 26.38 45.8765 26.68C45.6365 26.74 45.3965 26.76 45.1565 26.76C44.6165 26.76 44.1165 26.62 43.6165 26.34C43.2165 26.04 42.9765 25.74 42.8965 25.42C42.1765 25.96 41.3365 26.4 40.3565 26.7C39.9365 26.82 39.6165 26.88 39.3765 26.88ZM73.8141 26.3C72.2141 26.3 70.8941 25.64 69.8741 24.3C69.1941 23.38 68.5341 22.92 67.8741 22.92C67.3741 22.92 66.7941 23.26 66.0941 23.92C65.7141 24.32 65.2941 24.62 64.8341 24.84C64.4541 24.84 64.2341 24.6 64.1741 24.12C64.0141 23.46 63.5941 23.1 62.9141 23.04C62.3341 23.04 61.6941 23.36 60.9741 24.02C59.8741 25.12 59.0341 25.68 58.4541 25.68C57.9341 25.68 57.6741 25.16 57.6741 24.12C57.6741 23.78 57.7141 23.44 57.7941 23.1C57.8741 22.56 57.9141 22.16 57.9141 21.9C57.9141 21.8 57.8541 21.74 57.7541 21.74L56.0941 22.74C54.5541 23.74 52.9741 24.58 51.3341 25.26L51.2141 25.28C50.9741 25.28 50.8541 25.16 50.8541 24.9C50.8541 24.72 50.9341 24.6 51.0941 24.5C52.7141 23.84 54.2541 23 55.7141 22.02C55.8141 21.96 55.9141 21.9 56.0341 21.8C56.8941 21.2 57.5541 20.9 58.0141 20.9C58.4741 20.92 58.6941 21.28 58.6941 22C58.6941 22.38 58.6541 22.78 58.5941 23.16C58.5341 23.44 58.4941 23.76 58.4741 24.1C58.4741 24.44 58.4941 24.68 58.5541 24.78L58.6741 24.8L58.7941 24.76C59.0941 24.6 59.4741 24.32 59.9141 23.9C60.4141 23.44 60.8741 23.06 61.2541 22.76C61.7541 22.42 62.2941 22.24 62.8341 22.24C63.3341 22.24 63.7941 22.4 64.1941 22.74C64.5741 23.02 64.8341 23.4 64.9741 23.88C65.1141 23.76 65.3141 23.58 65.5541 23.34C66.2541 22.64 66.9941 22.24 67.7541 22.14C68.7941 22.14 69.7141 22.7 70.4941 23.84C71.3141 24.9 72.4141 25.46 73.7741 25.5C75.1941 25.46 76.5741 25.14 77.8941 24.52L78.0341 24.5C78.2941 24.5 78.4341 24.62 78.4741 24.88C78.4741 25.04 78.3941 25.16 78.2541 25.24C77.0341 25.78 75.7741 26.12 74.4541 26.26C74.2341 26.28 74.0141 26.3 73.8141 26.3ZM83.079 27.14C82.299 27.14 81.499 27.08 80.719 26.96L80.599 26.94C78.819 26.72 77.739 26.16 77.359 25.22C77.339 25.06 77.319 24.92 77.319 24.78C77.319 24.12 77.759 23.44 78.639 22.76C79.139 22.38 79.599 22.2 80.019 22.2C80.539 22.2 80.859 22.44 80.999 22.9L81.019 23.12C81.019 23.54 80.739 23.96 80.179 24.36C79.519 24.84 78.879 25.12 78.239 25.2L78.339 25.3C78.559 25.52 78.799 25.66 79.079 25.76C79.559 25.92 79.879 26 80.019 26C81.039 26.22 82.059 26.34 83.079 26.34C85.539 26.34 87.859 25.74 90.059 24.56C90.119 24.52 90.199 24.5 90.279 24.5C90.419 24.5 90.659 24.62 90.659 24.94C90.659 25.08 90.579 25.18 90.439 25.24C88.179 26.5 85.719 27.14 83.079 27.14ZM78.199 24.42C78.379 24.4 78.619 24.32 78.919 24.16C79.419 23.9 79.819 23.66 80.079 23.42C80.179 23.34 80.219 23.24 80.219 23.14C80.219 23.04 80.159 23 80.059 23C79.679 23 79.239 23.24 78.779 23.72C78.459 23.98 78.259 24.2 78.199 24.42ZM106.411 29.48C106.251 29.48 106.131 29.42 106.031 29.32C105.991 29.26 105.971 29.2 105.971 29.14L105.991 28.98C106.271 28.26 106.551 27.54 106.811 26.8C107.331 25.42 107.871 24.06 108.411 22.7L108.331 22.76C106.471 23.82 104.511 24.68 102.451 25.36L102.331 25.38C102.111 25.38 101.971 25.2 101.971 24.98C101.971 24.9 101.911 24.68 102.231 24.58C104.531 23.8 106.731 22.78 108.811 21.52L108.891 21.48C110.891 17.06 113.611 12.64 117.051 8.22C118.011 6.82 119.171 5.64 120.551 4.7C121.051 4.36 121.471 4.18 121.811 4.18C122.411 4.18 122.711 4.58 122.711 5.38C122.711 5.64 122.691 5.86 122.651 6.08C122.251 7.82 121.531 9.44 120.511 10.94L120.491 11C117.751 15.58 114.111 19.28 109.531 22.14C109.511 22.16 109.471 22.18 109.431 22.2C108.731 23.78 108.111 25.4 107.591 27.06L107.351 27.72L107.411 27.66L108.331 26.84C109.911 25.4 111.551 24.02 113.231 22.68C114.171 21.86 115.151 21.44 116.131 21.44C116.951 21.44 117.791 21.72 118.631 22.3C119.011 22.6 119.351 22.94 119.691 23.28C120.151 23.76 120.671 24.2 121.211 24.6C123.431 26.1 126.071 26.84 129.131 26.84C131.911 26.84 135.311 26.1 139.291 24.64L139.431 24.62C139.611 24.62 139.771 24.78 139.771 25C139.771 25.08 139.831 25.28 139.511 25.42C136.811 26.44 134.011 27.14 131.151 27.52C130.391 27.62 129.651 27.68 128.911 27.68C125.311 27.68 122.091 26.46 119.251 24C118.631 23.38 118.151 22.94 117.771 22.66C117.351 22.34 116.851 22.18 116.291 22.16C115.311 22.2 114.211 22.78 113.031 23.9L106.671 29.38C106.591 29.44 106.511 29.48 106.411 29.48ZM110.071 20.82L110.131 20.78C112.751 19 115.051 16.9 117.071 14.46C118.331 12.92 119.351 11.44 120.131 9.98C121.271 8.2 121.871 6.7 121.891 5.5C121.891 5.22 121.831 5.08 121.691 5.08C121.631 5.08 121.531 5.1 121.411 5.16C120.911 5.38 120.451 5.7 120.011 6.1C118.791 7.24 117.191 9.22 115.191 12.08C113.431 14.6 111.731 17.52 110.071 20.82ZM144.388 27.14C143.608 27.14 142.808 27.08 142.028 26.96L141.908 26.94C140.128 26.72 139.048 26.16 138.668 25.22C138.648 25.06 138.628 24.92 138.628 24.78C138.628 24.12 139.068 23.44 139.948 22.76C140.448 22.38 140.908 22.2 141.328 22.2C141.848 22.2 142.168 22.44 142.308 22.9L142.328 23.12C142.328 23.54 142.048 23.96 141.488 24.36C140.828 24.84 140.188 25.12 139.548 25.2L139.648 25.3C139.868 25.52 140.108 25.66 140.388 25.76C140.868 25.92 141.188 26 141.328 26C142.348 26.22 143.368 26.34 144.388 26.34C146.848 26.34 149.168 25.74 151.368 24.56C151.428 24.52 151.508 24.5 151.588 24.5C151.728 24.5 151.968 24.62 151.968 24.94C151.968 25.08 151.888 25.18 151.748 25.24C149.488 26.5 147.028 27.14 144.388 27.14ZM139.508 24.42C139.688 24.4 139.928 24.32 140.228 24.16C140.728 23.9 141.128 23.66 141.388 23.42C141.488 23.34 141.528 23.24 141.528 23.14C141.528 23.04 141.468 23 141.368 23C140.988 23 140.548 23.24 140.088 23.72C139.768 23.98 139.568 24.2 139.508 24.42ZM154.527 27.66C153.907 27.66 153.587 27.4 153.587 26.86C153.587 26.7 153.627 26.52 153.727 26.32C154.127 25.58 154.647 24.96 155.307 24.46L155.387 24.38C156.287 23.62 156.747 23.08 156.747 22.74C156.747 22.64 156.707 22.56 156.627 22.5L156.547 22.48C156.487 22.48 156.407 22.5 156.287 22.54H156.267C155.787 22.72 155.327 23 154.907 23.38C154.247 23.92 153.687 24.24 153.187 24.32C152.767 24.76 152.267 25.08 151.647 25.26L151.507 25.28C151.267 25.28 151.147 25.14 151.147 24.88C151.147 24.7 151.247 24.56 151.427 24.48C151.767 24.38 152.007 24.26 152.147 24.14C151.967 24.08 151.867 23.82 151.867 23.4C151.867 23.06 152.127 22.38 152.907 22.38C153.407 22.38 153.667 22.66 153.667 23.2L153.687 23.28C153.907 23.14 154.167 22.96 154.447 22.74L154.467 22.72C155.327 22.02 156.047 21.68 156.667 21.68C157.047 21.68 157.327 21.9 157.507 22.32C157.547 22.46 157.567 22.62 157.567 22.76C157.567 23.46 156.867 24.32 155.467 25.36C155.267 25.54 155.067 25.76 154.847 25.98C154.587 26.26 154.447 26.52 154.447 26.74C154.447 26.82 154.487 26.86 154.567 26.86L155.227 26.7C157.287 26.12 159.207 25.38 160.987 24.52L161.147 24.5C161.327 24.5 161.567 24.62 161.567 24.92C161.567 25.06 161.487 25.16 161.347 25.22C159.607 26.06 157.887 26.74 156.187 27.28L155.847 27.38C155.407 27.52 154.967 27.62 154.527 27.66ZM152.727 23.54C152.827 23.4 152.867 23.26 152.867 23.16C152.847 23.14 152.807 23.12 152.747 23.12C152.687 23.12 152.667 23.16 152.667 23.24C152.667 23.44 152.687 23.54 152.727 23.54ZM166.399 27.14C165.619 27.14 164.819 27.08 164.039 26.96L163.919 26.94C162.139 26.72 161.059 26.16 160.679 25.22C160.659 25.06 160.639 24.92 160.639 24.78C160.639 24.12 161.079 23.44 161.959 22.76C162.459 22.38 162.919 22.2 163.339 22.2C163.859 22.2 164.179 22.44 164.319 22.9L164.339 23.12C164.339 23.54 164.059 23.96 163.499 24.36C162.839 24.84 162.199 25.12 161.559 25.2L161.659 25.3C161.879 25.52 162.119 25.66 162.399 25.76C162.879 25.92 163.199 26 163.339 26C164.359 26.22 165.379 26.34 166.399 26.34C168.859 26.34 171.179 25.74 173.379 24.56C173.439 24.52 173.519 24.5 173.599 24.5C173.739 24.5 173.979 24.62 173.979 24.94C173.979 25.08 173.899 25.18 173.759 25.24C171.499 26.5 169.039 27.14 166.399 27.14ZM161.519 24.42C161.699 24.4 161.939 24.32 162.239 24.16C162.739 23.9 163.139 23.66 163.399 23.42C163.499 23.34 163.539 23.24 163.539 23.14C163.539 23.04 163.479 23 163.379 23C162.999 23 162.559 23.24 162.099 23.72C161.779 23.98 161.579 24.2 161.519 24.42Z" fill="black"/>
</svg>
